<?xml version="1.0" encoding="utf-8" standalone="no"?>
<!DOCTYPE svg PUBLIC "-//W3C//DTD SVG 1.1//EN"
  "http://www.w3.org/Graphics/SVG/1.1/DTD/svg11.dtd">
<svg height="288pt" version="1.1" viewBox="0 0 432 288" width="432pt" xmlns="http://www.w3.org/2000/svg" xmlns:xlink="http://www.w3.org/1999/xlink">
 <metadata>
  <rdf:RDF xmlns:cc="http://creativecommons.org/ns#" xmlns:dc="http://purl.org/dc/elements/1.1/" xmlns:rdf="http://www.w3.org/1999/02/22-rdf-syntax-ns#">
   <cc:Work>
    <dc:type rdf:resource="http://purl.org/dc/dcmitype/StillImage"/>
    <dc:date>2021-06-01T14:00:35.497919</dc:date>
    <dc:format>image/svg+xml</dc:format>
    <dc:creator>
     <cc:Agent>
      <dc:title>Matplotlib v3.4.2, https://matplotlib.org/</dc:title>
     </cc:Agent>
    </dc:creator>
   </cc:Work>
  </rdf:RDF>
 </metadata>
 <defs>
  <style type="text/css">*{stroke-linecap:butt;stroke-linejoin:round;}</style>
 </defs>
 <g id="figure_1">
  <g id="patch_1">
   <path d="M 0 288 
L 432 288 
L 432 0 
L 0 0 
z
" style="fill:none;"/>
  </g>
  <g id="axes_1">
   <g id="patch_2">
    <path d="M 32.55 75.4 
L 421.2 75.4 
L 421.2 14.8 
L 32.55 14.8 
z
" style="fill:#ffffff;"/>
   </g>
   <g id="matplotlib.axis_1">
    <g id="xtick_1">
     <g id="line2d_1">
      <path clip-path="url(#p075275d711)" d="M 50.215909 75.4 
L 50.215909 14.8 
" style="fill:none;stroke:#b0b0b0;stroke-linecap:square;stroke-width:0.8;"/>
     </g>
     <g id="line2d_2">
      <defs>
       <path d="M 0 0 
L 0 3.5 
" id="mcb1b3fff46" style="stroke:#000000;stroke-width:0.8;"/>
      </defs>
      <g>
       <use style="stroke:#000000;stroke-width:0.8;" x="50.215909" xlink:href="#mcb1b3fff46" y="75.4"/>
      </g>
     </g>
     <g id="text_1">
      <!-- 0 -->
      <g transform="translate(47.034659 89.998437)scale(0.1 -0.1)">
       <defs>
        <path d="M 2034 4250 
Q 1547 4250 1301 3770 
Q 1056 3291 1056 2328 
Q 1056 1369 1301 889 
Q 1547 409 2034 409 
Q 2525 409 2770 889 
Q 3016 1369 3016 2328 
Q 3016 3291 2770 3770 
Q 2525 4250 2034 4250 
z
M 2034 4750 
Q 2819 4750 3233 4129 
Q 3647 3509 3647 2328 
Q 3647 1150 3233 529 
Q 2819 -91 2034 -91 
Q 1250 -91 836 529 
Q 422 1150 422 2328 
Q 422 3509 836 4129 
Q 1250 4750 2034 4750 
z
" id="DejaVuSans-30" transform="scale(0.015625)"/>
       </defs>
       <use xlink:href="#DejaVuSans-30"/>
      </g>
     </g>
    </g>
    <g id="xtick_2">
     <g id="line2d_3">
      <path clip-path="url(#p075275d711)" d="M 120.879545 75.4 
L 120.879545 14.8 
" style="fill:none;stroke:#b0b0b0;stroke-linecap:square;stroke-width:0.8;"/>
     </g>
     <g id="line2d_4">
      <g>
       <use style="stroke:#000000;stroke-width:0.8;" x="120.879545" xlink:href="#mcb1b3fff46" y="75.4"/>
      </g>
     </g>
     <g id="text_2">
      <!-- 1 -->
      <g transform="translate(117.698295 89.998437)scale(0.1 -0.1)">
       <defs>
        <path d="M 794 531 
L 1825 531 
L 1825 4091 
L 703 3866 
L 703 4441 
L 1819 4666 
L 2450 4666 
L 2450 531 
L 3481 531 
L 3481 0 
L 794 0 
L 794 531 
z
" id="DejaVuSans-31" transform="scale(0.015625)"/>
       </defs>
       <use xlink:href="#DejaVuSans-31"/>
      </g>
     </g>
    </g>
    <g id="xtick_3">
     <g id="line2d_5">
      <path clip-path="url(#p075275d711)" d="M 191.543182 75.4 
L 191.543182 14.8 
" style="fill:none;stroke:#b0b0b0;stroke-linecap:square;stroke-width:0.8;"/>
     </g>
     <g id="line2d_6">
      <g>
       <use style="stroke:#000000;stroke-width:0.8;" x="191.543182" xlink:href="#mcb1b3fff46" y="75.4"/>
      </g>
     </g>
     <g id="text_3">
      <!-- 2 -->
      <g transform="translate(188.361932 89.998437)scale(0.1 -0.1)">
       <defs>
        <path d="M 1228 531 
L 3431 531 
L 3431 0 
L 469 0 
L 469 531 
Q 828 903 1448 1529 
Q 2069 2156 2228 2338 
Q 2531 2678 2651 2914 
Q 2772 3150 2772 3378 
Q 2772 3750 2511 3984 
Q 2250 4219 1831 4219 
Q 1534 4219 1204 4116 
Q 875 4013 500 3803 
L 500 4441 
Q 881 4594 1212 4672 
Q 1544 4750 1819 4750 
Q 2544 4750 2975 4387 
Q 3406 4025 3406 3419 
Q 3406 3131 3298 2873 
Q 3191 2616 2906 2266 
Q 2828 2175 2409 1742 
Q 1991 1309 1228 531 
z
" id="DejaVuSans-32" transform="scale(0.015625)"/>
       </defs>
       <use xlink:href="#DejaVuSans-32"/>
      </g>
     </g>
    </g>
    <g id="xtick_4">
     <g id="line2d_7">
      <path clip-path="url(#p075275d711)" d="M 262.206818 75.4 
L 262.206818 14.8 
" style="fill:none;stroke:#b0b0b0;stroke-linecap:square;stroke-width:0.8;"/>
     </g>
     <g id="line2d_8">
      <g>
       <use style="stroke:#000000;stroke-width:0.8;" x="262.206818" xlink:href="#mcb1b3fff46" y="75.4"/>
      </g>
     </g>
     <g id="text_4">
      <!-- 3 -->
      <g transform="translate(259.025568 89.998437)scale(0.1 -0.1)">
       <defs>
        <path d="M 2597 2516 
Q 3050 2419 3304 2112 
Q 3559 1806 3559 1356 
Q 3559 666 3084 287 
Q 2609 -91 1734 -91 
Q 1441 -91 1130 -33 
Q 819 25 488 141 
L 488 750 
Q 750 597 1062 519 
Q 1375 441 1716 441 
Q 2309 441 2620 675 
Q 2931 909 2931 1356 
Q 2931 1769 2642 2001 
Q 2353 2234 1838 2234 
L 1294 2234 
L 1294 2753 
L 1863 2753 
Q 2328 2753 2575 2939 
Q 2822 3125 2822 3475 
Q 2822 3834 2567 4026 
Q 2313 4219 1838 4219 
Q 1578 4219 1281 4162 
Q 984 4106 628 3988 
L 628 4550 
Q 988 4650 1302 4700 
Q 1616 4750 1894 4750 
Q 2613 4750 3031 4423 
Q 3450 4097 3450 3541 
Q 3450 3153 3228 2886 
Q 3006 2619 2597 2516 
z
" id="DejaVuSans-33" transform="scale(0.015625)"/>
       </defs>
       <use xlink:href="#DejaVuSans-33"/>
      </g>
     </g>
    </g>
    <g id="xtick_5">
     <g id="line2d_9">
      <path clip-path="url(#p075275d711)" d="M 332.870455 75.4 
L 332.870455 14.8 
" style="fill:none;stroke:#b0b0b0;stroke-linecap:square;stroke-width:0.8;"/>
     </g>
     <g id="line2d_10">
      <g>
       <use style="stroke:#000000;stroke-width:0.8;" x="332.870455" xlink:href="#mcb1b3fff46" y="75.4"/>
      </g>
     </g>
     <g id="text_5">
      <!-- 4 -->
      <g transform="translate(329.689205 89.998437)scale(0.1 -0.1)">
       <defs>
        <path d="M 2419 4116 
L 825 1625 
L 2419 1625 
L 2419 4116 
z
M 2253 4666 
L 3047 4666 
L 3047 1625 
L 3713 1625 
L 3713 1100 
L 3047 1100 
L 3047 0 
L 2419 0 
L 2419 1100 
L 313 1100 
L 313 1709 
L 2253 4666 
z
" id="DejaVuSans-34" transform="scale(0.015625)"/>
       </defs>
       <use xlink:href="#DejaVuSans-34"/>
      </g>
     </g>
    </g>
    <g id="xtick_6">
     <g id="line2d_11">
      <path clip-path="url(#p075275d711)" d="M 403.534091 75.4 
L 403.534091 14.8 
" style="fill:none;stroke:#b0b0b0;stroke-linecap:square;stroke-width:0.8;"/>
     </g>
     <g id="line2d_12">
      <g>
       <use style="stroke:#000000;stroke-width:0.8;" x="403.534091" xlink:href="#mcb1b3fff46" y="75.4"/>
      </g>
     </g>
     <g id="text_6">
      <!-- 5 -->
      <g transform="translate(400.352841 89.998437)scale(0.1 -0.1)">
       <defs>
        <path d="M 691 4666 
L 3169 4666 
L 3169 4134 
L 1269 4134 
L 1269 2991 
Q 1406 3038 1543 3061 
Q 1681 3084 1819 3084 
Q 2600 3084 3056 2656 
Q 3513 2228 3513 1497 
Q 3513 744 3044 326 
Q 2575 -91 1722 -91 
Q 1428 -91 1123 -41 
Q 819 9 494 109 
L 494 744 
Q 775 591 1075 516 
Q 1375 441 1709 441 
Q 2250 441 2565 725 
Q 2881 1009 2881 1497 
Q 2881 1984 2565 2268 
Q 2250 2553 1709 2553 
Q 1456 2553 1204 2497 
Q 953 2441 691 2322 
L 691 4666 
z
" id="DejaVuSans-35" transform="scale(0.015625)"/>
       </defs>
       <use xlink:href="#DejaVuSans-35"/>
      </g>
     </g>
    </g>
   </g>
   <g id="matplotlib.axis_2">
    <g id="ytick_1">
     <g id="line2d_13">
      <path clip-path="url(#p075275d711)" d="M 32.55 75.4 
L 421.2 75.4 
" style="fill:none;stroke:#b0b0b0;stroke-linecap:square;stroke-width:0.8;"/>
     </g>
     <g id="line2d_14">
      <defs>
       <path d="M 0 0 
L -3.5 0 
" id="m0290c92e51" style="stroke:#000000;stroke-width:0.8;"/>
      </defs>
      <g>
       <use style="stroke:#000000;stroke-width:0.8;" x="32.55" xlink:href="#m0290c92e51" y="75.4"/>
      </g>
     </g>
     <g id="text_7">
      <!-- −2 -->
      <g transform="translate(10.807813 79.199219)scale(0.1 -0.1)">
       <defs>
        <path d="M 678 2272 
L 4684 2272 
L 4684 1741 
L 678 1741 
L 678 2272 
z
" id="DejaVuSans-2212" transform="scale(0.015625)"/>
       </defs>
       <use xlink:href="#DejaVuSans-2212"/>
       <use x="83.789062" xlink:href="#DejaVuSans-32"/>
      </g>
     </g>
    </g>
    <g id="ytick_2">
     <g id="line2d_15">
      <path clip-path="url(#p075275d711)" d="M 32.55 45.1 
L 421.2 45.1 
" style="fill:none;stroke:#b0b0b0;stroke-linecap:square;stroke-width:0.8;"/>
     </g>
     <g id="line2d_16">
      <g>
       <use style="stroke:#000000;stroke-width:0.8;" x="32.55" xlink:href="#m0290c92e51" y="45.1"/>
      </g>
     </g>
     <g id="text_8">
      <!-- 0 -->
      <g transform="translate(19.1875 48.899219)scale(0.1 -0.1)">
       <use xlink:href="#DejaVuSans-30"/>
      </g>
     </g>
    </g>
    <g id="ytick_3">
     <g id="line2d_17">
      <path clip-path="url(#p075275d711)" d="M 32.55 14.8 
L 421.2 14.8 
" style="fill:none;stroke:#b0b0b0;stroke-linecap:square;stroke-width:0.8;"/>
     </g>
     <g id="line2d_18">
      <g>
       <use style="stroke:#000000;stroke-width:0.8;" x="32.55" xlink:href="#m0290c92e51" y="14.8"/>
      </g>
     </g>
     <g id="text_9">
      <!-- 2 -->
      <g transform="translate(19.1875 18.599219)scale(0.1 -0.1)">
       <use xlink:href="#DejaVuSans-32"/>
      </g>
     </g>
    </g>
   </g>
   <g id="line2d_19">
    <path clip-path="url(#p075275d711)" d="M 50.215909 45.1 
L 55.163353 40.583767 
L 57.778431 38.49422 
L 59.969442 37.013107 
L 61.948419 35.936979 
L 63.786042 35.190529 
L 65.482308 34.735461 
L 67.107897 34.5201 
L 68.733486 34.525394 
L 70.359074 34.751232 
L 72.055342 35.216879 
L 73.822285 35.940335 
L 75.730585 36.974434 
L 77.780242 38.344127 
L 80.183284 40.231176 
L 83.222428 42.922919 
L 91.774437 50.676145 
L 94.177484 52.462164 
L 96.227141 53.723677 
L 98.135439 54.64214 
L 99.902382 55.248655 
L 101.59865 55.595846 
L 103.224238 55.704995 
L 104.84983 55.592965 
L 106.475414 55.262094 
L 108.171682 54.691032 
L 110.009304 53.827159 
L 111.988282 52.637643 
L 114.179294 51.050912 
L 116.794371 48.868011 
L 120.610971 45.353232 
L 125.841124 40.571708 
L 128.456205 38.483792 
L 130.647217 37.004487 
L 132.626195 35.930272 
L 134.463813 35.185789 
L 136.160081 34.732647 
L 137.785673 34.519192 
L 139.411257 34.52641 
L 141.036841 34.754152 
L 142.733109 35.221719 
L 144.50006 35.947064 
L 146.408354 36.983002 
L 148.458015 38.354411 
L 150.861053 40.243026 
L 153.900203 42.935973 
L 162.452209 50.687481 
L 164.855255 52.47175 
L 166.904917 53.731433 
L 168.81321 54.647951 
L 170.580153 55.252514 
L 172.276421 55.597746 
L 173.902013 55.704974 
L 175.527597 55.591025 
L 177.153189 55.258273 
L 178.849457 54.685336 
L 180.687076 53.819577 
L 182.666061 52.628259 
L 184.857065 51.039872 
L 187.472146 48.855542 
L 191.288742 45.339903 
L 196.518896 40.559657 
L 199.133968 38.473386 
L 201.324989 36.995882 
L 203.303966 35.923582 
L 205.141593 35.181061 
L 206.837852 34.72985 
L 208.463436 34.518301 
L 210.089037 34.527445 
L 211.714621 34.757091 
L 213.410897 35.226583 
L 215.177832 35.953803 
L 217.086134 36.991598 
L 219.135787 38.364699 
L 221.538833 40.254885 
L 224.577975 42.949021 
L 233.059288 50.64208 
L 235.462351 52.433331 
L 237.58268 53.739169 
L 239.490982 54.653744 
L 241.257933 55.256363 
L 242.954192 55.599628 
L 244.579776 55.704937 
L 246.205377 55.589066 
L 247.830961 55.254438 
L 249.527237 54.679622 
L 251.364847 53.811985 
L 253.343825 52.618867 
L 255.534828 51.028836 
L 258.149918 48.843066 
L 261.966522 45.32657 
L 267.196667 40.547617 
L 269.81174 38.462979 
L 272.002743 36.987299 
L 273.981738 35.916904 
L 275.819348 35.176361 
L 277.515624 34.727068 
L 279.141208 34.517426 
L 280.766809 34.528495 
L 282.392392 34.760045 
L 284.088668 35.231458 
L 285.855603 35.960561 
L 287.763905 37.000194 
L 289.813558 38.375006 
L 292.216605 40.266743 
L 295.25573 42.962062 
L 303.737076 50.653464 
L 306.140123 52.442959 
L 308.189776 53.70814 
L 310.098078 54.630482 
L 311.865029 55.240893 
L 313.561289 55.591999 
L 315.186872 55.704986 
L 316.812473 55.596795 
L 318.43804 55.26969 
L 320.134316 54.70238 
L 321.971943 53.842275 
L 323.950921 52.656369 
L 326.141924 51.072963 
L 328.757014 48.8929 
L 332.502926 45.446488 
L 337.874439 40.535575 
L 340.489511 38.452598 
L 342.680532 36.978716 
L 344.659476 35.910261 
L 346.497136 35.171658 
L 348.193379 34.724306 
L 349.818996 34.516567 
L 351.444546 34.529559 
L 353.070164 34.763013 
L 354.76644 35.236342 
L 356.533375 35.967322 
L 358.441694 37.008822 
L 360.49133 38.385309 
L 362.894359 40.278601 
L 365.933518 42.975147 
L 374.414865 50.664821 
L 376.817894 52.452576 
L 378.86753 53.71591 
L 380.775849 54.636323 
L 382.542784 55.244781 
L 384.23906 55.593932 
L 385.864644 55.704999 
L 387.490228 55.594889 
L 389.115845 55.265888 
L 390.812088 54.696712 
L 392.649714 53.834718 
L 394.628692 52.647005 
L 396.819712 51.061922 
L 399.434785 48.880462 
L 403.251389 45.366535 
L 403.534091 45.099986 
L 403.534091 45.099986 
" style="fill:none;stroke:#0072b2;stroke-linecap:square;"/>
   </g>
   <g id="patch_3">
    <path d="M 32.55 75.4 
L 32.55 14.8 
" style="fill:none;stroke:#000000;stroke-linecap:square;stroke-linejoin:miter;stroke-width:0.8;"/>
   </g>
   <g id="patch_4">
    <path d="M 421.2 75.4 
L 421.2 14.8 
" style="fill:none;stroke:#000000;stroke-linecap:square;stroke-linejoin:miter;stroke-width:0.8;"/>
   </g>
   <g id="patch_5">
    <path d="M 32.55 75.4 
L 421.2 75.4 
" style="fill:none;stroke:#000000;stroke-linecap:square;stroke-linejoin:miter;stroke-width:0.8;"/>
   </g>
   <g id="patch_6">
    <path d="M 32.55 14.8 
L 421.2 14.8 
" style="fill:none;stroke:#000000;stroke-linecap:square;stroke-linejoin:miter;stroke-width:0.8;"/>
   </g>
  </g>
  <g id="axes_2">
   <g id="patch_7">
    <path d="M 32.55 167.8 
L 421.2 167.8 
L 421.2 107.2 
L 32.55 107.2 
z
" style="fill:#ffffff;"/>
   </g>
   <g id="matplotlib.axis_3">
    <g id="xtick_7">
     <g id="line2d_20">
      <path clip-path="url(#p448db62c50)" d="M 50.215909 167.8 
L 50.215909 107.2 
" style="fill:none;stroke:#b0b0b0;stroke-linecap:square;stroke-width:0.8;"/>
     </g>
     <g id="line2d_21">
      <g>
       <use style="stroke:#000000;stroke-width:0.8;" x="50.215909" xlink:href="#mcb1b3fff46" y="167.8"/>
      </g>
     </g>
     <g id="text_10">
      <!-- 0 -->
      <g transform="translate(47.034659 182.398438)scale(0.1 -0.1)">
       <use xlink:href="#DejaVuSans-30"/>
      </g>
     </g>
    </g>
    <g id="xtick_8">
     <g id="line2d_22">
      <path clip-path="url(#p448db62c50)" d="M 120.879545 167.8 
L 120.879545 107.2 
" style="fill:none;stroke:#b0b0b0;stroke-linecap:square;stroke-width:0.8;"/>
     </g>
     <g id="line2d_23">
      <g>
       <use style="stroke:#000000;stroke-width:0.8;" x="120.879545" xlink:href="#mcb1b3fff46" y="167.8"/>
      </g>
     </g>
     <g id="text_11">
      <!-- 1 -->
      <g transform="translate(117.698295 182.398438)scale(0.1 -0.1)">
       <use xlink:href="#DejaVuSans-31"/>
      </g>
     </g>
    </g>
    <g id="xtick_9">
     <g id="line2d_24">
      <path clip-path="url(#p448db62c50)" d="M 191.543182 167.8 
L 191.543182 107.2 
" style="fill:none;stroke:#b0b0b0;stroke-linecap:square;stroke-width:0.8;"/>
     </g>
     <g id="line2d_25">
      <g>
       <use style="stroke:#000000;stroke-width:0.8;" x="191.543182" xlink:href="#mcb1b3fff46" y="167.8"/>
      </g>
     </g>
     <g id="text_12">
      <!-- 2 -->
      <g transform="translate(188.361932 182.398438)scale(0.1 -0.1)">
       <use xlink:href="#DejaVuSans-32"/>
      </g>
     </g>
    </g>
    <g id="xtick_10">
     <g id="line2d_26">
      <path clip-path="url(#p448db62c50)" d="M 262.206818 167.8 
L 262.206818 107.2 
" style="fill:none;stroke:#b0b0b0;stroke-linecap:square;stroke-width:0.8;"/>
     </g>
     <g id="line2d_27">
      <g>
       <use style="stroke:#000000;stroke-width:0.8;" x="262.206818" xlink:href="#mcb1b3fff46" y="167.8"/>
      </g>
     </g>
     <g id="text_13">
      <!-- 3 -->
      <g transform="translate(259.025568 182.398438)scale(0.1 -0.1)">
       <use xlink:href="#DejaVuSans-33"/>
      </g>
     </g>
    </g>
    <g id="xtick_11">
     <g id="line2d_28">
      <path clip-path="url(#p448db62c50)" d="M 332.870455 167.8 
L 332.870455 107.2 
" style="fill:none;stroke:#b0b0b0;stroke-linecap:square;stroke-width:0.8;"/>
     </g>
     <g id="line2d_29">
      <g>
       <use style="stroke:#000000;stroke-width:0.8;" x="332.870455" xlink:href="#mcb1b3fff46" y="167.8"/>
      </g>
     </g>
     <g id="text_14">
      <!-- 4 -->
      <g transform="translate(329.689205 182.398438)scale(0.1 -0.1)">
       <use xlink:href="#DejaVuSans-34"/>
      </g>
     </g>
    </g>
    <g id="xtick_12">
     <g id="line2d_30">
      <path clip-path="url(#p448db62c50)" d="M 403.534091 167.8 
L 403.534091 107.2 
" style="fill:none;stroke:#b0b0b0;stroke-linecap:square;stroke-width:0.8;"/>
     </g>
     <g id="line2d_31">
      <g>
       <use style="stroke:#000000;stroke-width:0.8;" x="403.534091" xlink:href="#mcb1b3fff46" y="167.8"/>
      </g>
     </g>
     <g id="text_15">
      <!-- 5 -->
      <g transform="translate(400.352841 182.398438)scale(0.1 -0.1)">
       <use xlink:href="#DejaVuSans-35"/>
      </g>
     </g>
    </g>
   </g>
   <g id="matplotlib.axis_4">
    <g id="ytick_4">
     <g id="line2d_32">
      <path clip-path="url(#p448db62c50)" d="M 32.55 167.8 
L 421.2 167.8 
" style="fill:none;stroke:#b0b0b0;stroke-linecap:square;stroke-width:0.8;"/>
     </g>
     <g id="line2d_33">
      <g>
       <use style="stroke:#000000;stroke-width:0.8;" x="32.55" xlink:href="#m0290c92e51" y="167.8"/>
      </g>
     </g>
     <g id="text_16">
      <!-- −2 -->
      <g transform="translate(10.807813 171.599219)scale(0.1 -0.1)">
       <use xlink:href="#DejaVuSans-2212"/>
       <use x="83.789062" xlink:href="#DejaVuSans-32"/>
      </g>
     </g>
    </g>
    <g id="ytick_5">
     <g id="line2d_34">
      <path clip-path="url(#p448db62c50)" d="M 32.55 137.5 
L 421.2 137.5 
" style="fill:none;stroke:#b0b0b0;stroke-linecap:square;stroke-width:0.8;"/>
     </g>
     <g id="line2d_35">
      <g>
       <use style="stroke:#000000;stroke-width:0.8;" x="32.55" xlink:href="#m0290c92e51" y="137.5"/>
      </g>
     </g>
     <g id="text_17">
      <!-- 0 -->
      <g transform="translate(19.1875 141.299219)scale(0.1 -0.1)">
       <use xlink:href="#DejaVuSans-30"/>
      </g>
     </g>
    </g>
    <g id="ytick_6">
     <g id="line2d_36">
      <path clip-path="url(#p448db62c50)" d="M 32.55 107.2 
L 421.2 107.2 
" style="fill:none;stroke:#b0b0b0;stroke-linecap:square;stroke-width:0.8;"/>
     </g>
     <g id="line2d_37">
      <g>
       <use style="stroke:#000000;stroke-width:0.8;" x="32.55" xlink:href="#m0290c92e51" y="107.2"/>
      </g>
     </g>
     <g id="text_18">
      <!-- 2 -->
      <g transform="translate(19.1875 110.999219)scale(0.1 -0.1)">
       <use xlink:href="#DejaVuSans-32"/>
      </g>
     </g>
    </g>
   </g>
   <g id="line2d_38">
    <path clip-path="url(#p448db62c50)" d="M 50.215909 137.5 
L 50.922687 136.274171 
L 51.276076 136.003585 
L 51.558787 136.021605 
L 51.912176 136.333109 
L 52.40692 137.170377 
L 53.325731 138.77983 
L 53.67912 139.008407 
L 53.961831 138.954422 
L 54.31522 138.603253 
L 54.880642 137.593246 
L 55.658098 136.245738 
L 56.011486 135.996654 
L 56.294198 136.033209 
L 56.647587 136.365303 
L 57.142331 137.218868 
L 57.990464 138.727506 
L 58.343853 138.996858 
L 58.626564 138.977769 
L 58.979953 138.665067 
L 59.474697 137.826834 
L 60.393509 136.218643 
L 60.746897 135.991329 
L 61.029608 136.04638 
L 61.382998 136.398708 
L 61.948419 137.409605 
L 62.725875 138.755862 
L 63.079264 139.003697 
L 63.361975 138.966073 
L 63.715363 138.632803 
L 64.210109 137.778323 
L 65.058242 136.270822 
L 65.41163 136.002704 
L 65.694341 136.022863 
L 66.04773 136.336762 
L 66.542475 137.175956 
L 67.461285 138.782878 
L 67.814674 139.008929 
L 68.097386 138.952812 
L 68.450774 138.59933 
L 69.016196 137.587546 
L 69.793652 136.242542 
L 70.147039 135.995958 
L 70.429751 136.034649 
L 70.783141 136.369096 
L 71.277885 137.224484 
L 72.126019 138.730844 
L 72.479406 138.997729 
L 72.762118 138.976499 
L 73.115508 138.661405 
L 73.61025 137.821257 
L 74.529063 136.215604 
L 74.882453 135.990818 
L 75.165163 136.048001 
L 75.518552 136.402638 
L 76.083974 137.415307 
L 76.861428 138.759048 
L 77.214818 139.004382 
L 77.49753 138.964623 
L 77.850919 138.629002 
L 78.345664 137.772708 
L 79.193795 136.267493 
L 79.547185 136.001843 
L 79.829895 136.024143 
L 80.183284 136.340428 
L 80.678028 137.181536 
L 81.596842 138.785911 
L 81.950229 139.009429 
L 82.232941 138.951182 
L 82.586329 138.595391 
L 83.15175 137.581843 
L 83.929207 136.239366 
L 84.282594 135.995283 
L 84.565306 136.03611 
L 84.918695 136.372904 
L 85.41344 137.230101 
L 86.261569 138.734161 
L 86.614963 138.998579 
L 86.897673 138.97521 
L 87.251062 138.657729 
L 87.745807 137.815666 
L 88.664616 136.212585 
L 89.018005 135.990329 
L 89.30072 136.049642 
L 89.654105 136.406583 
L 90.219525 137.421003 
L 90.996987 138.762221 
L 91.350372 139.005047 
L 91.633082 138.963152 
L 91.986472 138.625186 
L 92.481216 137.76709 
L 93.32935 136.264178 
L 93.682739 136.001005 
L 93.965454 136.025445 
L 94.318839 136.344115 
L 94.813583 137.187127 
L 95.732392 138.788917 
L 96.085786 139.009909 
L 96.368496 138.94953 
L 96.721881 138.591439 
L 97.287305 137.576135 
L 98.064764 136.236202 
L 98.418149 135.99463 
L 98.700859 136.037591 
L 99.054252 136.376731 
L 99.548992 137.235727 
L 100.397126 138.737468 
L 100.750516 138.999407 
L 101.033226 138.973898 
L 101.386615 138.654041 
L 101.881364 137.810074 
L 102.800173 136.209581 
L 103.153562 135.98986 
L 103.436272 136.051301 
L 103.789657 136.410539 
L 104.355081 137.426711 
L 105.13254 138.76537 
L 105.485925 139.00569 
L 105.768639 138.961659 
L 106.122029 138.621347 
L 106.616769 137.761467 
L 107.464903 136.260884 
L 107.818292 136.000188 
L 108.101006 136.026766 
L 108.454396 136.347822 
L 108.94914 137.192727 
L 109.867949 138.791915 
L 110.221339 139.010365 
L 110.504048 138.947859 
L 110.857438 138.587463 
L 111.422858 137.570431 
L 112.200316 136.233065 
L 112.553706 135.993996 
L 112.836415 136.039096 
L 113.189805 136.380571 
L 113.684549 137.241351 
L 114.532679 138.740753 
L 114.886073 139.000215 
L 115.168782 138.972566 
L 115.522168 138.650334 
L 116.016916 137.804483 
L 116.935725 136.206599 
L 117.289115 135.989414 
L 117.571829 136.052986 
L 117.925214 136.414523 
L 118.490634 137.432415 
L 119.268097 138.768501 
L 119.621482 139.006311 
L 119.904192 138.960147 
L 120.257581 138.6175 
L 120.823005 137.614136 
L 121.600459 136.257608 
L 121.953845 135.999392 
L 122.236563 136.028108 
L 122.589948 136.35153 
L 123.084693 137.198309 
L 124.003506 138.794888 
L 124.356891 139.010801 
L 124.639601 138.946168 
L 124.992995 138.58348 
L 125.558414 137.564715 
L 126.335869 136.229943 
L 126.689262 135.993384 
L 126.971972 136.040619 
L 127.325358 136.384426 
L 127.890786 137.388717 
L 128.66824 138.744034 
L 129.021625 139.001 
L 129.304335 138.971214 
L 129.65772 138.64661 
L 130.152473 137.798876 
L 131.071278 136.203635 
L 131.424663 135.98899 
L 131.707382 136.054687 
L 132.060775 136.418522 
L 132.626195 137.438143 
L 133.403641 138.771608 
L 133.757034 139.006911 
L 134.039753 138.958611 
L 134.393138 138.613636 
L 134.958558 137.608441 
L 135.73602 136.254336 
L 136.089406 135.998615 
L 136.372116 136.029471 
L 136.725501 136.355262 
L 137.220245 137.203907 
L 138.139059 138.797843 
L 138.492444 139.011215 
L 138.775154 138.944456 
L 139.128547 138.579481 
L 139.693976 137.558999 
L 140.471421 136.226839 
L 140.824815 135.992795 
L 141.107525 136.042162 
L 141.460919 136.388313 
L 142.026338 137.394412 
L 142.803793 138.747284 
L 143.157178 139.001762 
L 143.439888 138.969841 
L 143.793281 138.642854 
L 144.288026 137.793276 
L 145.206839 136.200683 
L 145.560224 135.988586 
L 145.842934 136.056409 
L 146.196328 136.422536 
L 146.761748 137.443837 
L 147.539202 138.774715 
L 147.892596 139.007491 
L 148.175305 138.957054 
L 148.528691 138.609749 
L 149.09411 137.602757 
L 149.871573 136.251101 
L 150.224958 135.997863 
L 150.507668 136.030858 
L 150.861053 136.359018 
L 151.355798 137.20952 
L 152.274611 138.80078 
L 152.627996 139.011608 
L 152.910706 138.942727 
L 153.264108 138.575451 
L 153.829528 137.553304 
L 154.606974 136.223753 
L 154.960368 135.992227 
L 155.243077 136.043726 
L 155.596471 136.3922 
L 156.161891 137.400098 
L 156.939345 138.750516 
L 157.292739 139.002506 
L 157.575449 138.968441 
L 157.928834 138.639098 
L 158.423578 137.787672 
L 159.342392 136.197756 
L 159.695777 135.988204 
L 159.978487 136.058148 
L 160.33188 136.42655 
L 160.8973 137.449555 
L 161.674754 138.777786 
L 162.028148 139.008049 
L 162.310858 138.955483 
L 162.664243 138.605862 
L 163.229671 137.597048 
L 164.007126 136.247871 
L 164.360511 135.99713 
L 164.643221 136.03226 
L 164.996614 136.36279 
L 165.491359 137.215138 
L 166.339488 138.725272 
L 166.692882 138.996269 
L 166.975592 138.978601 
L 167.328977 138.667495 
L 167.823722 137.830548 
L 168.742527 136.220692 
L 169.095929 135.99168 
L 169.378639 136.045314 
L 169.732024 136.396095 
L 170.297443 137.405807 
L 171.074906 138.753737 
L 171.428291 139.003229 
L 171.711001 138.967029 
L 172.064387 138.635333 
L 172.559131 137.782075 
L 173.407269 136.273048 
L 173.760654 136.003289 
L 174.043364 136.02202 
L 174.396749 136.334316 
L 174.891502 137.172245 
L 175.810307 138.780851 
L 176.163701 139.008584 
L 176.446411 138.953884 
L 176.799796 138.601943 
L 177.365224 137.591337 
L 178.142678 136.244672 
L 178.496063 135.996421 
L 178.778782 136.033688 
L 179.132167 136.366563 
L 179.626911 137.220736 
L 180.475041 138.728615 
L 180.828435 138.997152 
L 181.111145 138.977349 
L 181.46453 138.663855 
L 181.959274 137.824984 
L 182.878088 136.217624 
L 183.231481 135.991156 
L 183.514191 136.046923 
L 183.867576 136.400022 
L 184.433005 137.411518 
L 185.210459 138.756927 
L 185.563844 139.003927 
L 185.846554 138.96559 
L 186.199939 138.631536 
L 186.694692 137.776451 
L 187.542822 136.269714 
L 187.896207 136.002416 
L 188.178925 136.023288 
L 188.53231 136.337979 
L 189.027055 137.177811 
L 189.94586 138.783885 
L 190.299253 139.009099 
L 190.581972 138.952265 
L 190.935357 138.598009 
L 191.500777 137.585649 
L 192.278222 136.241491 
L 192.631616 135.99573 
L 192.914318 136.035126 
L 193.267728 136.370368 
L 193.762472 137.226362 
L 194.610594 138.731953 
L 194.963987 138.998013 
L 195.246706 138.976065 
L 195.600082 138.660184 
L 196.094827 137.819394 
L 197.01364 136.214599 
L 197.367034 135.990652 
L 197.649752 136.048552 
L 198.003129 136.403948 
L 198.568549 137.417208 
L 199.346011 138.760112 
L 199.699388 139.004604 
L 199.982106 138.964136 
L 200.3355 138.627724 
L 200.830228 137.770869 
L 201.678383 136.26637 
L 202.031776 136.001559 
L 202.314478 136.024576 
L 202.667871 136.341673 
L 203.162616 137.183426 
L 204.081412 138.786901 
L 204.434806 139.009591 
L 204.717507 138.950639 
L 205.070901 138.594091 
L 205.636338 137.579912 
L 206.413783 136.238314 
L 206.767177 135.995061 
L 207.049879 136.036602 
L 207.403272 136.374173 
L 207.898017 137.231969 
L 208.746138 138.735248 
L 209.099548 138.998861 
L 209.382267 138.974766 
L 209.735643 138.656496 
L 210.230388 137.813798 
L 211.149201 136.21158 
L 211.502578 135.990171 
L 211.785296 136.050195 
L 212.138673 136.40789 
L 212.704093 137.422875 
L 213.481572 138.76328 
L 213.834949 139.005262 
L 214.117668 138.962655 
L 214.471061 138.623895 
L 214.965789 137.765215 
L 215.813927 136.263085 
L 216.16732 136.000729 
L 216.450022 136.025881 
L 216.803416 136.345339 
L 217.298177 137.189024 
L 218.216973 138.789923 
L 218.570367 139.010063 
L 218.853068 138.948979 
L 219.206462 138.590109 
L 219.771882 137.574245 
L 220.549344 136.235156 
L 220.902738 135.994414 
L 221.18544 136.038093 
L 221.538833 136.37801 
L 222.033578 137.237602 
L 222.881699 138.738565 
L 223.235092 138.999676 
L 223.517811 138.973456 
L 223.871188 138.652807 
L 224.365949 137.808199 
L 225.284762 136.208567 
L 225.638139 135.989709 
L 225.920857 136.051866 
L 226.274234 136.411863 
L 226.839654 137.428613 
L 227.617117 138.766416 
L 227.970493 139.005897 
L 228.253212 138.96116 
L 228.606605 138.620066 
L 229.101333 137.759626 
L 229.949488 136.25979 
L 230.302881 135.999917 
L 230.585583 136.027212 
L 230.938977 136.349052 
L 231.433721 137.194603 
L 232.352517 138.792891 
L 232.705911 139.010512 
L 232.988613 138.947304 
L 233.342006 138.586161 
L 233.907443 137.568506 
L 234.684889 136.232028 
L 235.038282 135.99379 
L 235.320984 136.039592 
L 235.674377 136.381847 
L 236.239797 137.384898 
L 237.01726 138.741851 
L 237.370654 139.00048 
L 237.653372 138.97211 
L 238.006749 138.649086 
L 238.501493 137.802617 
L 239.420306 136.205609 
L 239.773683 135.989272 
L 240.056402 136.053551 
L 240.409778 136.415836 
L 240.975215 137.434329 
L 241.752678 138.769548 
L 242.106054 139.006512 
L 242.388773 138.959638 
L 242.742166 138.616205 
L 243.307586 137.612249 
L 244.085032 136.256526 
L 244.438426 135.99913 
L 244.721144 136.028563 
L 245.074538 136.352795 
L 245.569282 137.200186 
L 246.488078 138.795876 
L 246.841472 139.010943 
L 247.124174 138.945603 
L 247.477567 138.582148 
L 248.042987 137.562836 
L 248.82045 136.228894 
L 249.173843 135.993183 
L 249.456545 136.041131 
L 249.809938 136.385731 
L 250.375358 137.390604 
L 251.152804 138.745106 
L 251.506198 139.001257 
L 251.788916 138.970753 
L 252.142293 138.645364 
L 252.637054 137.797009 
L 253.555867 136.202645 
L 253.909244 135.988854 
L 254.191963 136.055256 
L 254.545339 136.419824 
L 255.110759 137.440022 
L 255.888222 138.772636 
L 256.241599 139.007102 
L 256.524317 138.958108 
L 256.877727 138.612329 
L 257.443147 137.606542 
L 258.220593 136.253266 
L 258.573987 135.998361 
L 258.856688 136.029925 
L 259.210082 136.35651 
L 259.704826 137.205797 
L 260.62364 138.79883 
L 260.977033 139.011351 
L 261.259735 138.943881 
L 261.613128 138.578136 
L 262.178548 137.557119 
L 262.955994 136.225815 
L 263.309388 135.992605 
L 263.592089 136.042672 
L 263.945483 136.389584 
L 264.510919 137.396312 
L 265.288365 138.748357 
L 265.641759 139.002015 
L 265.924477 138.96937 
L 266.277854 138.641611 
L 266.772598 137.791442 
L 267.691412 136.199699 
L 268.044788 135.988457 
L 268.327507 136.056988 
L 268.6809 136.423876 
L 269.24632 137.44574 
L 270.023783 138.775731 
L 270.37716 139.007679 
L 270.659878 138.956531 
L 271.013272 138.608468 
L 271.578691 137.600834 
L 272.356137 136.250024 
L 272.709548 135.997614 
L 272.992249 136.031318 
L 273.345643 136.360272 
L 273.840387 137.211412 
L 274.759184 138.801743 
L 275.112577 139.011734 
L 275.395279 138.942152 
L 275.748672 138.574141 
L 276.314092 137.551401 
L 277.091555 136.222729 
L 277.444949 135.992043 
L 277.72765 136.044246 
L 278.081044 136.393484 
L 278.646463 137.401974 
L 279.423909 138.751564 
L 279.777303 139.002746 
L 280.060021 138.967977 
L 280.413415 138.637842 
L 280.908159 137.785825 
L 281.826973 136.196772 
L 282.180349 135.988081 
L 282.463068 136.058741 
L 282.816445 136.427878 
L 283.381864 137.451412 
L 284.159344 138.778833 
L 284.512721 139.00823 
L 284.795439 138.954947 
L 285.148833 138.604528 
L 285.714252 137.595125 
L 286.491698 136.2468 
L 286.845092 135.996888 
L 287.127793 136.032733 
L 287.481187 136.364049 
L 287.975948 137.217031 
L 288.824069 138.726404 
L 289.177463 138.996563 
L 289.460164 138.978185 
L 289.813558 138.666265 
L 290.308303 137.828689 
L 291.227099 136.219685 
L 291.580493 135.991507 
L 291.863211 136.04584 
L 292.216605 136.3974 
L 292.782024 137.407731 
L 293.55947 138.754779 
L 293.912864 139.003461 
L 294.195582 138.966552 
L 294.548959 138.634087 
L 295.043703 137.780204 
L 295.891858 136.271918 
L 296.245235 136.002995 
L 296.527953 136.022445 
L 296.88133 136.335533 
L 297.376075 137.174104 
L 298.294888 138.781866 
L 298.648265 139.008755 
L 298.930983 138.953354 
L 299.284377 138.600636 
L 299.849813 137.589414 
L 300.627259 136.243594 
L 300.980653 135.996183 
L 301.263354 136.034168 
L 301.616748 136.367843 
L 302.111492 137.222608 
L 302.959614 138.729728 
L 303.313007 138.997442 
L 303.595726 138.976921 
L 303.949119 138.662605 
L 304.443864 137.823102 
L 305.36266 136.216611 
L 305.716054 135.990988 
L 305.998755 136.047456 
L 306.352149 136.401332 
L 306.917569 137.413396 
L 307.695031 138.757976 
L 308.048425 139.004156 
L 308.331143 138.965106 
L 308.68452 138.630285 
L 309.179264 137.774579 
L 310.027402 136.268604 
L 310.380779 136.002133 
L 310.663498 136.023709 
L 311.016874 136.339201 
L 311.511636 137.179694 
L 312.430449 138.784907 
L 312.783826 139.009264 
L 313.066544 138.951729 
L 313.419938 138.596696 
L 313.985358 137.583748 
L 314.762803 136.240432 
L 315.116197 135.995505 
L 315.398915 136.035624 
L 315.752309 136.371653 
L 316.247053 137.228235 
L 317.095175 138.733061 
L 317.448568 138.9983 
L 317.73127 138.975646 
L 318.084663 138.658958 
L 318.579408 137.817555 
L 319.498221 136.21358 
L 319.851615 135.990486 
L 320.134316 136.049092 
L 320.48771 136.405279 
L 321.05313 137.419109 
L 321.830575 138.761156 
L 322.183969 139.004828 
L 322.466687 138.96364 
L 322.820064 138.626467 
L 323.314825 137.76895 
L 324.162964 136.265279 
L 324.51634 136.001279 
L 324.799059 136.025015 
L 325.152435 136.342886 
L 325.64718 137.185243 
L 326.565993 138.787905 
L 326.91937 139.009746 
L 327.202088 138.950082 
L 327.555499 138.592741 
L 328.120919 137.578034 
L 328.898364 136.237261 
L 329.251758 135.994843 
L 329.53446 136.037089 
L 329.887853 136.375448 
L 330.382598 137.233865 
L 331.230736 138.736376 
L 331.584129 138.999137 
L 331.866831 138.974339 
L 332.220224 138.655265 
L 332.714969 137.811913 
L 333.633782 136.210567 
L 333.987176 135.990011 
L 334.269877 136.050749 
L 334.623271 136.409242 
L 335.188674 137.424777 
L 335.966153 138.764343 
L 336.319513 139.005474 
L 336.602215 138.962176 
L 336.955642 138.622602 
L 337.450386 137.763318 
L 338.298491 136.262 
L 338.651918 136.000453 
L 338.93462 136.026332 
L 339.28798 136.346558 
L 339.782758 137.190887 
L 340.701521 138.790884 
L 341.054948 139.010215 
L 341.337649 138.948415 
L 341.691043 138.588803 
L 342.256446 137.572366 
L 343.033925 136.234109 
L 343.387285 135.994208 
L 343.670021 136.038587 
L 344.023414 136.37929 
L 344.518125 137.239409 
L 345.366297 138.739674 
L 345.71969 138.999952 
L 346.002392 138.973012 
L 346.355752 138.651586 
L 346.85053 137.806312 
L 347.769326 136.207596 
L 348.12272 135.98956 
L 348.405421 136.052413 
L 348.758815 136.413189 
L 349.324252 137.430538 
L 350.101698 138.76746 
L 350.455091 139.006109 
L 350.737793 138.960656 
L 351.091186 138.618783 
L 351.656623 137.61601 
L 352.434035 136.258737 
L 352.787462 135.999649 
L 353.070164 136.027659 
L 353.423557 136.350305 
L 353.918302 137.196445 
L 354.837098 138.793894 
L 355.190492 139.010659 
L 355.473194 138.94674 
L 355.826587 138.584816 
L 356.392024 137.566604 
L 357.16947 136.230975 
L 357.522863 135.993584 
L 357.805565 136.040106 
L 358.158958 136.383148 
L 358.724395 137.386843 
L 359.501841 138.742954 
L 359.855234 139.000739 
L 360.13797 138.971653 
L 360.49133 138.647829 
L 360.986074 137.800751 
L 361.904871 136.204644 
L 362.258264 135.989131 
L 362.540999 136.054125 
L 362.894359 136.41715 
L 363.459796 137.436254 
L 364.237275 138.770611 
L 364.590635 139.006712 
L 364.873337 138.959127 
L 365.226764 138.614886 
L 365.792167 137.61035 
L 366.569613 136.255439 
L 366.923007 135.998872 
L 367.205708 136.029007 
L 367.559102 136.35401 
L 368.05388 137.202098 
L 368.972643 138.796837 
L 369.32607 139.011081 
L 369.608771 138.945018 
L 369.962131 138.580847 
L 370.527568 137.560934 
L 371.305014 136.227884 
L 371.658407 135.992991 
L 371.941143 136.041658 
L 372.294536 136.387053 
L 372.859939 137.392503 
L 373.637385 138.74619 
L 373.990779 139.001512 
L 374.273514 138.970284 
L 374.626874 138.644117 
L 375.121618 137.795187 
L 376.040448 136.201662 
L 376.393842 135.988716 
L 376.676543 136.05583 
L 377.029937 136.421192 
L 377.59534 137.441925 
L 378.37282 138.773693 
L 378.72618 139.007299 
L 379.008881 138.95759 
L 379.362308 138.611035 
L 379.927745 137.604597 
L 380.705157 136.252185 
L 381.058584 135.998104 
L 381.341286 136.030397 
L 381.694646 136.35776 
L 382.189424 137.20771 
L 383.108187 138.799786 
L 383.461614 139.011481 
L 383.744316 138.943303 
L 384.097709 138.576798 
L 384.663112 137.555217 
L 385.440592 136.224761 
L 385.793952 135.99242 
L 386.076687 136.043206 
L 386.43008 136.390912 
L 386.995483 137.398165 
L 387.772963 138.749461 
L 388.126357 139.002269 
L 388.409058 138.968905 
L 388.762418 138.640389 
L 389.257196 137.789528 
L 390.175993 136.198723 
L 390.529386 135.988326 
L 390.812088 136.057569 
L 391.165481 136.425217 
L 391.730918 137.447689 
L 392.508364 138.776782 
L 392.861757 139.007865 
L 393.144459 138.956006 
L 393.497853 138.607138 
L 394.063289 137.598888 
L 394.840701 136.248976 
L 395.194129 135.99737 
L 395.47683 136.031798 
L 395.830224 136.361527 
L 396.324968 137.213281 
L 397.243765 138.802716 
L 397.597158 139.011857 
L 397.87986 138.941554 
L 398.233253 138.572798 
L 398.798656 137.549545 
L 399.576136 136.221706 
L 399.92953 135.991861 
L 400.212231 136.044774 
L 400.565625 136.394786 
L 401.131061 137.403921 
L 401.908507 138.752662 
L 402.261901 139.002992 
L 402.544602 138.967505 
L 402.897962 138.636614 
L 403.39274 137.783909 
L 403.534091 137.50001 
L 403.534091 137.50001 
" style="fill:none;stroke:#0072b2;stroke-linecap:square;"/>
   </g>
   <g id="patch_8">
    <path d="M 32.55 167.8 
L 32.55 107.2 
" style="fill:none;stroke:#000000;stroke-linecap:square;stroke-linejoin:miter;stroke-width:0.8;"/>
   </g>
   <g id="patch_9">
    <path d="M 421.2 167.8 
L 421.2 107.2 
" style="fill:none;stroke:#000000;stroke-linecap:square;stroke-linejoin:miter;stroke-width:0.8;"/>
   </g>
   <g id="patch_10">
    <path d="M 32.55 167.8 
L 421.2 167.8 
" style="fill:none;stroke:#000000;stroke-linecap:square;stroke-linejoin:miter;stroke-width:0.8;"/>
   </g>
   <g id="patch_11">
    <path d="M 32.55 107.2 
L 421.2 107.2 
" style="fill:none;stroke:#000000;stroke-linecap:square;stroke-linejoin:miter;stroke-width:0.8;"/>
   </g>
  </g>
  <g id="axes_3">
   <g id="patch_12">
    <path d="M 32.55 260.2 
L 421.2 260.2 
L 421.2 199.6 
L 32.55 199.6 
z
" style="fill:#ffffff;"/>
   </g>
   <g id="matplotlib.axis_5">
    <g id="xtick_13">
     <g id="line2d_39">
      <path clip-path="url(#p6c6fb88a1b)" d="M 50.215909 260.2 
L 50.215909 199.6 
" style="fill:none;stroke:#b0b0b0;stroke-linecap:square;stroke-width:0.8;"/>
     </g>
     <g id="line2d_40">
      <g>
       <use style="stroke:#000000;stroke-width:0.8;" x="50.215909" xlink:href="#mcb1b3fff46" y="260.2"/>
      </g>
     </g>
     <g id="text_19">
      <!-- 0 -->
      <g transform="translate(47.034659 274.798437)scale(0.1 -0.1)">
       <use xlink:href="#DejaVuSans-30"/>
      </g>
     </g>
    </g>
    <g id="xtick_14">
     <g id="line2d_41">
      <path clip-path="url(#p6c6fb88a1b)" d="M 120.879545 260.2 
L 120.879545 199.6 
" style="fill:none;stroke:#b0b0b0;stroke-linecap:square;stroke-width:0.8;"/>
     </g>
     <g id="line2d_42">
      <g>
       <use style="stroke:#000000;stroke-width:0.8;" x="120.879545" xlink:href="#mcb1b3fff46" y="260.2"/>
      </g>
     </g>
     <g id="text_20">
      <!-- 1 -->
      <g transform="translate(117.698295 274.798437)scale(0.1 -0.1)">
       <use xlink:href="#DejaVuSans-31"/>
      </g>
     </g>
    </g>
    <g id="xtick_15">
     <g id="line2d_43">
      <path clip-path="url(#p6c6fb88a1b)" d="M 191.543182 260.2 
L 191.543182 199.6 
" style="fill:none;stroke:#b0b0b0;stroke-linecap:square;stroke-width:0.8;"/>
     </g>
     <g id="line2d_44">
      <g>
       <use style="stroke:#000000;stroke-width:0.8;" x="191.543182" xlink:href="#mcb1b3fff46" y="260.2"/>
      </g>
     </g>
     <g id="text_21">
      <!-- 2 -->
      <g transform="translate(188.361932 274.798437)scale(0.1 -0.1)">
       <use xlink:href="#DejaVuSans-32"/>
      </g>
     </g>
    </g>
    <g id="xtick_16">
     <g id="line2d_45">
      <path clip-path="url(#p6c6fb88a1b)" d="M 262.206818 260.2 
L 262.206818 199.6 
" style="fill:none;stroke:#b0b0b0;stroke-linecap:square;stroke-width:0.8;"/>
     </g>
     <g id="line2d_46">
      <g>
       <use style="stroke:#000000;stroke-width:0.8;" x="262.206818" xlink:href="#mcb1b3fff46" y="260.2"/>
      </g>
     </g>
     <g id="text_22">
      <!-- 3 -->
      <g transform="translate(259.025568 274.798437)scale(0.1 -0.1)">
       <use xlink:href="#DejaVuSans-33"/>
      </g>
     </g>
    </g>
    <g id="xtick_17">
     <g id="line2d_47">
      <path clip-path="url(#p6c6fb88a1b)" d="M 332.870455 260.2 
L 332.870455 199.6 
" style="fill:none;stroke:#b0b0b0;stroke-linecap:square;stroke-width:0.8;"/>
     </g>
     <g id="line2d_48">
      <g>
       <use style="stroke:#000000;stroke-width:0.8;" x="332.870455" xlink:href="#mcb1b3fff46" y="260.2"/>
      </g>
     </g>
     <g id="text_23">
      <!-- 4 -->
      <g transform="translate(329.689205 274.798437)scale(0.1 -0.1)">
       <use xlink:href="#DejaVuSans-34"/>
      </g>
     </g>
    </g>
    <g id="xtick_18">
     <g id="line2d_49">
      <path clip-path="url(#p6c6fb88a1b)" d="M 403.534091 260.2 
L 403.534091 199.6 
" style="fill:none;stroke:#b0b0b0;stroke-linecap:square;stroke-width:0.8;"/>
     </g>
     <g id="line2d_50">
      <g>
       <use style="stroke:#000000;stroke-width:0.8;" x="403.534091" xlink:href="#mcb1b3fff46" y="260.2"/>
      </g>
     </g>
     <g id="text_24">
      <!-- 5 -->
      <g transform="translate(400.352841 274.798437)scale(0.1 -0.1)">
       <use xlink:href="#DejaVuSans-35"/>
      </g>
     </g>
    </g>
   </g>
   <g id="matplotlib.axis_6">
    <g id="ytick_7">
     <g id="line2d_51">
      <path clip-path="url(#p6c6fb88a1b)" d="M 32.55 260.2 
L 421.2 260.2 
" style="fill:none;stroke:#b0b0b0;stroke-linecap:square;stroke-width:0.8;"/>
     </g>
     <g id="line2d_52">
      <g>
       <use style="stroke:#000000;stroke-width:0.8;" x="32.55" xlink:href="#m0290c92e51" y="260.2"/>
      </g>
     </g>
     <g id="text_25">
      <!-- −2 -->
      <g transform="translate(10.807813 263.999219)scale(0.1 -0.1)">
       <use xlink:href="#DejaVuSans-2212"/>
       <use x="83.789062" xlink:href="#DejaVuSans-32"/>
      </g>
     </g>
    </g>
    <g id="ytick_8">
     <g id="line2d_53">
      <path clip-path="url(#p6c6fb88a1b)" d="M 32.55 229.9 
L 421.2 229.9 
" style="fill:none;stroke:#b0b0b0;stroke-linecap:square;stroke-width:0.8;"/>
     </g>
     <g id="line2d_54">
      <g>
       <use style="stroke:#000000;stroke-width:0.8;" x="32.55" xlink:href="#m0290c92e51" y="229.9"/>
      </g>
     </g>
     <g id="text_26">
      <!-- 0 -->
      <g transform="translate(19.1875 233.699219)scale(0.1 -0.1)">
       <use xlink:href="#DejaVuSans-30"/>
      </g>
     </g>
    </g>
    <g id="ytick_9">
     <g id="line2d_55">
      <path clip-path="url(#p6c6fb88a1b)" d="M 32.55 199.6 
L 421.2 199.6 
" style="fill:none;stroke:#b0b0b0;stroke-linecap:square;stroke-width:0.8;"/>
     </g>
     <g id="line2d_56">
      <g>
       <use style="stroke:#000000;stroke-width:0.8;" x="32.55" xlink:href="#m0290c92e51" y="199.6"/>
      </g>
     </g>
     <g id="text_27">
      <!-- 2 -->
      <g transform="translate(19.1875 203.399219)scale(0.1 -0.1)">
       <use xlink:href="#DejaVuSans-32"/>
      </g>
     </g>
    </g>
   </g>
   <g id="line2d_57">
    <path clip-path="url(#p6c6fb88a1b)" d="M 50.215909 229.9 
L 51.064042 227.730041 
L 51.488109 227.19993 
L 51.841498 227.119804 
L 52.194887 227.314357 
L 53.396409 228.291181 
L 53.67912 228.194096 
L 54.032509 227.777813 
L 54.456576 226.884403 
L 56.011486 223.17033 
L 56.364875 222.961756 
L 56.647587 223.025692 
L 57.071654 223.408287 
L 57.990464 224.366494 
L 58.343853 224.382496 
L 58.626564 224.1657 
L 58.979953 223.612288 
L 59.616052 222.076431 
L 60.393509 220.278869 
L 60.817576 219.804205 
L 61.100287 219.758286 
L 61.382998 219.915572 
L 61.807063 220.432579 
L 62.725875 221.645939 
L 63.079264 221.751018 
L 63.361975 221.606044 
L 63.715363 221.147267 
L 64.280786 219.970914 
L 65.058242 218.398302 
L 65.41163 218.052482 
L 65.694341 218.017833 
L 65.977052 218.197302 
L 66.401119 218.79111 
L 67.602641 220.70945 
L 67.956029 220.802815 
L 68.238741 220.646892 
L 68.662808 220.085332 
L 69.935007 218.077694 
L 70.217717 218.008442 
L 70.500429 218.158535 
L 70.85382 218.632155 
L 71.48992 219.987233 
L 72.196696 221.374518 
L 72.550086 221.708117 
L 72.832796 221.744127 
L 73.186185 221.517526 
L 73.68093 220.854351 
L 74.458386 219.854055 
L 74.811775 219.755408 
L 75.094485 219.915941 
L 75.447875 220.414906 
L 76.013297 221.721598 
L 76.932106 223.880207 
L 77.356175 224.352046 
L 77.638887 224.407974 
L 77.992274 224.219095 
L 78.628373 223.484062 
L 79.123118 223.021883 
L 79.476507 222.978803 
L 79.759217 223.177965 
L 80.112607 223.725871 
L 80.678028 225.131741 
L 81.667519 227.668867 
L 82.091584 228.199052 
L 82.444974 228.283324 
L 82.798363 228.093031 
L 84.070562 227.115316 
L 84.353272 227.261168 
L 84.706663 227.742827 
L 85.201407 228.898318 
L 86.473608 232.20242 
L 86.897673 232.645104 
L 87.180387 232.678703 
L 87.533772 232.479655 
L 88.735296 231.508806 
L 89.018005 231.610991 
L 89.371395 232.033806 
L 89.866139 233.115414 
L 91.209018 236.461657 
L 91.562407 236.79874 
L 91.845117 236.828105 
L 92.198506 236.609642 
L 93.541385 235.387623 
L 93.824099 235.505125 
L 94.177484 235.94321 
L 94.672228 237.005575 
L 95.803072 239.643001 
L 96.156461 239.999602 
L 96.439171 240.040135 
L 96.792561 239.810658 
L 97.287305 239.142511 
L 97.994084 238.203682 
L 98.347473 238.045048 
L 98.630183 238.143249 
L 98.983573 238.54969 
L 99.478317 239.521909 
L 100.467806 241.504732 
L 100.821191 241.779103 
L 101.103905 241.753312 
L 101.457295 241.432468 
L 102.022719 240.472253 
L 102.800173 239.207415 
L 103.153562 238.99471 
L 103.436272 239.054223 
L 103.789657 239.401631 
L 104.355081 240.377136 
L 105.06186 241.54345 
L 105.41525 241.785664 
L 105.697964 241.739984 
L 106.051349 241.381461 
L 106.546093 240.443596 
L 107.606258 238.325805 
L 107.959651 238.061298 
L 108.242361 238.081484 
L 108.595751 238.366223 
L 109.23185 239.283022 
L 109.797274 239.950887 
L 110.150659 240.043257 
L 110.433369 239.877236 
L 110.786763 239.372056 
L 111.352182 238.059855 
L 112.270992 235.908254 
L 112.695061 235.444045 
L 112.97777 235.393176 
L 113.33116 235.587081 
L 113.967259 236.324485 
L 114.462004 236.781816 
L 114.815393 236.818857 
L 115.098103 236.614266 
L 115.451492 236.06005 
L 116.016916 234.648226 
L 117.006405 232.118545 
L 117.43047 231.596126 
L 117.783859 231.518076 
L 118.137249 231.712887 
L 119.338772 232.689188 
L 119.621482 232.590145 
L 119.974871 232.167788 
L 120.39894 231.259024 
L 122.024528 227.308632 
L 122.377914 227.112708 
L 122.731307 227.218808 
L 123.226043 227.68526 
L 123.862155 228.244924 
L 124.21554 228.263114 
L 124.49825 228.051427 
L 124.851636 227.494594 
L 125.417055 226.083701 
L 126.406553 223.553339 
L 126.830613 223.036845 
L 127.113323 222.960894 
L 127.466708 223.133954 
L 128.032136 223.774797 
L 128.597556 224.337268 
L 128.95095 224.400703 
L 129.23366 224.225827 
L 129.587045 223.719964 
L 130.152473 222.412457 
L 131.071278 220.255632 
L 131.495347 219.796727 
L 131.778065 219.761576 
L 132.131451 219.99662 
L 132.69687 220.777867 
L 133.332965 221.602243 
L 133.686351 221.75503 
L 133.969069 221.651628 
L 134.322463 221.239259 
L 134.887882 220.101107 
L 135.73602 218.378509 
L 136.089406 218.045497 
L 136.372116 218.021873 
L 136.654825 218.211439 
L 137.078886 218.815725 
L 138.209734 220.665368 
L 138.563128 220.809593 
L 138.845837 220.693817 
L 139.199223 220.287552 
L 139.906002 219.006743 
L 140.471421 218.176965 
L 140.824815 218.004858 
L 141.107525 218.111163 
L 141.460919 218.537662 
L 142.026338 219.693329 
L 142.874468 221.393679 
L 143.227853 221.714852 
L 143.510571 221.740569 
L 143.863957 221.503082 
L 144.429376 220.723106 
L 145.06548 219.897532 
L 145.418874 219.749589 
L 145.701583 219.866247 
L 146.054969 220.314604 
L 146.549713 221.393044 
L 147.680561 224.01086 
L 148.033946 224.359729 
L 148.316656 224.405555 
L 148.670041 224.206674 
L 149.306153 223.466979 
L 149.800889 223.014585 
L 150.154283 222.983616 
L 150.436993 223.193649 
L 150.790378 223.754139 
L 151.355798 225.171832 
L 152.345287 227.693927 
L 152.769356 228.208562 
L 153.122749 228.280411 
L 153.476134 228.081115 
L 154.677658 227.110836 
L 154.960368 227.215015 
L 155.313753 227.644003 
L 155.737822 228.559105 
L 157.292739 232.420631 
L 157.646124 232.676112 
L 157.928834 232.65232 
L 158.352903 232.33362 
L 159.271716 231.526728 
L 159.554426 231.53961 
L 159.837136 231.75659 
L 160.190521 232.319604 
L 160.755941 233.736358 
L 161.745438 236.259093 
L 162.169499 236.767651 
L 162.452209 236.838376 
L 162.805602 236.660094 
L 163.371022 236.016384 
L 163.936442 235.458731 
L 164.289836 235.401121 
L 164.572545 235.581236 
L 164.925931 236.093122 
L 165.491359 237.406079 
L 166.410164 239.555802 
L 166.834241 240.006805 
L 167.116951 240.036587 
L 167.470336 239.796016 
L 168.035756 239.011176 
L 168.671851 238.191932 
L 169.025245 238.045021 
L 169.307955 238.153624 
L 169.661348 238.571897 
L 170.226768 239.715116 
L 171.074906 241.431209 
L 171.428291 241.757789 
L 171.711001 241.775905 
L 171.993711 241.581315 
L 172.417772 240.971881 
L 173.54862 239.128707 
L 173.902013 238.990799 
L 174.184723 239.111635 
L 174.538108 239.523036 
L 175.315571 240.93437 
L 175.810307 241.629586 
L 176.163701 241.795176 
L 176.446411 241.683375 
L 176.799796 241.250886 
L 177.365224 240.09039 
L 178.213354 238.396909 
L 178.566747 238.081969 
L 178.849457 238.061397 
L 179.202842 238.304272 
L 179.768262 239.087852 
L 180.404366 239.908281 
L 180.757751 240.050155 
L 181.040469 239.928015 
L 181.393854 239.473246 
L 181.888599 238.389022 
L 183.019447 235.779032 
L 183.372832 235.436622 
L 183.655542 235.395828 
L 184.008927 235.599649 
L 184.715714 236.424407 
L 185.210459 236.817851 
L 185.493169 236.813773 
L 185.775879 236.598316 
L 186.129264 236.031555 
L 186.694692 234.608082 
L 187.684172 232.09373 
L 188.108241 231.586878 
L 188.461635 231.521206 
L 188.81502 231.724932 
L 190.016543 232.689036 
L 190.299253 232.579684 
L 190.652647 232.144074 
L 191.147391 231.036262 
L 192.560941 227.460947 
L 192.914318 227.145395 
L 193.197036 227.126429 
L 193.550446 227.338721 
L 194.681286 228.288629 
L 194.963987 228.22183 
L 195.317381 227.844893 
L 195.741433 226.989551 
L 197.367034 223.14114 
L 197.720427 222.959447 
L 198.003129 223.041935 
L 198.427198 223.441613 
L 199.275336 224.345192 
L 199.628713 224.396926 
L 199.911431 224.211576 
L 200.264808 223.693684 
L 200.830228 222.375418 
L 201.749058 220.232861 
L 202.173127 219.7898 
L 202.455828 219.76537 
L 202.809222 220.011434 
L 203.374642 220.799768 
L 204.010737 221.613794 
L 204.364131 221.754804 
L 204.646832 221.641008 
L 205.000226 221.216874 
L 205.565662 220.068617 
L 206.413783 218.359202 
L 206.767177 218.039062 
L 207.049879 218.026452 
L 207.332597 218.226035 
L 207.756666 218.840588 
L 208.887505 220.677101 
L 209.240899 220.808679 
L 209.523617 220.682785 
L 209.876994 220.266297 
L 210.725132 218.730561 
L 211.219877 218.106333 
L 211.502578 218.004924 
L 211.785296 218.122216 
L 212.138673 218.56066 
L 212.704093 219.725856 
L 213.552248 221.412398 
L 213.905641 221.721075 
L 214.188343 221.736519 
L 214.541737 221.488268 
L 215.107156 220.701208 
L 215.743251 219.88602 
L 216.096628 219.750237 
L 216.379346 219.87785 
L 216.73274 220.339013 
L 217.227485 221.428956 
L 218.287649 223.925649 
L 218.711718 224.366894 
L 218.994436 224.402661 
L 219.347813 224.19395 
L 220.054583 223.367535 
L 220.549344 222.979872 
L 220.832063 222.98897 
L 221.114764 223.209863 
L 221.468158 223.782874 
L 222.033578 225.21203 
L 223.023066 227.718512 
L 223.447119 228.217543 
L 223.729837 228.28935 
L 224.083231 228.12713 
L 225.426113 227.120534 
L 225.708814 227.287482 
L 226.062208 227.79518 
L 226.556952 228.976577 
L 227.829143 232.246782 
L 228.182536 232.622537 
L 228.465238 232.685972 
L 228.818631 232.514586 
L 230.161514 231.521407 
L 230.444232 231.696186 
L 230.797609 232.209141 
L 231.292353 233.381 
L 232.493868 236.398684 
L 232.847262 236.776237 
L 233.12998 236.836539 
L 233.483374 236.64795 
L 234.119469 235.912056 
L 234.614213 235.451016 
L 234.967607 235.405154 
L 235.250308 235.595742 
L 235.603702 236.119631 
L 236.169122 237.443186 
L 237.087952 239.578354 
L 237.512004 240.013452 
L 237.794723 240.032539 
L 238.148099 239.781034 
L 238.713519 238.989315 
L 239.349631 238.180573 
L 239.703008 238.045506 
L 239.985726 238.164509 
L 240.339103 238.594463 
L 240.90454 239.747611 
L 241.752678 241.4503 
L 242.106054 241.763942 
L 242.388773 241.771056 
L 242.671474 241.566526 
L 243.095543 240.946932 
L 244.226383 239.11721 
L 244.579776 238.991973 
L 244.862495 239.122905 
L 245.215888 239.544451 
L 246.700121 241.773547 
L 246.982823 241.760936 
L 247.265541 241.53033 
L 247.689593 240.835407 
L 249.103168 238.158988 
L 249.456545 238.049155 
L 249.739263 238.186207 
L 250.163332 238.680458 
L 251.152804 239.96955 
L 251.506198 240.036548 
L 251.788916 239.848586 
L 252.142293 239.318851 
L 252.707729 237.985461 
L 253.626543 235.863264 
L 254.050612 235.429723 
L 254.333313 235.398953 
L 254.686707 235.612535 
L 256.029573 236.840554 
L 256.312291 236.72226 
L 256.665684 236.271387 
L 257.160429 235.155967 
L 258.432619 231.955089 
L 258.786013 231.578168 
L 259.068714 231.511373 
L 259.422108 231.678373 
L 260.76499 232.677853 
L 261.047709 232.505587 
L 261.401102 231.99143 
L 261.89583 230.803736 
L 263.097361 227.655905 
L 263.521414 227.173373 
L 263.804132 227.11494 
L 264.157509 227.29102 
L 265.429733 228.289452 
L 265.712434 228.16158 
L 266.065828 227.70626 
L 266.560572 226.591027 
L 267.832762 223.390481 
L 268.186156 223.019673 
L 268.468874 222.964573 
L 268.822268 223.158257 
L 269.458363 223.8965 
L 269.953107 224.352716 
L 270.306484 224.392631 
L 270.589203 224.1968 
L 270.942579 223.666972 
L 271.507999 222.338235 
L 272.426829 220.210573 
L 272.850898 219.78343 
L 273.1336 219.769676 
L 273.486993 220.026598 
L 274.052413 220.821611 
L 274.688508 221.624913 
L 275.041902 221.754056 
L 275.324603 221.629862 
L 275.677997 221.194084 
L 276.243417 220.036117 
L 277.091555 218.340348 
L 277.444949 218.033179 
L 277.72765 218.03156 
L 278.010368 218.241063 
L 278.434437 218.86564 
L 279.565277 220.68837 
L 279.918654 220.807246 
L 280.201372 220.671297 
L 280.554766 220.244701 
L 282.038999 218.024099 
L 282.321717 218.042215 
L 282.604418 218.278066 
L 283.028487 218.978935 
L 284.37137 221.586863 
L 284.724764 221.754979 
L 285.007465 221.660571 
L 285.431534 221.20943 
L 286.562374 219.788685 
L 286.845092 219.765469 
L 287.127793 219.958907 
L 287.481187 220.494735 
L 288.046624 221.833202 
L 288.894745 223.832921 
L 289.318814 224.335107 
L 289.601515 224.411399 
L 289.954909 224.242989 
L 290.520329 223.606199 
L 291.085748 223.037735 
L 291.439142 222.970763 
L 291.72186 223.14825 
L 292.075254 223.67073 
L 292.569998 224.855124 
L 293.700838 227.74261 
L 294.12489 228.226 
L 294.407608 228.287786 
L 294.761002 228.116033 
L 296.103884 227.123905 
L 296.386586 227.301447 
L 296.739979 227.82209 
L 297.234724 229.016048 
L 298.436239 232.156006 
L 298.860308 232.630587 
L 299.143009 232.68399 
L 299.496403 232.503243 
L 300.76861 231.511272 
L 301.051328 231.64431 
L 301.404705 232.106083 
L 301.899449 233.22783 
L 303.17164 236.420182 
L 303.52505 236.784281 
L 303.807768 236.834195 
L 304.161145 236.635495 
L 304.79724 235.895004 
L 305.291985 235.443683 
L 305.645378 235.409707 
L 305.92808 235.610779 
L 306.281474 236.146558 
L 306.846893 237.480408 
L 307.765724 239.600401 
L 308.1191 239.983551 
L 308.401819 240.04569 
L 308.68452 239.90249 
L 309.108589 239.398505 
L 310.098078 238.12148 
L 310.451455 238.059307 
L 310.734173 238.240475 
L 311.08755 238.738288 
L 311.794354 240.268605 
L 312.430449 241.468919 
L 312.783826 241.769549 
L 313.066544 241.765675 
L 313.419938 241.46846 
L 313.914665 240.661091 
L 314.762803 239.237252 
L 315.116197 239.000178 
L 315.398915 239.039041 
L 315.752309 239.364077 
L 316.317729 240.322826 
L 317.095175 241.58856 
L 317.448568 241.792891 
L 317.73127 241.714121 
L 318.084663 241.3181 
L 318.579408 240.348637 
L 319.568896 238.360431 
L 319.92229 238.070588 
L 320.205008 238.070467 
L 320.558385 238.334548 
L 321.123805 239.131599 
L 321.7599 239.930437 
L 322.113294 240.04779 
L 322.395995 239.903732 
L 322.749389 239.423559 
L 323.314825 238.133861 
L 324.304314 235.841479 
L 324.728383 235.423345 
L 325.011085 235.402533 
L 325.364478 235.625722 
L 326.707344 236.839649 
L 326.990062 236.710664 
L 327.343456 236.246641 
L 327.8382 235.1181 
L 329.11039 231.933745 
L 329.463784 231.569972 
L 329.746486 231.513145 
L 330.099879 231.689612 
L 331.372086 232.687288 
L 331.654805 232.557134 
L 332.008181 232.095149 
L 332.502926 230.959757 
L 333.845825 227.521247 
L 334.199185 227.165577 
L 334.481886 227.117149 
L 334.835314 227.302582 
L 336.107504 228.287899 
L 336.390206 228.149669 
L 336.743565 227.681494 
L 337.238344 226.553195 
L 338.510534 223.36925 
L 338.863927 223.011895 
L 339.146629 222.967129 
L 339.500023 223.170846 
L 340.20681 223.996228 
L 340.701521 224.388895 
L 340.984256 224.38783 
L 341.266957 224.181526 
L 341.620384 223.639794 
L 342.185787 222.300931 
L 343.033925 220.302565 
L 343.457978 219.812237 
L 343.740713 219.755509 
L 344.023414 219.903433 
L 344.447466 220.411801 
L 345.366297 221.635653 
L 345.71969 221.752791 
L 346.002392 221.618198 
L 346.355752 221.170887 
L 346.921188 220.003543 
L 347.769326 218.321959 
L 348.12272 218.027852 
L 348.405421 218.037211 
L 348.758815 218.340375 
L 349.253559 219.152302 
L 350.101698 220.57038 
L 350.455091 220.801387 
L 350.737793 220.757358 
L 351.091186 220.426685 
L 351.656623 219.46358 
L 352.434035 218.20435 
L 352.787462 218.006381 
L 353.070164 218.090672 
L 353.423557 218.492855 
L 353.918302 219.467336 
L 354.907791 221.448414 
L 355.261151 221.731924 
L 355.543886 221.726944 
L 355.897279 221.457649 
L 356.533375 220.549076 
L 357.098777 219.864294 
L 357.452205 219.75316 
L 357.734906 219.902711 
L 358.088266 220.389124 
L 358.653703 221.684574 
L 359.572533 223.856823 
L 359.996585 224.343835 
L 360.27932 224.409917 
L 360.63268 224.231215 
L 361.198117 223.588559 
L 361.76352 223.029599 
L 362.116913 222.974523 
L 362.399649 223.162866 
L 362.753009 223.698037 
L 363.318411 225.091685 
L 364.307934 227.643351 
L 364.731986 228.189001 
L 365.08538 228.285785 
L 365.438773 228.104673 
L 366.710964 227.113449 
L 366.993665 227.248804 
L 367.347059 227.717364 
L 367.841803 228.859539 
L 369.184719 232.289145 
L 369.538079 232.638118 
L 369.820781 232.681574 
L 370.174174 232.491605 
L 371.446398 231.513053 
L 371.7291 231.656487 
L 372.082493 232.131166 
L 372.577238 233.265857 
L 373.849428 236.441205 
L 374.202822 236.791787 
L 374.485523 236.831399 
L 374.838917 236.622731 
L 375.545704 235.795724 
L 376.040448 235.408797 
L 376.32315 235.414784 
L 376.605851 235.626336 
L 376.959245 236.173897 
L 377.59534 237.704821 
L 378.37282 239.509361 
L 378.796872 239.99186 
L 379.079573 240.043183 
L 379.362308 239.890539 
L 379.786361 239.37783 
L 380.705157 238.159153 
L 381.058584 238.048033 
L 381.341286 238.187825 
L 381.694646 238.640878 
L 382.260082 239.812794 
L 383.037528 241.391616 
L 383.390922 241.743817 
L 383.673623 241.783983 
L 383.956359 241.609595 
L 384.380411 241.021136 
L 385.581942 239.095628 
L 385.935302 238.995878 
L 386.218037 239.146839 
L 386.64209 239.702827 
L 387.914314 241.717846 
L 388.197015 241.792488 
L 388.479716 241.64785 
L 388.83311 241.180005 
L 389.469205 239.829098 
L 390.175993 238.435214 
L 390.529386 238.095442 
L 390.812088 238.054281 
L 391.165481 238.275391 
L 391.660226 238.934749 
L 392.437672 239.940874 
L 392.791065 240.045793 
L 393.0738 239.890718 
L 393.42716 239.398031 
L 393.992597 238.096908 
L 394.911393 235.931434 
L 395.335479 235.451978 
L 395.618181 235.39098 
L 395.971574 235.574812 
L 396.536977 236.220259 
L 397.102414 236.774306 
L 397.455808 236.823405 
L 397.738509 236.62967 
L 398.091903 236.088076 
L 398.657306 234.688306 
L 399.646828 232.143809 
L 400.07088 231.605891 
L 400.424274 231.515398 
L 400.777668 231.701091 
L 402.049858 232.685668 
L 402.332559 232.545067 
L 402.685953 232.06996 
L 403.180697 230.921124 
L 403.534091 229.899995 
L 403.534091 229.899995 
" style="fill:none;stroke:#0072b2;stroke-linecap:square;"/>
   </g>
   <g id="patch_13">
    <path d="M 32.55 260.2 
L 32.55 199.6 
" style="fill:none;stroke:#000000;stroke-linecap:square;stroke-linejoin:miter;stroke-width:0.8;"/>
   </g>
   <g id="patch_14">
    <path d="M 421.2 260.2 
L 421.2 199.6 
" style="fill:none;stroke:#000000;stroke-linecap:square;stroke-linejoin:miter;stroke-width:0.8;"/>
   </g>
   <g id="patch_15">
    <path d="M 32.55 260.2 
L 421.2 260.2 
" style="fill:none;stroke:#000000;stroke-linecap:square;stroke-linejoin:miter;stroke-width:0.8;"/>
   </g>
   <g id="patch_16">
    <path d="M 32.55 199.6 
L 421.2 199.6 
" style="fill:none;stroke:#000000;stroke-linecap:square;stroke-linejoin:miter;stroke-width:0.8;"/>
   </g>
  </g>
 </g>
 <defs>
  <clipPath id="p075275d711">
   <rect height="60.6" width="388.65" x="32.55" y="14.8"/>
  </clipPath>
  <clipPath id="p448db62c50">
   <rect height="60.6" width="388.65" x="32.55" y="107.2"/>
  </clipPath>
  <clipPath id="p6c6fb88a1b">
   <rect height="60.6" width="388.65" x="32.55" y="199.6"/>
  </clipPath>
 </defs>
</svg>
