<?xml version="1.0" encoding="UTF-8" standalone="no"?>
<svg
   height="288pt"
   version="1.1"
   viewBox="0 0 432 288"
   width="432pt"
   id="svg3525"
   sodipodi:docname="combined1_aligned.svg"
   inkscape:version="1.1 (1:1.1+202105261517+ce6663b3b7)"
   xmlns:inkscape="http://www.inkscape.org/namespaces/inkscape"
   xmlns:sodipodi="http://sodipodi.sourceforge.net/DTD/sodipodi-0.dtd"
   xmlns:xlink="http://www.w3.org/1999/xlink"
   xmlns="http://www.w3.org/2000/svg"
   xmlns:svg="http://www.w3.org/2000/svg"
   xmlns:rdf="http://www.w3.org/1999/02/22-rdf-syntax-ns#"
   xmlns:cc="http://creativecommons.org/ns#"
   xmlns:dc="http://purl.org/dc/elements/1.1/">
  <sodipodi:namedview
     id="namedview3527"
     pagecolor="#ffffff"
     bordercolor="#666666"
     borderopacity="1.0"
     inkscape:pageshadow="2"
     inkscape:pageopacity="0.0"
     inkscape:pagecheckerboard="0"
     inkscape:document-units="pt"
     showgrid="false"
     inkscape:zoom="2.171875"
     inkscape:cx="240.57554"
     inkscape:cy="192"
     inkscape:window-width="1920"
     inkscape:window-height="1043"
     inkscape:window-x="0"
     inkscape:window-y="0"
     inkscape:window-maximized="1"
     inkscape:current-layer="axes_2" />
  <metadata
     id="metadata3030">
    <rdf:RDF>
      <cc:Work>
        <dc:type
           rdf:resource="http://purl.org/dc/dcmitype/StillImage" />
        <dc:date>2021-06-01T14:00:35.497919</dc:date>
        <dc:format>image/svg+xml</dc:format>
        <dc:creator>
          <cc:Agent>
            <dc:title>Matplotlib v3.4.2, https://matplotlib.org/</dc:title>
          </cc:Agent>
        </dc:creator>
      </cc:Work>
    </rdf:RDF>
  </metadata>
  <defs
     id="defs3034">
    <style
       type="text/css"
       id="style3032">*{stroke-linecap:butt;stroke-linejoin:round;}</style>
  </defs>
  <g
     id="figure_1">
    <g
       id="patch_1"
       style="display:inline">
      <path
         d="M 0,288 H 432 V 0 H 0 Z"
         style="fill:none"
         id="path3036" />
    </g>
    <g
       id="axes_1">
      <g
         id="patch_2">
        <path
           d="M 32.55,75.4 H 421.2 V 14.8 H 32.55 Z"
           style="fill:#ffffff"
           id="path3039" />
      </g>
      <g
         id="matplotlib.axis_1">
        <g
           id="xtick_1">
          <g
             id="line2d_1">
            <path
               clip-path="url(#p075275d711)"
               d="M 50.215909,75.4 V 14.8"
               style="fill:none;stroke:#b0b0b0;stroke-width:0.8;stroke-linecap:square"
               id="path3042" />
          </g>
          <g
             id="line2d_2">
            <defs
               id="defs3046">
              <path
                 d="M 0,0 V 3.5"
                 id="mcb1b3fff46"
                 style="stroke:#000000;stroke-width:0.8" />
            </defs>
            <g
               id="g3050">
              <use
                 style="stroke:#000000;stroke-width:0.8"
                 x="50.215908"
                 xlink:href="#mcb1b3fff46"
                 y="75.400002"
                 id="use3048"
                 width="100%"
                 height="100%" />
            </g>
          </g>
          <g
             id="text_1">
            <!-- 0 -->
            <g
               transform="matrix(0.1,0,0,-0.1,47.034659,89.998437)"
               id="g3058">
              <defs
                 id="defs3054">
                <path
                   d="m 2034,4250 q -487,0 -733,-480 -245,-479 -245,-1442 0,-959 245,-1439 246,-480 733,-480 491,0 736,480 246,480 246,1439 0,963 -246,1442 -245,480 -736,480 z m 0,500 q 785,0 1199,-621 414,-620 414,-1801 0,-1178 -414,-1799 -414,-620 -1199,-620 -784,0 -1198,620 -414,621 -414,1799 0,1181 414,1801 414,621 1198,621 z"
                   id="DejaVuSans-30"
                   transform="scale(0.015625)" />
              </defs>
              <use
                 xlink:href="#DejaVuSans-30"
                 id="use3056"
                 x="0"
                 y="0"
                 width="100%"
                 height="100%" />
            </g>
          </g>
        </g>
        <g
           id="xtick_2">
          <g
             id="line2d_3">
            <path
               clip-path="url(#p075275d711)"
               d="M 120.87954,75.4 V 14.8"
               style="fill:none;stroke:#b0b0b0;stroke-width:0.8;stroke-linecap:square"
               id="path3062" />
          </g>
          <g
             id="line2d_4">
            <g
               id="g3067">
              <use
                 style="stroke:#000000;stroke-width:0.8"
                 x="120.87955"
                 xlink:href="#mcb1b3fff46"
                 y="75.400002"
                 id="use3065"
                 width="100%"
                 height="100%" />
            </g>
          </g>
          <g
             id="text_2">
            <!-- 1 -->
            <g
               transform="matrix(0.1,0,0,-0.1,117.6983,89.998437)"
               id="g3075">
              <defs
                 id="defs3071">
                <path
                   d="M 794,531 H 1825 V 4091 L 703,3866 v 575 l 1116,225 h 631 V 531 H 3481 V 0 H 794 Z"
                   id="DejaVuSans-31"
                   transform="scale(0.015625)" />
              </defs>
              <use
                 xlink:href="#DejaVuSans-31"
                 id="use3073"
                 x="0"
                 y="0"
                 width="100%"
                 height="100%" />
            </g>
          </g>
        </g>
        <g
           id="xtick_3">
          <g
             id="line2d_5">
            <path
               clip-path="url(#p075275d711)"
               d="M 191.54318,75.4 V 14.8"
               style="fill:none;stroke:#b0b0b0;stroke-width:0.8;stroke-linecap:square"
               id="path3079" />
          </g>
          <g
             id="line2d_6">
            <g
               id="g3084">
              <use
                 style="stroke:#000000;stroke-width:0.8"
                 x="191.54318"
                 xlink:href="#mcb1b3fff46"
                 y="75.400002"
                 id="use3082"
                 width="100%"
                 height="100%" />
            </g>
          </g>
          <g
             id="text_3">
            <!-- 2 -->
            <g
               transform="matrix(0.1,0,0,-0.1,188.36193,89.998437)"
               id="g3092">
              <defs
                 id="defs3088">
                <path
                   d="M 1228,531 H 3431 V 0 H 469 v 531 q 359,372 979,998 621,627 780,809 303,340 423,576 121,236 121,464 0,372 -261,606 -261,235 -680,235 -297,0 -627,-103 -329,-103 -704,-313 v 638 q 381,153 712,231 332,78 607,78 725,0 1156,-363 431,-362 431,-968 0,-288 -108,-546 -107,-257 -392,-607 -78,-91 -497,-524 Q 1991,1309 1228,531 Z"
                   id="DejaVuSans-32"
                   transform="scale(0.015625)" />
              </defs>
              <use
                 xlink:href="#DejaVuSans-32"
                 id="use3090"
                 x="0"
                 y="0"
                 width="100%"
                 height="100%" />
            </g>
          </g>
        </g>
        <g
           id="xtick_4">
          <g
             id="line2d_7">
            <path
               clip-path="url(#p075275d711)"
               d="M 262.20682,75.4 V 14.8"
               style="fill:none;stroke:#b0b0b0;stroke-width:0.8;stroke-linecap:square"
               id="path3096" />
          </g>
          <g
             id="line2d_8">
            <g
               id="g3101">
              <use
                 style="stroke:#000000;stroke-width:0.8"
                 x="262.20682"
                 xlink:href="#mcb1b3fff46"
                 y="75.400002"
                 id="use3099"
                 width="100%"
                 height="100%" />
            </g>
          </g>
          <g
             id="text_4">
            <!-- 3 -->
            <g
               transform="matrix(0.1,0,0,-0.1,259.02557,89.998437)"
               id="g3109">
              <defs
                 id="defs3105">
                <path
                   d="m 2597,2516 q 453,-97 707,-404 255,-306 255,-756 0,-690 -475,-1069 -475,-378 -1350,-378 -293,0 -604,58 -311,58 -642,174 v 609 q 262,-153 574,-231 313,-78 654,-78 593,0 904,234 311,234 311,681 0,413 -289,645 -289,233 -804,233 h -544 v 519 h 569 q 465,0 712,186 247,186 247,536 0,359 -255,551 -254,193 -729,193 -260,0 -557,-57 -297,-56 -653,-174 v 562 q 360,100 674,150 314,50 592,50 719,0 1137,-327 419,-326 419,-882 0,-388 -222,-655 -222,-267 -631,-370 z"
                   id="DejaVuSans-33"
                   transform="scale(0.015625)" />
              </defs>
              <use
                 xlink:href="#DejaVuSans-33"
                 id="use3107"
                 x="0"
                 y="0"
                 width="100%"
                 height="100%" />
            </g>
          </g>
        </g>
        <g
           id="xtick_5">
          <g
             id="line2d_9">
            <path
               clip-path="url(#p075275d711)"
               d="M 332.87045,75.4 V 14.8"
               style="fill:none;stroke:#b0b0b0;stroke-width:0.8;stroke-linecap:square"
               id="path3113" />
          </g>
          <g
             id="line2d_10">
            <g
               id="g3118">
              <use
                 style="stroke:#000000;stroke-width:0.8"
                 x="332.87045"
                 xlink:href="#mcb1b3fff46"
                 y="75.400002"
                 id="use3116"
                 width="100%"
                 height="100%" />
            </g>
          </g>
          <g
             id="text_5">
            <!-- 4 -->
            <g
               transform="matrix(0.1,0,0,-0.1,329.68921,89.998437)"
               id="g3126">
              <defs
                 id="defs3122">
                <path
                   d="M 2419,4116 825,1625 h 1594 z m -166,550 h 794 V 1625 h 666 V 1100 H 3047 V 0 H 2419 V 1100 H 313 v 609 z"
                   id="DejaVuSans-34"
                   transform="scale(0.015625)" />
              </defs>
              <use
                 xlink:href="#DejaVuSans-34"
                 id="use3124"
                 x="0"
                 y="0"
                 width="100%"
                 height="100%" />
            </g>
          </g>
        </g>
        <g
           id="xtick_6">
          <g
             id="line2d_11">
            <path
               clip-path="url(#p075275d711)"
               d="M 403.53409,75.4 V 14.8"
               style="fill:none;stroke:#b0b0b0;stroke-width:0.8;stroke-linecap:square"
               id="path3130" />
          </g>
          <g
             id="line2d_12">
            <g
               id="g3135">
              <use
                 style="stroke:#000000;stroke-width:0.8"
                 x="403.53409"
                 xlink:href="#mcb1b3fff46"
                 y="75.400002"
                 id="use3133"
                 width="100%"
                 height="100%" />
            </g>
          </g>
          <g
             id="text_6">
            <!-- 5 -->
            <g
               transform="matrix(0.1,0,0,-0.1,400.35284,89.998437)"
               id="g3143">
              <defs
                 id="defs3139">
                <path
                   d="M 691,4666 H 3169 V 4134 H 1269 V 2991 q 137,47 274,70 138,23 276,23 781,0 1237,-428 457,-428 457,-1159 Q 3513,744 3044,326 2575,-91 1722,-91 1428,-91 1123,-41 819,9 494,109 v 635 q 281,-153 581,-228 300,-75 634,-75 541,0 856,284 316,284 316,772 0,487 -316,771 -315,285 -856,285 -253,0 -505,-56 -251,-56 -513,-175 z"
                   id="DejaVuSans-35"
                   transform="scale(0.015625)" />
              </defs>
              <use
                 xlink:href="#DejaVuSans-35"
                 id="use3141"
                 x="0"
                 y="0"
                 width="100%"
                 height="100%" />
            </g>
          </g>
        </g>
      </g>
      <g
         id="matplotlib.axis_2">
        <g
           id="ytick_1">
          <g
             id="line2d_13">
            <path
               clip-path="url(#p075275d711)"
               d="M 32.55,75.4 H 421.2"
               style="fill:none;stroke:#b0b0b0;stroke-width:0.8;stroke-linecap:square"
               id="path3148" />
          </g>
          <g
             id="line2d_14">
            <defs
               id="defs3152">
              <path
                 d="M 0,0 H -3.5"
                 id="m0290c92e51"
                 style="stroke:#000000;stroke-width:0.8" />
            </defs>
            <g
               id="g3156">
              <use
                 style="stroke:#000000;stroke-width:0.8"
                 x="32.549999"
                 xlink:href="#m0290c92e51"
                 y="75.400002"
                 id="use3154"
                 width="100%"
                 height="100%" />
            </g>
          </g>
          <g
             id="text_7">
            <!-- −2 -->
            <g
               transform="matrix(0.1,0,0,-0.1,10.807813,79.199219)"
               id="g3166">
              <defs
                 id="defs3160">
                <path
                   d="M 678,2272 H 4684 V 1741 H 678 Z"
                   id="DejaVuSans-2212"
                   transform="scale(0.015625)" />
              </defs>
              <use
                 xlink:href="#DejaVuSans-2212"
                 id="use3162"
                 x="0"
                 y="0"
                 width="100%"
                 height="100%" />
              <use
                 x="83.789062"
                 xlink:href="#DejaVuSans-32"
                 id="use3164"
                 y="0"
                 width="100%"
                 height="100%" />
            </g>
          </g>
        </g>
        <g
           id="ytick_2">
          <g
             id="line2d_15">
            <path
               clip-path="url(#p075275d711)"
               d="M 32.55,45.1 H 421.2"
               style="fill:none;stroke:#b0b0b0;stroke-width:0.8;stroke-linecap:square"
               id="path3170" />
          </g>
          <g
             id="line2d_16">
            <g
               id="g3175">
              <use
                 style="stroke:#000000;stroke-width:0.8"
                 x="32.549999"
                 xlink:href="#m0290c92e51"
                 y="45.099998"
                 id="use3173"
                 width="100%"
                 height="100%" />
            </g>
          </g>
          <g
             id="text_8">
            <!-- 0 -->
            <g
               transform="matrix(0.1,0,0,-0.1,19.1875,48.899219)"
               id="g3180">
              <use
                 xlink:href="#DejaVuSans-30"
                 id="use3178"
                 x="0"
                 y="0"
                 width="100%"
                 height="100%" />
            </g>
          </g>
        </g>
        <g
           id="ytick_3">
          <g
             id="line2d_17">
            <path
               clip-path="url(#p075275d711)"
               d="M 32.55,14.8 H 421.2"
               style="fill:none;stroke:#b0b0b0;stroke-width:0.8;stroke-linecap:square"
               id="path3184" />
          </g>
          <g
             id="line2d_18">
            <g
               id="g3189">
              <use
                 style="stroke:#000000;stroke-width:0.8"
                 x="32.549999"
                 xlink:href="#m0290c92e51"
                 y="14.8"
                 id="use3187"
                 width="100%"
                 height="100%" />
            </g>
          </g>
          <g
             id="text_9">
            <!-- 2 -->
            <g
               transform="matrix(0.1,0,0,-0.1,19.1875,18.599219)"
               id="g3194">
              <use
                 xlink:href="#DejaVuSans-32"
                 id="use3192"
                 x="0"
                 y="0"
                 width="100%"
                 height="100%" />
            </g>
          </g>
        </g>
      </g>
      <g
         id="line2d_19">
        <path
           clip-path="url(#p075275d711)"
           d="m 50.215909,45.1 4.947444,-4.516233 2.615078,-2.089547 2.191011,-1.481113 1.978977,-1.076128 1.837623,-0.74645 1.696266,-0.455068 1.625589,-0.215361 1.625589,0.0053 1.625588,0.225838 1.696268,0.465647 1.766943,0.723456 1.9083,1.034099 2.049657,1.369693 2.403042,1.887049 3.039144,2.691743 8.552009,7.753226 2.403047,1.786019 2.049657,1.261513 1.908298,0.918463 1.766943,0.606515 1.696268,0.347191 1.62559,0.109149 1.62559,-0.11203 1.62558,-0.330871 1.69627,-0.571062 1.83762,-0.863873 1.97898,-1.189516 2.19101,-1.586731 2.61508,-2.182901 3.8166,-3.514779 5.23015,-4.781524 2.61508,-2.087916 2.19102,-1.479305 1.97897,-1.074215 1.83762,-0.744483 1.69627,-0.453142 1.62559,-0.213455 1.62559,0.0072 1.62558,0.227742 1.69627,0.467567 1.76695,0.725345 1.90829,1.035938 2.04966,1.371409 2.40304,1.888615 3.03915,2.692947 8.55201,7.751508 2.40304,1.784269 2.04967,1.259683 1.90829,0.916518 1.76694,0.604563 1.69627,0.345232 1.62559,0.107228 1.62559,-0.113949 1.62559,-0.332752 1.69627,-0.572937 1.83762,-0.865759 1.97898,-1.191318 2.191,-1.588387 2.61509,-2.18433 3.81659,-3.515639 5.23016,-4.780246 2.61507,-2.086271 2.19102,-1.477504 1.97898,-1.0723 1.83762,-0.742521 1.69626,-0.451211 1.62559,-0.211549 1.6256,0.0091 1.62558,0.229646 1.69628,0.469492 1.76693,0.72722 1.9083,1.037795 2.04966,1.373101 2.40304,1.890186 3.03914,2.694136 8.48132,7.693059 2.40306,1.791251 2.12033,1.305838 1.9083,0.914575 1.76695,0.602619 1.69626,0.343265 1.62559,0.105309 1.6256,-0.115871 1.62558,-0.334628 1.69628,-0.574816 1.83761,-0.867637 1.97897,-1.193118 2.19101,-1.590031 2.61509,-2.18577 3.8166,-3.516496 5.23015,-4.778953 2.61507,-2.084638 2.191,-1.47568 1.979,-1.070395 1.83761,-0.740543 1.69627,-0.449293 1.62559,-0.209642 1.6256,0.01107 1.62558,0.23155 1.69628,0.471413 1.76693,0.729103 1.90831,1.039633 2.04965,1.374812 2.40305,1.891737 3.03912,2.695319 8.48135,7.691402 2.40304,1.789495 2.04966,1.265181 1.9083,0.922342 1.76695,0.610411 1.69626,0.351106 1.62558,0.112987 1.6256,-0.108191 1.62557,-0.327105 1.69628,-0.56731 1.83762,-0.860105 1.97898,-1.185906 2.191,-1.583406 2.61509,-2.180063 3.74592,-3.446412 5.37151,-4.910913 2.61507,-2.082977 2.19102,-1.473882 1.97895,-1.068455 1.83766,-0.738603 1.69624,-0.447352 1.62562,-0.207739 1.62555,0.01299 1.62561,0.233454 1.69628,0.473329 1.76693,0.73098 1.90832,1.0415 2.04964,1.376487 2.40303,1.893292 3.03916,2.696546 8.48135,7.689674 2.40302,1.787755 2.04964,1.263334 1.90832,0.920413 1.76693,0.608458 1.69628,0.349151 1.62558,0.111067 1.62559,-0.11011 1.62561,-0.329001 1.69625,-0.569176 1.83762,-0.861994 1.97898,-1.187713 2.19102,-1.585083 2.61507,-2.18146 3.81661,-3.513927 0.2827,-0.266549 v 0"
           style="fill:none;stroke:#0072b2;stroke-linecap:square"
           id="path3199" />
      </g>
      <g
         id="patch_3">
        <path
           d="M 32.55,75.4 V 14.8"
           style="fill:none;stroke:#000000;stroke-width:0.8;stroke-linecap:square;stroke-linejoin:miter"
           id="path3202" />
      </g>
      <g
         id="patch_4">
        <path
           d="M 421.2,75.4 V 14.8"
           style="fill:none;stroke:#000000;stroke-width:0.8;stroke-linecap:square;stroke-linejoin:miter"
           id="path3205" />
      </g>
      <g
         id="patch_5">
        <path
           d="M 32.55,75.4 H 421.2"
           style="fill:none;stroke:#000000;stroke-width:0.8;stroke-linecap:square;stroke-linejoin:miter"
           id="path3208" />
      </g>
      <g
         id="patch_6">
        <path
           d="M 32.55,14.8 H 421.2"
           style="fill:none;stroke:#000000;stroke-width:0.8;stroke-linecap:square;stroke-linejoin:miter"
           id="path3211" />
      </g>
    </g>
    <g
       id="axes_2">
      <g
         id="patch_7">
        <path
           d="M 32.55,167.8 H 421.2 V 107.2 H 32.55 Z"
           style="fill:#ffffff"
           id="path3215" />
      </g>
      <g
         id="matplotlib.axis_3">
        <g
           id="xtick_7">
          <g
             id="line2d_20">
            <path
               clip-path="url(#p448db62c50)"
               d="M 50.215909,167.8 V 107.2"
               style="fill:none;stroke:#b0b0b0;stroke-width:0.8;stroke-linecap:square"
               id="path3218" />
          </g>
          <g
             id="line2d_21">
            <g
               id="g3223">
              <use
                 style="stroke:#000000;stroke-width:0.8"
                 x="50.215908"
                 xlink:href="#mcb1b3fff46"
                 y="167.8"
                 id="use3221"
                 width="100%"
                 height="100%" />
            </g>
          </g>
          <g
             id="text_10">
            <!-- 0 -->
            <g
               transform="matrix(0.1,0,0,-0.1,47.034659,182.39844)"
               id="g3228">
              <use
                 xlink:href="#DejaVuSans-30"
                 id="use3226"
                 x="0"
                 y="0"
                 width="100%"
                 height="100%" />
            </g>
          </g>
        </g>
        <g
           id="xtick_8">
          <g
             id="line2d_22">
            <path
               clip-path="url(#p448db62c50)"
               d="M 120.87954,167.8 V 107.2"
               style="fill:none;stroke:#b0b0b0;stroke-width:0.8;stroke-linecap:square"
               id="path3232" />
          </g>
          <g
             id="line2d_23">
            <g
               id="g3237">
              <use
                 style="stroke:#000000;stroke-width:0.8"
                 x="120.87955"
                 xlink:href="#mcb1b3fff46"
                 y="167.8"
                 id="use3235"
                 width="100%"
                 height="100%" />
            </g>
          </g>
          <g
             id="text_11">
            <!-- 1 -->
            <g
               transform="matrix(0.1,0,0,-0.1,117.6983,182.39844)"
               id="g3242">
              <use
                 xlink:href="#DejaVuSans-31"
                 id="use3240"
                 x="0"
                 y="0"
                 width="100%"
                 height="100%" />
            </g>
          </g>
        </g>
        <g
           id="xtick_9">
          <g
             id="line2d_24">
            <path
               clip-path="url(#p448db62c50)"
               d="M 191.54318,167.8 V 107.2"
               style="fill:none;stroke:#b0b0b0;stroke-width:0.8;stroke-linecap:square"
               id="path3246" />
          </g>
          <g
             id="line2d_25">
            <g
               id="g3251">
              <use
                 style="stroke:#000000;stroke-width:0.8"
                 x="191.54318"
                 xlink:href="#mcb1b3fff46"
                 y="167.8"
                 id="use3249"
                 width="100%"
                 height="100%" />
            </g>
          </g>
          <g
             id="text_12">
            <!-- 2 -->
            <g
               transform="matrix(0.1,0,0,-0.1,188.36193,182.39844)"
               id="g3256">
              <use
                 xlink:href="#DejaVuSans-32"
                 id="use3254"
                 x="0"
                 y="0"
                 width="100%"
                 height="100%" />
            </g>
          </g>
        </g>
        <g
           id="xtick_10">
          <g
             id="line2d_26">
            <path
               clip-path="url(#p448db62c50)"
               d="M 262.20682,167.8 V 107.2"
               style="fill:none;stroke:#b0b0b0;stroke-width:0.8;stroke-linecap:square"
               id="path3260" />
          </g>
          <g
             id="line2d_27">
            <g
               id="g3265">
              <use
                 style="stroke:#000000;stroke-width:0.8"
                 x="262.20682"
                 xlink:href="#mcb1b3fff46"
                 y="167.8"
                 id="use3263"
                 width="100%"
                 height="100%" />
            </g>
          </g>
          <g
             id="text_13">
            <!-- 3 -->
            <g
               transform="matrix(0.1,0,0,-0.1,259.02557,182.39844)"
               id="g3270">
              <use
                 xlink:href="#DejaVuSans-33"
                 id="use3268"
                 x="0"
                 y="0"
                 width="100%"
                 height="100%" />
            </g>
          </g>
        </g>
        <g
           id="xtick_11">
          <g
             id="line2d_28">
            <path
               clip-path="url(#p448db62c50)"
               d="M 332.87045,167.8 V 107.2"
               style="fill:none;stroke:#b0b0b0;stroke-width:0.8;stroke-linecap:square"
               id="path3274" />
          </g>
          <g
             id="line2d_29">
            <g
               id="g3279">
              <use
                 style="stroke:#000000;stroke-width:0.8"
                 x="332.87045"
                 xlink:href="#mcb1b3fff46"
                 y="167.8"
                 id="use3277"
                 width="100%"
                 height="100%" />
            </g>
          </g>
          <g
             id="text_14">
            <!-- 4 -->
            <g
               transform="matrix(0.1,0,0,-0.1,329.68921,182.39844)"
               id="g3284">
              <use
                 xlink:href="#DejaVuSans-34"
                 id="use3282"
                 x="0"
                 y="0"
                 width="100%"
                 height="100%" />
            </g>
          </g>
        </g>
        <g
           id="xtick_12">
          <g
             id="line2d_30">
            <path
               clip-path="url(#p448db62c50)"
               d="M 403.53409,167.8 V 107.2"
               style="fill:none;stroke:#b0b0b0;stroke-width:0.8;stroke-linecap:square"
               id="path3288" />
          </g>
          <g
             id="line2d_31">
            <g
               id="g3293">
              <use
                 style="stroke:#000000;stroke-width:0.8"
                 x="403.53409"
                 xlink:href="#mcb1b3fff46"
                 y="167.8"
                 id="use3291"
                 width="100%"
                 height="100%" />
            </g>
          </g>
          <g
             id="text_15">
            <!-- 5 -->
            <g
               transform="matrix(0.1,0,0,-0.1,400.35284,182.39844)"
               id="g3298">
              <use
                 xlink:href="#DejaVuSans-35"
                 id="use3296"
                 x="0"
                 y="0"
                 width="100%"
                 height="100%" />
            </g>
          </g>
        </g>
      </g>
      <g
         id="matplotlib.axis_4">
        <g
           id="ytick_4">
          <g
             id="line2d_32">
            <path
               clip-path="url(#p448db62c50)"
               d="M 32.55,167.8 H 421.2"
               style="fill:none;stroke:#b0b0b0;stroke-width:0.8;stroke-linecap:square"
               id="path3303" />
          </g>
          <g
             id="line2d_33">
            <g
               id="g3308">
              <use
                 style="stroke:#000000;stroke-width:0.8"
                 x="32.549999"
                 xlink:href="#m0290c92e51"
                 y="167.8"
                 id="use3306"
                 width="100%"
                 height="100%" />
            </g>
          </g>
          <g
             id="text_16">
            <!-- −2 -->
            <g
               transform="matrix(0.1,0,0,-0.1,10.807813,171.59922)"
               id="g3315">
              <use
                 xlink:href="#DejaVuSans-2212"
                 id="use3311"
                 x="0"
                 y="0"
                 width="100%"
                 height="100%" />
              <use
                 x="83.789062"
                 xlink:href="#DejaVuSans-32"
                 id="use3313"
                 y="0"
                 width="100%"
                 height="100%" />
            </g>
          </g>
        </g>
        <g
           id="ytick_5">
          <g
             id="line2d_34">
            <path
               clip-path="url(#p448db62c50)"
               d="M 32.55,137.5 H 421.2"
               style="fill:none;stroke:#b0b0b0;stroke-width:0.8;stroke-linecap:square"
               id="path3319" />
          </g>
          <g
             id="line2d_35">
            <g
               id="g3324">
              <use
                 style="stroke:#000000;stroke-width:0.8"
                 x="32.549999"
                 xlink:href="#m0290c92e51"
                 y="137.5"
                 id="use3322"
                 width="100%"
                 height="100%" />
            </g>
          </g>
          <g
             id="text_17">
            <!-- 0 -->
            <g
               transform="matrix(0.1,0,0,-0.1,19.1875,141.29922)"
               id="g3329">
              <use
                 xlink:href="#DejaVuSans-30"
                 id="use3327"
                 x="0"
                 y="0"
                 width="100%"
                 height="100%" />
            </g>
          </g>
        </g>
        <g
           id="ytick_6">
          <g
             id="line2d_36">
            <path
               clip-path="url(#p448db62c50)"
               d="M 32.55,107.2 H 421.2"
               style="fill:none;stroke:#b0b0b0;stroke-width:0.8;stroke-linecap:square"
               id="path3333" />
          </g>
          <g
             id="line2d_37">
            <g
               id="g3338">
              <use
                 style="stroke:#000000;stroke-width:0.8"
                 x="32.549999"
                 xlink:href="#m0290c92e51"
                 y="107.2"
                 id="use3336"
                 width="100%"
                 height="100%" />
            </g>
          </g>
          <g
             id="text_18">
            <!-- 2 -->
            <g
               transform="matrix(0.1,0,0,-0.1,19.1875,110.99922)"
               id="g3343">
              <use
                 xlink:href="#DejaVuSans-32"
                 id="use3341"
                 x="0"
                 y="0"
                 width="100%"
                 height="100%" />
            </g>
          </g>
        </g>
      </g>
      <g
         id="line2d_38">
        <path
           clip-path="url(#p448db62c50)"
           d="m 50.215909,137.5 0.706778,-1.22583 0.353389,-0.27059 0.282711,0.018 0.353389,0.31151 0.494744,0.83727 0.918811,1.60945 0.353389,0.22858 0.282711,-0.054 0.353389,-0.35117 0.565422,-1.01 0.777456,-1.34751 0.353388,-0.24909 0.282712,0.0366 0.353389,0.33209 0.494744,0.85357 0.848133,1.50864 0.353389,0.26935 0.282711,-0.0191 0.353389,-0.3127 0.494744,-0.83824 0.918812,-1.60819 0.353388,-0.22731 0.282711,0.055 0.35339,0.35233 0.565421,1.01089 0.777456,1.34626 0.353389,0.24784 0.282711,-0.0376 0.353388,-0.33327 0.494746,-0.85448 0.848133,-1.5075 0.353388,-0.26812 0.282711,0.0202 0.353389,0.3139 0.494745,0.8392 0.91881,1.60692 0.353389,0.22605 0.282712,-0.0561 0.353388,-0.35348 0.565422,-1.01178 0.777456,-1.34501 0.353387,-0.24658 0.282712,0.0387 0.35339,0.33445 0.494744,0.85538 0.848134,1.50636 0.353387,0.26689 0.282712,-0.0212 0.35339,-0.3151 0.494742,-0.84014 0.918813,-1.60566 0.35339,-0.22478 0.28271,0.0572 0.353389,0.35464 0.565422,1.01267 0.777454,1.34374 0.35339,0.24533 0.282712,-0.0398 0.353389,-0.33562 0.494745,-0.85629 0.848131,-1.50522 0.35339,-0.26565 0.28271,0.0223 0.353389,0.31629 0.494744,0.84111 0.918814,1.60437 0.353387,0.22352 0.282712,-0.0583 0.353388,-0.35579 0.565421,-1.01355 0.777457,-1.34247 0.353387,-0.24409 0.282712,0.0408 0.353389,0.33679 0.494745,0.8572 0.848129,1.50406 0.353394,0.26442 0.28271,-0.0234 0.353389,-0.31748 0.494745,-0.84206 0.918809,-1.60309 0.353389,-0.22225 0.282715,0.0593 0.353385,0.35694 0.56542,1.01442 0.777462,1.34122 0.353385,0.24283 0.28271,-0.0419 0.35339,-0.33796 0.494744,-0.8581 0.848134,-1.50291 0.353389,-0.26318 0.282715,0.0244 0.353385,0.31867 0.494744,0.84302 0.918809,1.60179 0.353394,0.22099 0.28271,-0.0604 0.353385,-0.35809 0.565424,-1.01531 0.777459,-1.33993 0.353385,-0.24157 0.28271,0.043 0.353393,0.33914 0.49474,0.859 0.848138,1.50174 0.35339,0.26194 0.28271,-0.0255 0.35339,-0.31986 0.49474,-0.84397 0.91881,-1.60049 0.35339,-0.21972 0.28271,0.0614 0.35339,0.35924 0.56542,1.01617 0.77746,1.33866 0.35338,0.24032 0.28272,-0.044 0.35339,-0.34031 0.49474,-0.85988 0.84813,-1.50059 0.35339,-0.26069 0.28272,0.0266 0.35339,0.32105 0.49474,0.84491 0.91881,1.59918 0.35339,0.21845 0.28271,-0.0625 0.35339,-0.3604 0.56542,-1.01703 0.77746,-1.33737 0.35339,-0.23906 0.28271,0.0451 0.35339,0.34147 0.49474,0.86078 0.84813,1.4994 0.35339,0.25946 0.28271,-0.0276 0.35339,-0.32224 0.49475,-0.84585 0.91881,-1.59788 0.35338,-0.21719 0.28272,0.0636 0.35338,0.36153 0.56542,1.01789 0.77747,1.33609 0.35338,0.23781 0.28271,-0.0462 0.35339,-0.34265 0.56542,-1.00336 0.77746,-1.35653 0.35339,-0.25822 0.28271,0.0287 0.35339,0.32342 0.49474,0.84678 0.91882,1.59658 0.35338,0.21591 0.28271,-0.0646 0.35339,-0.36269 0.56542,-1.01877 0.77746,-1.33477 0.35339,-0.23656 0.28271,0.0472 0.35339,0.34381 0.56543,1.00429 0.77745,1.35531 0.35338,0.25697 0.28271,-0.0298 0.35339,-0.3246 0.49475,-0.84773 0.91881,-1.59525 0.35338,-0.21464 0.28272,0.0657 0.35339,0.36383 0.56542,1.01962 0.77745,1.33347 0.35339,0.2353 0.28272,-0.0483 0.35339,-0.34497 0.56542,-1.0052 0.77746,-1.3541 0.35339,-0.25573 0.28271,0.0309 0.35338,0.32579 0.49474,0.84865 0.91882,1.59393 0.35338,0.21337 0.28271,-0.0668 0.3534,-0.36498 0.56543,-1.02048 0.77744,-1.33216 0.35339,-0.23405 0.28271,0.0494 0.3534,0.34615 0.56542,1.0061 0.77745,1.35287 0.35339,0.25448 0.28271,-0.0319 0.35339,-0.32699 0.49475,-0.84957 0.91881,-1.5926 0.35338,-0.21209 0.28271,0.0678 0.3534,0.36613 0.56542,1.0213 0.77745,1.33087 0.3534,0.23278 0.2827,-0.0504 0.35339,-0.3473 0.56542,-1.00699 0.77746,-1.35166 0.35339,-0.25324 0.28271,0.033 0.35338,0.32816 0.49475,0.8505 0.91881,1.59126 0.35339,0.21083 0.28271,-0.0689 0.3534,-0.36728 0.56542,-1.02215 0.77744,-1.32955 0.3534,-0.23152 0.28271,0.0515 0.35339,0.34847 0.56542,1.0079 0.77745,1.35042 0.3534,0.25199 0.28271,-0.0341 0.35338,-0.32934 0.49475,-0.85143 0.91881,-1.58991 0.35339,-0.20956 0.28271,0.07 0.35339,0.3684 0.56542,1.023 0.77745,1.32824 0.3534,0.23026 0.28271,-0.0526 0.35338,-0.34962 0.56543,-1.00881 0.77746,-1.34918 0.35338,-0.25074 0.28271,0.0351 0.35339,0.33053 0.49475,0.85235 0.84813,1.51013 0.35339,0.271 0.28271,-0.0177 0.35339,-0.31111 0.49474,-0.83694 0.91881,-1.60986 0.3534,-0.22901 0.28271,0.0536 0.35338,0.35078 0.56542,1.00972 0.77747,1.34793 0.35338,0.24949 0.28271,-0.0362 0.35339,-0.3317 0.49474,-0.85326 0.84814,-1.50902 0.35338,-0.26976 0.28271,0.0187 0.35339,0.3123 0.49475,0.83792 0.91881,1.60861 0.35339,0.22773 0.28271,-0.0547 0.35339,-0.35194 0.56542,-1.0106 0.77746,-1.34667 0.35338,-0.24825 0.28272,0.0373 0.35339,0.33287 0.49474,0.85418 0.84813,1.50787 0.3534,0.26854 0.2827,-0.0198 0.35339,-0.3135 0.49474,-0.83887 0.91882,-1.60736 0.35339,-0.22646 0.28271,0.0558 0.35339,0.3531 0.56542,1.0115 0.77746,1.34541 0.35338,0.247 0.28271,-0.0383 0.35339,-0.33405 0.49475,-0.85509 0.84813,-1.50674 0.35339,-0.26729 0.28271,0.0209 0.35339,0.31469 0.49474,0.83983 0.91881,1.60607 0.35339,0.22522 0.28272,-0.0568 0.35339,-0.35425 0.56542,-1.01236 0.77744,-1.34416 0.3534,-0.24576 0.2827,0.0394 0.35341,0.33524 0.49474,0.85599 0.84812,1.50559 0.3534,0.26606 0.28272,-0.022 0.35337,-0.31588 0.49475,-0.84079 0.91881,-1.60479 0.35339,-0.22395 0.28272,0.0579 0.35338,0.3554 0.56542,1.01326 0.77746,1.3429 0.35338,0.24449 0.28272,-0.0405 0.35339,-0.33642 0.49473,-0.85685 0.84815,-1.5045 0.3534,-0.26481 0.2827,0.023 0.35339,0.31709 0.49475,0.84176 0.91879,1.60347 0.3534,0.22269 0.2827,-0.059 0.35339,-0.35655 0.56544,-1.01418 0.77744,-1.3416 0.3534,-0.24325 0.2827,0.0415 0.35339,0.33757 0.49475,0.8578 0.84812,1.50328 0.35341,0.26361 0.28272,-0.0241 0.35337,-0.31827 0.49475,-0.8427 0.91881,-1.60222 0.35338,-0.22141 0.28272,0.06 0.35337,0.3577 0.56542,1.01498 0.77748,1.34041 0.35338,0.24198 0.28272,-0.0426 0.35339,-0.33876 0.49473,-0.85868 0.84814,-1.50213 0.35339,-0.26235 0.2827,0.0251 0.3534,0.31946 0.49476,0.84368 0.91879,1.6009 0.3534,0.22014 0.2827,-0.0611 0.35339,-0.35887 0.56542,-1.01587 0.77746,-1.33908 0.3534,-0.24075 0.2827,0.0437 0.35339,0.33992 0.49475,0.85959 0.84812,1.50096 0.35339,0.26112 0.28272,-0.0262 0.35338,-0.32065 0.49476,-0.84461 0.91881,-1.59963 0.35338,-0.21886 0.28272,0.0622 0.35337,0.35999 0.56542,1.01675 0.77747,1.33781 0.35337,0.23948 0.28272,-0.0447 0.35339,-0.34109 0.49473,-0.86044 0.84816,-1.49984 0.35339,-0.25987 0.2827,0.0273 0.3534,0.32184 0.49474,0.84555 0.9188,1.59829 0.35339,0.21762 0.2827,-0.0632 0.3534,-0.36114 0.56543,-1.01765 0.77745,-1.33648 0.35339,-0.23824 0.2827,0.0458 0.3534,0.34226 0.56542,1.00305 0.77746,1.35695 0.35339,0.25863 0.28272,-0.0284 0.35338,-0.32302 0.49474,-0.84647 0.91882,-1.59701 0.35337,-0.21634 0.28272,0.0643 0.35338,0.36229 0.56543,1.01849 0.77747,1.33522 0.35337,0.23696 0.28272,-0.0469 0.3534,-0.34344 0.56542,-1.00395 0.77744,-1.35572 0.3534,-0.2574 0.28271,0.0294 0.3534,0.32423 0.49474,0.8474 0.9188,1.59569 0.35339,0.21506 0.2827,-0.0653 0.3534,-0.36345 0.56542,-1.01931 0.77746,-1.33395 0.35339,-0.23571 0.2827,0.048 0.3534,0.3446 0.56542,1.00487 0.77744,1.35451 0.3534,0.25615 0.28272,-0.0305 0.35337,-0.32539 0.49476,-0.84835 0.91882,-1.59437 0.35337,-0.21379 0.28272,0.0664 0.35338,0.36456 0.56542,1.0202 0.77746,1.33262 0.35338,0.23446 0.28272,-0.049 0.35341,-0.34578 0.56542,-1.00579 0.77744,-1.35327 0.3534,-0.25491 0.2827,0.0316 0.35339,0.32659 0.49475,0.84929 0.91881,1.59303 0.35339,0.21252 0.2827,-0.0675 0.3534,-0.36574 0.56542,-1.02102 0.77744,-1.33131 0.3534,-0.23321 0.2827,0.0501 0.35339,0.34691 0.56544,1.00673 0.77744,1.35205 0.3534,0.25365 0.28272,-0.0326 0.35337,-0.32776 0.49475,-0.85017 0.91881,-1.59174 0.35338,-0.21124 0.28272,0.0685 0.35339,0.36689 0.56542,1.02186 0.77746,1.32999 0.35338,0.23195 0.28272,-0.0512 0.35339,-0.34806 0.56542,-1.00764 0.77745,-1.35081 0.35341,-0.25241 0.2827,0.0337 0.35339,0.32895 0.49475,0.85114 0.91879,1.59033 0.3534,0.20999 0.2827,-0.0696 0.35339,-0.36801 0.56542,-1.02274 0.77747,-1.32867 0.35339,-0.23069 0.2827,0.0522 0.35339,0.34923 0.56542,1.00849 0.77745,1.34959 0.35339,0.25119 0.28272,-0.0348 0.35339,-0.33014 0.49475,-0.85202 0.91881,-1.58905 0.35338,-0.20869 0.28272,0.0707 0.35337,0.36914 0.56542,1.02353 0.77748,1.32742 0.35338,0.2294 0.28272,-0.0533 0.35339,-0.35042 0.56542,-1.00941 0.77745,-1.34832 0.35339,-0.24991 0.2827,0.0358 0.3534,0.33132 0.49476,0.85298 0.84812,1.50937 0.35339,0.27016 0.2827,-0.0184 0.3534,-0.31192 0.49474,-0.83757 0.9188,-1.60901 0.35339,-0.22817 0.28272,0.0543 0.3534,0.35156 0.56541,1.01033 0.77745,1.34705 0.35339,0.24868 0.28272,-0.0369 0.35338,-0.33246 0.49474,-0.85389 0.84816,-1.50828 0.35337,-0.26893 0.28272,0.0194 0.35338,0.31309 0.49475,0.83857 0.91881,1.60777 0.35337,0.22688 0.28272,-0.0554 0.3534,-0.35271 0.56543,-1.01123 0.77745,-1.34582 0.35339,-0.24741 0.2827,0.038 0.3534,0.33367 0.49474,0.85477 0.84812,1.50712 0.3534,0.26771 0.28272,-0.0205 0.35339,-0.31431 0.49474,-0.83951 0.9188,-1.60649 0.35339,-0.22562 0.28271,0.0565 0.35339,0.35387 0.56542,1.01207 0.77746,1.34458 0.35339,0.24618 0.28272,-0.0391 0.35338,-0.33483 0.49474,-0.8557 0.84814,-1.50598 0.35338,-0.26647 0.28272,0.0216 0.35337,0.31549 0.49477,0.84049 0.91881,1.60522 0.35338,0.22435 0.28271,-0.0575 0.3534,-0.35503 0.56542,-1.01295 0.77744,-1.34332 0.3534,-0.24493 0.28271,0.0401 0.3534,0.33603 0.49474,0.85658 0.84812,1.50483 0.3534,0.26524 0.2827,-0.0226 0.35339,-0.31669 0.49475,-0.84141 0.91881,-1.60397 0.35339,-0.22309 0.28271,0.0586 0.35339,0.35619 0.56542,1.01383 0.77744,1.34205 0.3534,0.24367 0.28272,-0.0412 0.35337,-0.33717 0.49476,-0.85752 0.84814,-1.50367 0.35338,-0.264 0.28272,0.0237 0.35338,0.31788 0.49474,0.84235 0.91881,1.60266 0.35338,0.22185 0.28272,-0.0597 0.35341,-0.35734 0.56542,-1.01471 0.77744,-1.34077 0.3534,-0.24242 0.2827,0.0422 0.35339,0.33836 0.49475,0.85841 0.84814,1.50252 0.35339,0.26276 0.2827,-0.0248 0.35339,-0.31907 0.49475,-0.84336 0.91881,-1.60134 0.3534,-0.22056 0.2827,0.0607 0.35339,0.35849 0.5654,1.01554 0.77748,1.33956 0.35336,0.24113 0.2827,-0.0433 0.35343,-0.33958 0.49475,-0.85928 0.8481,-1.50132 0.35343,-0.26155 0.2827,0.0259 0.35336,0.32023 0.49478,0.84433 0.91876,1.59999 0.35343,0.21933 0.2827,-0.0618 0.35339,-0.35961 0.56541,-1.01643 0.77747,-1.33826 0.35337,-0.2399 0.28273,0.0444 0.35339,0.3407 0.49471,0.86012 0.84818,1.50026 0.35339,0.26028 0.2827,-0.0269 0.35336,-0.32142 0.49478,-0.84528 0.9188,-1.59871 0.35339,-0.21804 0.2827,0.0628 0.3534,0.36078 0.56543,1.01735 0.77745,1.33692 0.35339,0.23865 0.2827,-0.0455 0.3534,-0.34188 0.56543,-1.00277 0.77741,-1.35727 0.35343,-0.25909 0.2827,0.028 0.3534,0.32264 0.49474,0.84614 0.9188,1.59745 0.35339,0.21677 0.2827,-0.0639 0.3534,-0.36192 0.56543,-1.01822 0.77745,-1.33563 0.35339,-0.23739 0.2827,0.0465 0.3534,0.34304 0.56544,1.00369 0.77744,1.35611 0.35339,0.25779 0.28274,-0.0291 0.35336,-0.32382 0.49474,-0.84708 0.9188,-1.59611 0.35339,-0.21551 0.28274,0.065 0.35336,0.36303 0.56544,1.0191 0.77747,1.33436 0.35337,0.2361 0.2827,-0.0476 0.35342,-0.34424 0.56541,-1.00454 0.77744,-1.35491 0.3534,-0.25657 0.2827,0.0301 0.35339,0.325 0.49478,0.84809 0.91876,1.59474 0.35343,0.21424 0.2827,-0.0661 0.35336,-0.36417 0.56544,-1.01992 0.77744,-1.33305 0.3534,-0.23489 0.28273,0.0487 0.3534,0.34539 0.5654,1.00545 0.77744,1.35369 0.3534,0.25532 0.28273,-0.0312 0.35336,-0.32616 0.49475,-0.84893 0.91883,-1.59353 0.35339,-0.21294 0.2827,0.0671 0.3534,0.36536 0.5654,1.02073 0.77748,1.33177 0.35336,0.23361 0.2827,-0.0497 0.35343,-0.34656 0.56544,-1.00643 0.77741,-1.35242 0.35342,-0.25408 0.28271,0.0323 0.35336,0.32736 0.49477,0.84995 0.91877,1.59208 0.35342,0.21169 0.28271,-0.0682 0.35339,-0.3665 0.5654,-1.02158 0.77748,-1.33046 0.35336,-0.23234 0.28274,0.0508 0.35339,0.3477 0.5654,1.00725 0.77748,1.3513 0.3534,0.25281 0.2827,-0.0334 0.35336,-0.32851 0.49478,-0.85086 0.91879,-1.59081 0.3534,-0.21039 0.2827,0.0692 0.35339,0.36765 0.56544,1.02247 0.77744,1.32909 0.3534,0.23108 0.2827,-0.0519 0.35339,-0.34887 0.56544,-1.00825 0.77741,-1.34991 0.35343,-0.25161 0.2827,0.0344 0.35339,0.32973 0.49475,0.85175 0.91879,1.58944 0.3534,0.20914 0.2827,-0.0703 0.35339,-0.36875 0.56541,-1.02326 0.77748,-1.32783 0.35339,-0.22985 0.2827,0.0529 0.35339,0.35002 0.56544,1.00913 0.77745,1.34874 0.35339,0.25033 0.2827,-0.0355 0.35336,-0.33089 0.49478,-0.8527 0.14135,-0.2839 v 0"
           style="fill:none;stroke:#0072b2;stroke-linecap:square"
           id="path3348" />
      </g>
      <g
         id="patch_8">
        <path
           d="M 32.55,167.8 V 107.2"
           style="fill:none;stroke:#000000;stroke-width:0.8;stroke-linecap:square;stroke-linejoin:miter"
           id="path3351" />
      </g>
      <g
         id="patch_9">
        <path
           d="M 421.2,167.8 V 107.2"
           style="fill:none;stroke:#000000;stroke-width:0.8;stroke-linecap:square;stroke-linejoin:miter"
           id="path3354" />
      </g>
      <g
         id="patch_10">
        <path
           d="M 32.55,167.8 H 421.2"
           style="fill:none;stroke:#000000;stroke-width:0.8;stroke-linecap:square;stroke-linejoin:miter"
           id="path3357" />
      </g>
      <g
         id="patch_11">
        <path
           d="M 32.55,107.2 H 421.2"
           style="fill:none;stroke:#000000;stroke-width:0.8;stroke-linecap:square;stroke-linejoin:miter"
           id="path3360" />
      </g>
      <text
         xml:space="preserve"
         style="font-style:normal;font-weight:normal;font-size:30px;line-height:1.25;font-family:sans-serif;fill:#000000;fill-opacity:1;stroke:none;stroke-width:0.75"
         x="223.66104"
         y="99.590118"
         id="text8385"><tspan
           sodipodi:role="line"
           id="tspan8383"
           style="stroke-width:0.75"
           x="223.66104"
           y="99.590118">+</tspan></text>
      <text
         xml:space="preserve"
         style="font-style:normal;font-weight:normal;font-size:30px;line-height:1.25;font-family:sans-serif;fill:#000000;fill-opacity:1;stroke:none;stroke-width:0.75"
         x="223.66104"
         y="193.50735"
         id="text14527"><tspan
           sodipodi:role="line"
           id="tspan14525"
           style="stroke-width:0.75"
           x="223.66104"
           y="193.50735">=</tspan></text>
    </g>
    <g
       id="axes_3">
      <g
         id="patch_12">
        <path
           d="M 32.55,260.2 H 421.2 V 199.6 H 32.55 Z"
           style="fill:#ffffff"
           id="path3364" />
      </g>
      <g
         id="matplotlib.axis_5">
        <g
           id="xtick_13">
          <g
             id="line2d_39">
            <path
               clip-path="url(#p6c6fb88a1b)"
               d="M 50.215909,260.2 V 199.6"
               style="fill:none;stroke:#b0b0b0;stroke-width:0.8;stroke-linecap:square"
               id="path3367" />
          </g>
          <g
             id="line2d_40">
            <g
               id="g3372">
              <use
                 style="stroke:#000000;stroke-width:0.8"
                 x="50.215908"
                 xlink:href="#mcb1b3fff46"
                 y="260.20001"
                 id="use3370"
                 width="100%"
                 height="100%" />
            </g>
          </g>
          <g
             id="text_19">
            <!-- 0 -->
            <g
               transform="matrix(0.1,0,0,-0.1,47.034659,274.79844)"
               id="g3377">
              <use
                 xlink:href="#DejaVuSans-30"
                 id="use3375"
                 x="0"
                 y="0"
                 width="100%"
                 height="100%" />
            </g>
          </g>
        </g>
        <g
           id="xtick_14">
          <g
             id="line2d_41">
            <path
               clip-path="url(#p6c6fb88a1b)"
               d="M 120.87954,260.2 V 199.6"
               style="fill:none;stroke:#b0b0b0;stroke-width:0.8;stroke-linecap:square"
               id="path3381" />
          </g>
          <g
             id="line2d_42">
            <g
               id="g3386">
              <use
                 style="stroke:#000000;stroke-width:0.8"
                 x="120.87955"
                 xlink:href="#mcb1b3fff46"
                 y="260.20001"
                 id="use3384"
                 width="100%"
                 height="100%" />
            </g>
          </g>
          <g
             id="text_20">
            <!-- 1 -->
            <g
               transform="matrix(0.1,0,0,-0.1,117.6983,274.79844)"
               id="g3391">
              <use
                 xlink:href="#DejaVuSans-31"
                 id="use3389"
                 x="0"
                 y="0"
                 width="100%"
                 height="100%" />
            </g>
          </g>
        </g>
        <g
           id="xtick_15">
          <g
             id="line2d_43">
            <path
               clip-path="url(#p6c6fb88a1b)"
               d="M 191.54318,260.2 V 199.6"
               style="fill:none;stroke:#b0b0b0;stroke-width:0.8;stroke-linecap:square"
               id="path3395" />
          </g>
          <g
             id="line2d_44">
            <g
               id="g3400">
              <use
                 style="stroke:#000000;stroke-width:0.8"
                 x="191.54318"
                 xlink:href="#mcb1b3fff46"
                 y="260.20001"
                 id="use3398"
                 width="100%"
                 height="100%" />
            </g>
          </g>
          <g
             id="text_21">
            <!-- 2 -->
            <g
               transform="matrix(0.1,0,0,-0.1,188.36193,274.79844)"
               id="g3405">
              <use
                 xlink:href="#DejaVuSans-32"
                 id="use3403"
                 x="0"
                 y="0"
                 width="100%"
                 height="100%" />
            </g>
          </g>
        </g>
        <g
           id="xtick_16">
          <g
             id="line2d_45">
            <path
               clip-path="url(#p6c6fb88a1b)"
               d="M 262.20682,260.2 V 199.6"
               style="fill:none;stroke:#b0b0b0;stroke-width:0.8;stroke-linecap:square"
               id="path3409" />
          </g>
          <g
             id="line2d_46">
            <g
               id="g3414">
              <use
                 style="stroke:#000000;stroke-width:0.8"
                 x="262.20682"
                 xlink:href="#mcb1b3fff46"
                 y="260.20001"
                 id="use3412"
                 width="100%"
                 height="100%" />
            </g>
          </g>
          <g
             id="text_22">
            <!-- 3 -->
            <g
               transform="matrix(0.1,0,0,-0.1,259.02557,274.79844)"
               id="g3419">
              <use
                 xlink:href="#DejaVuSans-33"
                 id="use3417"
                 x="0"
                 y="0"
                 width="100%"
                 height="100%" />
            </g>
          </g>
        </g>
        <g
           id="xtick_17">
          <g
             id="line2d_47">
            <path
               clip-path="url(#p6c6fb88a1b)"
               d="M 332.87045,260.2 V 199.6"
               style="fill:none;stroke:#b0b0b0;stroke-width:0.8;stroke-linecap:square"
               id="path3423" />
          </g>
          <g
             id="line2d_48">
            <g
               id="g3428">
              <use
                 style="stroke:#000000;stroke-width:0.8"
                 x="332.87045"
                 xlink:href="#mcb1b3fff46"
                 y="260.20001"
                 id="use3426"
                 width="100%"
                 height="100%" />
            </g>
          </g>
          <g
             id="text_23">
            <!-- 4 -->
            <g
               transform="matrix(0.1,0,0,-0.1,329.68921,274.79844)"
               id="g3433">
              <use
                 xlink:href="#DejaVuSans-34"
                 id="use3431"
                 x="0"
                 y="0"
                 width="100%"
                 height="100%" />
            </g>
          </g>
        </g>
        <g
           id="xtick_18">
          <g
             id="line2d_49">
            <path
               clip-path="url(#p6c6fb88a1b)"
               d="M 403.53409,260.2 V 199.6"
               style="fill:none;stroke:#b0b0b0;stroke-width:0.8;stroke-linecap:square"
               id="path3437" />
          </g>
          <g
             id="line2d_50">
            <g
               id="g3442">
              <use
                 style="stroke:#000000;stroke-width:0.8"
                 x="403.53409"
                 xlink:href="#mcb1b3fff46"
                 y="260.20001"
                 id="use3440"
                 width="100%"
                 height="100%" />
            </g>
          </g>
          <g
             id="text_24">
            <!-- 5 -->
            <g
               transform="matrix(0.1,0,0,-0.1,400.35284,274.79844)"
               id="g3447">
              <use
                 xlink:href="#DejaVuSans-35"
                 id="use3445"
                 x="0"
                 y="0"
                 width="100%"
                 height="100%" />
            </g>
          </g>
        </g>
      </g>
      <g
         id="matplotlib.axis_6">
        <g
           id="ytick_7">
          <g
             id="line2d_51">
            <path
               clip-path="url(#p6c6fb88a1b)"
               d="M 32.55,260.2 H 421.2"
               style="fill:none;stroke:#b0b0b0;stroke-width:0.8;stroke-linecap:square"
               id="path3452" />
          </g>
          <g
             id="line2d_52">
            <g
               id="g3457">
              <use
                 style="stroke:#000000;stroke-width:0.8"
                 x="32.549999"
                 xlink:href="#m0290c92e51"
                 y="260.20001"
                 id="use3455"
                 width="100%"
                 height="100%" />
            </g>
          </g>
          <g
             id="text_25">
            <!-- −2 -->
            <g
               transform="matrix(0.1,0,0,-0.1,10.807813,263.99922)"
               id="g3464">
              <use
                 xlink:href="#DejaVuSans-2212"
                 id="use3460"
                 x="0"
                 y="0"
                 width="100%"
                 height="100%" />
              <use
                 x="83.789062"
                 xlink:href="#DejaVuSans-32"
                 id="use3462"
                 y="0"
                 width="100%"
                 height="100%" />
            </g>
          </g>
        </g>
        <g
           id="ytick_8">
          <g
             id="line2d_53">
            <path
               clip-path="url(#p6c6fb88a1b)"
               d="M 32.55,229.9 H 421.2"
               style="fill:none;stroke:#b0b0b0;stroke-width:0.8;stroke-linecap:square"
               id="path3468" />
          </g>
          <g
             id="line2d_54">
            <g
               id="g3473">
              <use
                 style="stroke:#000000;stroke-width:0.8"
                 x="32.549999"
                 xlink:href="#m0290c92e51"
                 y="229.89999"
                 id="use3471"
                 width="100%"
                 height="100%" />
            </g>
          </g>
          <g
             id="text_26">
            <!-- 0 -->
            <g
               transform="matrix(0.1,0,0,-0.1,19.1875,233.69922)"
               id="g3478">
              <use
                 xlink:href="#DejaVuSans-30"
                 id="use3476"
                 x="0"
                 y="0"
                 width="100%"
                 height="100%" />
            </g>
          </g>
        </g>
        <g
           id="ytick_9">
          <g
             id="line2d_55">
            <path
               clip-path="url(#p6c6fb88a1b)"
               d="M 32.55,199.6 H 421.2"
               style="fill:none;stroke:#b0b0b0;stroke-width:0.8;stroke-linecap:square"
               id="path3482" />
          </g>
          <g
             id="line2d_56">
            <g
               id="g3487">
              <use
                 style="stroke:#000000;stroke-width:0.8"
                 x="32.549999"
                 xlink:href="#m0290c92e51"
                 y="199.60001"
                 id="use3485"
                 width="100%"
                 height="100%" />
            </g>
          </g>
          <g
             id="text_27">
            <!-- 2 -->
            <g
               transform="matrix(0.1,0,0,-0.1,19.1875,203.39922)"
               id="g3492">
              <use
                 xlink:href="#DejaVuSans-32"
                 id="use3490"
                 x="0"
                 y="0"
                 width="100%"
                 height="100%" />
            </g>
          </g>
        </g>
      </g>
      <g
         id="line2d_57">
        <path
           clip-path="url(#p6c6fb88a1b)"
           d="m 50.215909,229.9 0.848133,-2.16996 0.424067,-0.53011 0.353389,-0.0801 0.353389,0.19456 1.201522,0.97682 0.282711,-0.0971 0.353389,-0.41629 0.424067,-0.89341 1.55491,-3.71407 0.353389,-0.20857 0.282712,0.0639 0.424067,0.3826 0.91881,0.9582 0.353389,0.016 0.282711,-0.2168 0.353389,-0.55341 0.636099,-1.53586 0.777457,-1.79756 0.424067,-0.47467 0.282711,-0.0459 0.282711,0.15728 0.424065,0.51701 0.918812,1.21336 0.353389,0.10508 0.282711,-0.14498 0.353388,-0.45877 0.565423,-1.17636 0.777456,-1.57261 0.353388,-0.34582 0.282711,-0.0346 0.282711,0.17947 0.424067,0.59381 1.201522,1.91834 0.353388,0.0934 0.282712,-0.15592 0.424067,-0.56156 1.272199,-2.00764 0.28271,-0.0692 0.282712,0.15009 0.353391,0.47362 0.6361,1.35508 0.706776,1.38729 0.35339,0.3336 0.28271,0.036 0.353389,-0.2266 0.494745,-0.66318 0.777456,-1.0003 0.353389,-0.0986 0.28271,0.16053 0.35339,0.49897 0.565422,1.30669 0.918809,2.15861 0.424069,0.47184 0.282712,0.0559 0.353387,-0.18888 0.636099,-0.73503 0.494745,-0.46218 0.353389,-0.0431 0.28271,0.19916 0.35339,0.54791 0.565421,1.40587 0.989491,2.53713 0.424065,0.53018 0.35339,0.0843 0.353389,-0.19029 1.272199,-0.97771 0.28271,0.14585 0.353391,0.48166 0.494744,1.15549 1.272201,3.3041 0.424065,0.44268 0.282714,0.0336 0.353385,-0.19905 1.201524,-0.97084 0.282709,0.10218 0.35339,0.42282 0.494744,1.0816 1.342879,3.34625 0.353389,0.33708 0.28271,0.0294 0.353389,-0.21846 1.342879,-1.22202 0.282714,0.1175 0.353385,0.43809 0.494744,1.06236 1.130844,2.63743 0.353389,0.3566 0.28271,0.0405 0.35339,-0.22947 0.494744,-0.66815 0.706779,-0.93883 0.353389,-0.15863 0.28271,0.0982 0.35339,0.40644 0.494744,0.97222 0.989493,1.98282 0.35338,0.27437 0.28271,-0.0258 0.3534,-0.32084 0.56542,-0.96022 0.77745,-1.26484 0.35339,-0.2127 0.28271,0.0595 0.35339,0.34741 0.56542,0.97551 0.70678,1.16631 0.35339,0.24221 0.28271,-0.0457 0.35339,-0.35852 0.49474,-0.93786 1.06017,-2.1178 0.35339,-0.2645 0.28271,0.0202 0.35339,0.28474 0.6361,0.9168 0.56542,0.66787 0.35339,0.0924 0.28271,-0.16602 0.35339,-0.50518 0.56542,-1.31221 0.91881,-2.1516 0.42407,-0.46421 0.28271,-0.0509 0.35339,0.1939 0.6361,0.7374 0.49474,0.45734 0.35339,0.037 0.28271,-0.20459 0.35339,-0.55422 0.56543,-1.41182 0.98949,-2.52969 0.42406,-0.52241 0.35339,-0.078 0.35339,0.19481 1.20152,0.9763 0.28271,-0.0991 0.35339,-0.42235 0.42407,-0.90877 1.62559,-3.95039 0.35338,-0.19592 0.3534,0.1061 0.49473,0.46645 0.63612,0.55966 0.35338,0.0182 0.28271,-0.21168 0.35339,-0.55684 0.56542,-1.41089 0.98949,-2.53036 0.42406,-0.5165 0.28271,-0.076 0.35339,0.17306 0.56543,0.64085 0.56542,0.56247 0.35339,0.0634 0.28271,-0.17487 0.35338,-0.50587 0.56543,-1.3075 0.91881,-2.15683 0.42407,-0.4589 0.28271,-0.0351 0.35339,0.23504 0.56542,0.78125 0.63609,0.82437 0.35339,0.15279 0.28272,-0.1034 0.35339,-0.41237 0.56542,-1.13815 0.84814,-1.7226 0.35339,-0.33301 0.28271,-0.0236 0.2827,0.18957 0.42407,0.60428 1.13084,1.84965 0.3534,0.14422 0.28271,-0.11577 0.35338,-0.40627 0.70678,-1.28081 0.56542,-0.82978 0.35339,-0.1721 0.28271,0.1063 0.3534,0.4265 0.56542,1.15567 0.84813,1.70035 0.35338,0.32117 0.28272,0.0257 0.35339,-0.23749 0.56542,-0.77997 0.6361,-0.82558 0.35339,-0.14794 0.28271,0.11666 0.35339,0.44835 0.49474,1.07844 1.13085,2.61782 0.35339,0.34887 0.28271,0.0458 0.35338,-0.19888 0.63611,-0.73969 0.49474,-0.4524 0.35339,-0.031 0.28271,0.21003 0.35339,0.56049 0.56542,1.41769 0.98949,2.5221 0.42407,0.51463 0.35339,0.0718 0.35338,-0.1993 1.20153,-0.97027 0.28271,0.10417 0.35338,0.42899 0.42407,0.9151 1.55492,3.86153 0.35338,0.25548 0.28271,-0.0238 0.42407,-0.3187 0.91882,-0.80689 0.28271,0.0129 0.28271,0.21698 0.35338,0.56301 0.56542,1.41676 0.9895,2.52273 0.42406,0.50856 0.28271,0.0707 0.35339,-0.17829 0.56542,-0.64371 0.56542,-0.55765 0.3534,-0.0576 0.2827,0.18012 0.35339,0.51188 0.56543,1.31296 0.9188,2.14972 0.42408,0.45101 0.28271,0.0298 0.35339,-0.24057 0.56542,-0.78484 0.63609,-0.81925 0.35339,-0.14691 0.28271,0.1086 0.3534,0.41828 0.56542,1.14322 0.84814,1.71609 0.35338,0.32658 0.28271,0.0181 0.28271,-0.19459 0.42406,-0.60943 1.13085,-1.84317 0.35339,-0.13791 0.28271,0.12083 0.35339,0.41141 0.77746,1.41133 0.49474,0.69522 0.35339,0.16559 0.28271,-0.11181 0.35339,-0.43248 0.56542,-1.1605 0.84813,-1.69348 0.3534,-0.31494 0.28271,-0.0206 0.35338,0.24287 0.56542,0.78358 0.63611,0.82043 0.35338,0.14187 0.28272,-0.12214 0.35338,-0.45476 0.49475,-1.08423 1.13085,-2.60999 0.35338,-0.34241 0.28271,-0.0408 0.35339,0.20382 0.70678,0.82476 0.49475,0.39344 0.28271,-0.004 0.28271,-0.21545 0.35338,-0.56677 0.56543,-1.42347 0.98948,-2.51435 0.42407,-0.50685 0.35339,-0.0657 0.35339,0.20372 1.20152,0.96411 0.28271,-0.10936 0.3534,-0.43561 0.49474,-1.10781 1.41355,-3.57531 0.35338,-0.31556 0.28272,-0.019 0.35341,0.21229 1.13084,0.94991 0.2827,-0.0668 0.35339,-0.37694 0.42405,-0.85534 1.6256,-3.84841 0.3534,-0.18169 0.2827,0.0825 0.42407,0.39968 0.84814,0.90358 0.35337,0.0517 0.28272,-0.18535 0.35338,-0.5179 0.56542,-1.31826 0.91883,-2.14256 0.42407,-0.44306 0.2827,-0.0244 0.35339,0.24606 0.56542,0.78834 0.6361,0.81402 0.35339,0.14101 0.2827,-0.11379 0.3534,-0.42414 0.56543,-1.14825 0.84812,-1.70942 0.3534,-0.32014 0.2827,-0.0126 0.28272,0.19958 0.42407,0.61456 1.13083,1.83651 0.3534,0.13158 0.28272,-0.1259 0.35337,-0.41648 0.84814,-1.53574 0.49475,-0.62423 0.2827,-0.10141 0.28272,0.1173 0.35337,0.43844 0.56542,1.1652 0.84816,1.68654 0.35339,0.30868 0.2827,0.0154 0.3534,-0.24825 0.56542,-0.78706 0.63609,-0.81519 0.35338,-0.13578 0.28272,0.12761 0.35339,0.46116 0.49474,1.08995 1.06017,2.49669 0.42407,0.44124 0.28272,0.0358 0.35337,-0.20871 0.70677,-0.82642 0.49476,-0.38766 0.28272,0.009 0.2827,0.22089 0.3534,0.57301 0.56542,1.42916 0.98949,2.50648 0.42405,0.49903 0.28272,0.0718 0.35339,-0.16222 1.34288,-1.0066 0.2827,0.16695 0.3534,0.5077 0.49474,1.1814 1.27219,3.2702 0.3534,0.37576 0.2827,0.0634 0.35339,-0.17138 1.34288,-0.99318 0.28272,0.17478 0.35338,0.51295 0.49474,1.17186 1.20152,3.01768 0.35339,0.37756 0.28272,0.0603 0.35339,-0.18859 0.6361,-0.73589 0.49474,-0.46104 0.3534,-0.0459 0.2827,0.19059 0.35339,0.52389 0.56542,1.32356 0.91883,2.13516 0.42405,0.4351 0.28272,0.0191 0.35338,-0.25151 0.56542,-0.79172 0.63611,-0.80874 0.35338,-0.13506 0.28272,0.119 0.35337,0.42995 0.56544,1.15315 0.84814,1.70269 0.35337,0.31364 0.28272,0.007 0.2827,-0.20453 0.42407,-0.6196 1.13084,-1.82972 0.3534,-0.12524 0.28271,0.13093 0.3534,0.42155 1.48423,2.2291 0.2827,-0.0126 0.28272,-0.23061 0.42405,-0.69492 1.41358,-2.67642 0.35337,-0.10983 0.28272,0.13705 0.42407,0.49425 0.98947,1.28909 0.3534,0.067 0.28272,-0.18796 0.35337,-0.52974 0.56544,-1.33339 0.91881,-2.1222 0.42407,-0.43354 0.2827,-0.0308 0.3534,0.21358 1.34286,1.22802 0.28272,-0.11829 0.35339,-0.45087 0.49475,-1.11542 1.27219,-3.20088 0.35339,-0.37692 0.2827,-0.0668 0.3534,0.167 1.34288,0.99948 0.28272,-0.17226 0.35339,-0.51416 0.49473,-1.18769 1.20153,-3.14784 0.42405,-0.48253 0.28272,-0.0584 0.35338,0.17608 1.27222,0.99843 0.2827,-0.12787 0.3534,-0.45532 0.49474,-1.11523 1.27219,-3.20055 0.3534,-0.37081 0.28271,-0.0551 0.3534,0.19369 0.63609,0.73824 0.49475,0.45622 0.35337,0.0399 0.28272,-0.19583 0.35338,-0.52983 0.56542,-1.32874 0.91883,-2.12766 0.42407,-0.42714 0.2827,-0.0138 0.35339,0.25692 0.56542,0.79501 0.6361,0.8033 0.35339,0.12915 0.2827,-0.1242 0.3534,-0.43578 0.56542,-1.15796 0.84814,-1.69577 0.35339,-0.30717 0.2827,-0.002 0.28272,0.2095 0.42407,0.62458 1.13084,1.82273 0.35337,0.11888 0.28272,-0.13595 0.3534,-0.4266 1.48423,-2.2206 0.28272,0.0181 0.2827,0.23586 0.42407,0.70086 1.34288,2.60793 0.35339,0.16812 0.28271,-0.0944 0.42406,-0.45114 1.13084,-1.42075 0.28272,-0.0232 0.2827,0.19344 0.3534,0.53582 0.56543,1.33847 0.84812,1.99972 0.42407,0.50219 0.2827,0.0763 0.3534,-0.16841 0.56542,-0.63679 0.56542,-0.56847 0.35339,-0.067 0.28272,0.17749 0.35339,0.52248 0.49475,1.18439 1.13084,2.88749 0.42405,0.48339 0.28272,0.0618 0.35339,-0.17176 1.34288,-0.99213 0.28271,0.17755 0.35339,0.52064 0.49474,1.19396 1.20152,3.13996 0.42407,0.47458 0.2827,0.0534 0.35339,-0.18075 1.27221,-0.99197 0.28272,0.13304 0.35337,0.46177 0.49475,1.12175 1.27219,3.19235 0.35341,0.3641 0.28272,0.0499 0.35337,-0.1987 0.6361,-0.74049 0.49474,-0.45132 0.3534,-0.034 0.2827,0.20107 0.35339,0.53578 0.56542,1.33385 0.91883,2.11999 0.35338,0.38315 0.28272,0.0621 0.2827,-0.1432 0.42407,-0.50399 0.98949,-1.27702 0.35337,-0.0622 0.28272,0.18116 0.35338,0.49782 0.7068,1.53031 0.6361,1.20032 0.35338,0.30063 0.28271,-0.004 0.3534,-0.29721 0.49473,-0.80737 0.84813,-1.42384 0.3534,-0.23707 0.28271,0.0389 0.3534,0.32504 0.56542,0.95875 0.77744,1.26573 0.3534,0.20433 0.2827,-0.0788 0.35339,-0.39602 0.49475,-0.96946 0.98949,-1.98821 0.35339,-0.28984 0.28272,-1.2e-4 0.35337,0.26408 0.56542,0.79705 0.6361,0.79884 0.35339,0.11735 0.28271,-0.14406 0.35339,-0.48017 0.56543,-1.2897 0.98949,-2.29238 0.42407,-0.41814 0.2827,-0.0208 0.3534,0.22319 1.34286,1.21393 0.28272,-0.12899 0.3534,-0.46402 0.49474,-1.12854 1.27219,-3.18436 0.35339,-0.36377 0.28271,-0.0568 0.35339,0.17647 1.27221,0.99768 0.28271,-0.13016 0.35338,-0.46198 0.49475,-1.13539 1.34289,-3.43851 0.35336,-0.35567 0.28271,-0.0484 0.35342,0.18543 1.27219,0.98532 0.28271,-0.13823 0.35335,-0.46818 0.49478,-1.1283 1.27219,-3.18394 0.3534,-0.35736 0.2827,-0.0448 0.35339,0.20372 0.70679,0.82538 0.49471,0.39266 0.28274,-0.001 0.2827,-0.2063 0.35342,-0.54174 0.56541,-1.33886 0.84813,-1.99837 0.42406,-0.49032 0.28273,-0.0567 0.2827,0.14792 0.42406,0.50837 0.91883,1.22385 0.35339,0.11714 0.2827,-0.13459 0.35336,-0.44731 0.56544,-1.16735 0.84814,-1.68158 0.35339,-0.29411 0.2827,0.009 0.3534,0.30316 0.49474,0.81193 0.84814,1.41808 0.35339,0.23101 0.2827,-0.044 0.3534,-0.33068 0.56543,-0.9631 0.77741,-1.25923 0.35343,-0.19797 0.2827,0.0843 0.3534,0.40218 0.49474,0.97449 0.98949,1.98107 0.35336,0.28351 0.28274,-0.005 0.35339,-0.26929 0.63609,-0.90857 0.56541,-0.68479 0.35342,-0.11113 0.28271,0.14955 0.35336,0.48641 0.56543,1.29545 0.91883,2.17225 0.42405,0.48702 0.28274,0.0661 0.35336,-0.17871 0.56544,-0.64265 0.5654,-0.55896 0.35339,-0.0551 0.28274,0.18835 0.35336,0.53517 0.5654,1.39364 0.98952,2.55167 0.42406,0.54565 0.35339,0.0968 0.35339,-0.18111 1.27219,-0.99122 0.28271,0.13535 0.35339,0.46856 0.49474,1.14218 1.34292,3.4296 0.35336,0.34898 0.2827,0.0435 0.35339,-0.18997 1.27223,-0.97855 0.2827,0.14344 0.35339,0.47468 0.49475,1.13469 1.27219,3.17534 0.35339,0.35059 0.2827,0.0396 0.3534,-0.20867 0.70678,-0.82701 0.49475,-0.38692 0.2827,0.006 0.2827,0.21156 0.35339,0.54756 0.6361,1.53092 0.77748,1.80454 0.42405,0.4825 0.2827,0.0513 0.28274,-0.15264 0.42405,-0.51271 0.9188,-1.21868 0.35342,-0.11112 0.28271,0.13979 0.35336,0.45306 0.56543,1.17191 0.77745,1.57883 0.35339,0.3522 0.2827,0.0402 0.28274,-0.17438 0.42405,-0.58846 1.20153,-1.92551 0.35336,-0.0998 0.28274,0.15096 0.42405,0.55599 1.27222,2.01502 0.28271,0.0746 0.2827,-0.14464 0.35339,-0.46785 0.63609,-1.3509 0.70679,-1.39389 0.3534,-0.33977 0.2827,-0.0412 0.35339,0.22111 0.49475,0.65936 0.77744,1.00612 0.35339,0.10492 0.28274,-0.15507 0.35336,-0.49269 0.56544,-1.30112 0.91879,-2.16548 0.42409,-0.47945 0.2827,-0.061 0.35339,0.18383 0.56541,0.64545 0.56543,0.55405 0.3534,0.0491 0.2827,-0.19373 0.35339,-0.54159 0.56541,-1.39977 0.98952,-2.5445 0.42405,-0.53792 0.35339,-0.0905 0.3534,0.18569 1.27219,0.98458 0.2827,-0.1406 0.35339,-0.47511 0.49475,-1.14884 0.35339,-1.02113 v 0"
           style="fill:none;stroke:#0072b2;stroke-linecap:square"
           id="path3497" />
      </g>
      <g
         id="patch_13">
        <path
           d="M 32.55,260.2 V 199.6"
           style="fill:none;stroke:#000000;stroke-width:0.8;stroke-linecap:square;stroke-linejoin:miter"
           id="path3500" />
      </g>
      <g
         id="patch_14">
        <path
           d="M 421.2,260.2 V 199.6"
           style="fill:none;stroke:#000000;stroke-width:0.8;stroke-linecap:square;stroke-linejoin:miter"
           id="path3503" />
      </g>
      <g
         id="patch_15">
        <path
           d="M 32.55,260.2 H 421.2"
           style="fill:none;stroke:#000000;stroke-width:0.8;stroke-linecap:square;stroke-linejoin:miter"
           id="path3506" />
      </g>
      <g
         id="patch_16">
        <path
           d="M 32.55,199.6 H 421.2"
           style="fill:none;stroke:#000000;stroke-width:0.8;stroke-linecap:square;stroke-linejoin:miter"
           id="path3509" />
      </g>
    </g>
  </g>
  <defs
     id="defs3523">
    <clipPath
       id="p075275d711">
      <rect
         height="60.6"
         width="388.65"
         x="32.55"
         y="14.8"
         id="rect3514" />
    </clipPath>
    <clipPath
       id="p448db62c50">
      <rect
         height="60.6"
         width="388.65"
         x="32.55"
         y="107.2"
         id="rect3517" />
    </clipPath>
    <clipPath
       id="p6c6fb88a1b">
      <rect
         height="60.6"
         width="388.65"
         x="32.55"
         y="199.6"
         id="rect3520" />
    </clipPath>
  </defs>
</svg>
