<?xml version="1.0" encoding="utf-8" standalone="no"?>
<!DOCTYPE svg PUBLIC "-//W3C//DTD SVG 1.1//EN"
  "http://www.w3.org/Graphics/SVG/1.1/DTD/svg11.dtd">
<!-- Created with matplotlib (https://matplotlib.org/) -->
<svg height="288pt" version="1.1" viewBox="0 0 432 288" width="432pt" xmlns="http://www.w3.org/2000/svg" xmlns:xlink="http://www.w3.org/1999/xlink">
 <metadata>
  <rdf:RDF xmlns:cc="http://creativecommons.org/ns#" xmlns:dc="http://purl.org/dc/elements/1.1/" xmlns:rdf="http://www.w3.org/1999/02/22-rdf-syntax-ns#">
   <cc:Work>
    <dc:type rdf:resource="http://purl.org/dc/dcmitype/StillImage"/>
    <dc:date>2021-07-09T20:04:22.625584</dc:date>
    <dc:format>image/svg+xml</dc:format>
    <dc:creator>
     <cc:Agent>
      <dc:title>Matplotlib v3.3.2, https://matplotlib.org/</dc:title>
     </cc:Agent>
    </dc:creator>
   </cc:Work>
  </rdf:RDF>
 </metadata>
 <defs>
  <style type="text/css">*{stroke-linecap:butt;stroke-linejoin:round;}</style>
 </defs>
 <g id="figure_1">
  <g id="patch_1">
   <path d="M 0 288 
L 432 288 
L 432 0 
L 0 0 
z
" style="fill:none;"/>
  </g>
  <g id="axes_1">
   <g id="patch_2">
    <path d="M 54 252 
L 388.8 252 
L 388.8 34.56 
L 54 34.56 
z
" style="fill:#ffffff;"/>
   </g>
   <g id="matplotlib.axis_1">
    <g id="xtick_1">
     <g id="line2d_1">
      <path clip-path="url(#p5ce41ab998)" d="M 69.218182 252 
L 69.218182 34.56 
" style="fill:none;stroke:#b0b0b0;stroke-linecap:square;stroke-width:0.8;"/>
     </g>
     <g id="line2d_2">
      <defs>
       <path d="M 0 0 
L 0 3.5 
" id="med42eedf6b" style="stroke:#000000;stroke-width:0.8;"/>
      </defs>
      <g>
       <use style="stroke:#000000;stroke-width:0.8;" x="69.218182" xlink:href="#med42eedf6b" y="252"/>
      </g>
     </g>
     <g id="text_1">
      <!-- 0 -->
      <g transform="translate(66.036932 266.598437)scale(0.1 -0.1)">
       <defs>
        <path d="M 31.78125 66.40625 
Q 24.171875 66.40625 20.328125 58.90625 
Q 16.5 51.421875 16.5 36.375 
Q 16.5 21.390625 20.328125 13.890625 
Q 24.171875 6.390625 31.78125 6.390625 
Q 39.453125 6.390625 43.28125 13.890625 
Q 47.125 21.390625 47.125 36.375 
Q 47.125 51.421875 43.28125 58.90625 
Q 39.453125 66.40625 31.78125 66.40625 
z
M 31.78125 74.21875 
Q 44.046875 74.21875 50.515625 64.515625 
Q 56.984375 54.828125 56.984375 36.375 
Q 56.984375 17.96875 50.515625 8.265625 
Q 44.046875 -1.421875 31.78125 -1.421875 
Q 19.53125 -1.421875 13.0625 8.265625 
Q 6.59375 17.96875 6.59375 36.375 
Q 6.59375 54.828125 13.0625 64.515625 
Q 19.53125 74.21875 31.78125 74.21875 
z
" id="DejaVuSans-48"/>
       </defs>
       <use xlink:href="#DejaVuSans-48"/>
      </g>
     </g>
    </g>
    <g id="xtick_2">
     <g id="line2d_3">
      <path clip-path="url(#p5ce41ab998)" d="M 111.199373 252 
L 111.199373 34.56 
" style="fill:none;stroke:#b0b0b0;stroke-linecap:square;stroke-width:0.8;"/>
     </g>
     <g id="line2d_4">
      <g>
       <use style="stroke:#000000;stroke-width:0.8;" x="111.199373" xlink:href="#med42eedf6b" y="252"/>
      </g>
     </g>
     <g id="text_2">
      <!-- 100 -->
      <g transform="translate(101.655623 266.598437)scale(0.1 -0.1)">
       <defs>
        <path d="M 12.40625 8.296875 
L 28.515625 8.296875 
L 28.515625 63.921875 
L 10.984375 60.40625 
L 10.984375 69.390625 
L 28.421875 72.90625 
L 38.28125 72.90625 
L 38.28125 8.296875 
L 54.390625 8.296875 
L 54.390625 0 
L 12.40625 0 
z
" id="DejaVuSans-49"/>
       </defs>
       <use xlink:href="#DejaVuSans-49"/>
       <use x="63.623047" xlink:href="#DejaVuSans-48"/>
       <use x="127.246094" xlink:href="#DejaVuSans-48"/>
      </g>
     </g>
    </g>
    <g id="xtick_3">
     <g id="line2d_5">
      <path clip-path="url(#p5ce41ab998)" d="M 153.180564 252 
L 153.180564 34.56 
" style="fill:none;stroke:#b0b0b0;stroke-linecap:square;stroke-width:0.8;"/>
     </g>
     <g id="line2d_6">
      <g>
       <use style="stroke:#000000;stroke-width:0.8;" x="153.180564" xlink:href="#med42eedf6b" y="252"/>
      </g>
     </g>
     <g id="text_3">
      <!-- 200 -->
      <g transform="translate(143.636814 266.598437)scale(0.1 -0.1)">
       <defs>
        <path d="M 19.1875 8.296875 
L 53.609375 8.296875 
L 53.609375 0 
L 7.328125 0 
L 7.328125 8.296875 
Q 12.9375 14.109375 22.625 23.890625 
Q 32.328125 33.6875 34.8125 36.53125 
Q 39.546875 41.84375 41.421875 45.53125 
Q 43.3125 49.21875 43.3125 52.78125 
Q 43.3125 58.59375 39.234375 62.25 
Q 35.15625 65.921875 28.609375 65.921875 
Q 23.96875 65.921875 18.8125 64.3125 
Q 13.671875 62.703125 7.8125 59.421875 
L 7.8125 69.390625 
Q 13.765625 71.78125 18.9375 73 
Q 24.125 74.21875 28.421875 74.21875 
Q 39.75 74.21875 46.484375 68.546875 
Q 53.21875 62.890625 53.21875 53.421875 
Q 53.21875 48.921875 51.53125 44.890625 
Q 49.859375 40.875 45.40625 35.40625 
Q 44.1875 33.984375 37.640625 27.21875 
Q 31.109375 20.453125 19.1875 8.296875 
z
" id="DejaVuSans-50"/>
       </defs>
       <use xlink:href="#DejaVuSans-50"/>
       <use x="63.623047" xlink:href="#DejaVuSans-48"/>
       <use x="127.246094" xlink:href="#DejaVuSans-48"/>
      </g>
     </g>
    </g>
    <g id="xtick_4">
     <g id="line2d_7">
      <path clip-path="url(#p5ce41ab998)" d="M 195.161755 252 
L 195.161755 34.56 
" style="fill:none;stroke:#b0b0b0;stroke-linecap:square;stroke-width:0.8;"/>
     </g>
     <g id="line2d_8">
      <g>
       <use style="stroke:#000000;stroke-width:0.8;" x="195.161755" xlink:href="#med42eedf6b" y="252"/>
      </g>
     </g>
     <g id="text_4">
      <!-- 300 -->
      <g transform="translate(185.618005 266.598437)scale(0.1 -0.1)">
       <defs>
        <path d="M 40.578125 39.3125 
Q 47.65625 37.796875 51.625 33 
Q 55.609375 28.21875 55.609375 21.1875 
Q 55.609375 10.40625 48.1875 4.484375 
Q 40.765625 -1.421875 27.09375 -1.421875 
Q 22.515625 -1.421875 17.65625 -0.515625 
Q 12.796875 0.390625 7.625 2.203125 
L 7.625 11.71875 
Q 11.71875 9.328125 16.59375 8.109375 
Q 21.484375 6.890625 26.8125 6.890625 
Q 36.078125 6.890625 40.9375 10.546875 
Q 45.796875 14.203125 45.796875 21.1875 
Q 45.796875 27.640625 41.28125 31.265625 
Q 36.765625 34.90625 28.71875 34.90625 
L 20.21875 34.90625 
L 20.21875 43.015625 
L 29.109375 43.015625 
Q 36.375 43.015625 40.234375 45.921875 
Q 44.09375 48.828125 44.09375 54.296875 
Q 44.09375 59.90625 40.109375 62.90625 
Q 36.140625 65.921875 28.71875 65.921875 
Q 24.65625 65.921875 20.015625 65.03125 
Q 15.375 64.15625 9.8125 62.3125 
L 9.8125 71.09375 
Q 15.4375 72.65625 20.34375 73.4375 
Q 25.25 74.21875 29.59375 74.21875 
Q 40.828125 74.21875 47.359375 69.109375 
Q 53.90625 64.015625 53.90625 55.328125 
Q 53.90625 49.265625 50.4375 45.09375 
Q 46.96875 40.921875 40.578125 39.3125 
z
" id="DejaVuSans-51"/>
       </defs>
       <use xlink:href="#DejaVuSans-51"/>
       <use x="63.623047" xlink:href="#DejaVuSans-48"/>
       <use x="127.246094" xlink:href="#DejaVuSans-48"/>
      </g>
     </g>
    </g>
    <g id="xtick_5">
     <g id="line2d_9">
      <path clip-path="url(#p5ce41ab998)" d="M 237.142947 252 
L 237.142947 34.56 
" style="fill:none;stroke:#b0b0b0;stroke-linecap:square;stroke-width:0.8;"/>
     </g>
     <g id="line2d_10">
      <g>
       <use style="stroke:#000000;stroke-width:0.8;" x="237.142947" xlink:href="#med42eedf6b" y="252"/>
      </g>
     </g>
     <g id="text_5">
      <!-- 400 -->
      <g transform="translate(227.599197 266.598437)scale(0.1 -0.1)">
       <defs>
        <path d="M 37.796875 64.3125 
L 12.890625 25.390625 
L 37.796875 25.390625 
z
M 35.203125 72.90625 
L 47.609375 72.90625 
L 47.609375 25.390625 
L 58.015625 25.390625 
L 58.015625 17.1875 
L 47.609375 17.1875 
L 47.609375 0 
L 37.796875 0 
L 37.796875 17.1875 
L 4.890625 17.1875 
L 4.890625 26.703125 
z
" id="DejaVuSans-52"/>
       </defs>
       <use xlink:href="#DejaVuSans-52"/>
       <use x="63.623047" xlink:href="#DejaVuSans-48"/>
       <use x="127.246094" xlink:href="#DejaVuSans-48"/>
      </g>
     </g>
    </g>
    <g id="xtick_6">
     <g id="line2d_11">
      <path clip-path="url(#p5ce41ab998)" d="M 279.124138 252 
L 279.124138 34.56 
" style="fill:none;stroke:#b0b0b0;stroke-linecap:square;stroke-width:0.8;"/>
     </g>
     <g id="line2d_12">
      <g>
       <use style="stroke:#000000;stroke-width:0.8;" x="279.124138" xlink:href="#med42eedf6b" y="252"/>
      </g>
     </g>
     <g id="text_6">
      <!-- 500 -->
      <g transform="translate(269.580388 266.598437)scale(0.1 -0.1)">
       <defs>
        <path d="M 10.796875 72.90625 
L 49.515625 72.90625 
L 49.515625 64.59375 
L 19.828125 64.59375 
L 19.828125 46.734375 
Q 21.96875 47.46875 24.109375 47.828125 
Q 26.265625 48.1875 28.421875 48.1875 
Q 40.625 48.1875 47.75 41.5 
Q 54.890625 34.8125 54.890625 23.390625 
Q 54.890625 11.625 47.5625 5.09375 
Q 40.234375 -1.421875 26.90625 -1.421875 
Q 22.3125 -1.421875 17.546875 -0.640625 
Q 12.796875 0.140625 7.71875 1.703125 
L 7.71875 11.625 
Q 12.109375 9.234375 16.796875 8.0625 
Q 21.484375 6.890625 26.703125 6.890625 
Q 35.15625 6.890625 40.078125 11.328125 
Q 45.015625 15.765625 45.015625 23.390625 
Q 45.015625 31 40.078125 35.4375 
Q 35.15625 39.890625 26.703125 39.890625 
Q 22.75 39.890625 18.8125 39.015625 
Q 14.890625 38.140625 10.796875 36.28125 
z
" id="DejaVuSans-53"/>
       </defs>
       <use xlink:href="#DejaVuSans-53"/>
       <use x="63.623047" xlink:href="#DejaVuSans-48"/>
       <use x="127.246094" xlink:href="#DejaVuSans-48"/>
      </g>
     </g>
    </g>
    <g id="xtick_7">
     <g id="line2d_13">
      <path clip-path="url(#p5ce41ab998)" d="M 321.105329 252 
L 321.105329 34.56 
" style="fill:none;stroke:#b0b0b0;stroke-linecap:square;stroke-width:0.8;"/>
     </g>
     <g id="line2d_14">
      <g>
       <use style="stroke:#000000;stroke-width:0.8;" x="321.105329" xlink:href="#med42eedf6b" y="252"/>
      </g>
     </g>
     <g id="text_7">
      <!-- 600 -->
      <g transform="translate(311.561579 266.598437)scale(0.1 -0.1)">
       <defs>
        <path d="M 33.015625 40.375 
Q 26.375 40.375 22.484375 35.828125 
Q 18.609375 31.296875 18.609375 23.390625 
Q 18.609375 15.53125 22.484375 10.953125 
Q 26.375 6.390625 33.015625 6.390625 
Q 39.65625 6.390625 43.53125 10.953125 
Q 47.40625 15.53125 47.40625 23.390625 
Q 47.40625 31.296875 43.53125 35.828125 
Q 39.65625 40.375 33.015625 40.375 
z
M 52.59375 71.296875 
L 52.59375 62.3125 
Q 48.875 64.0625 45.09375 64.984375 
Q 41.3125 65.921875 37.59375 65.921875 
Q 27.828125 65.921875 22.671875 59.328125 
Q 17.53125 52.734375 16.796875 39.40625 
Q 19.671875 43.65625 24.015625 45.921875 
Q 28.375 48.1875 33.59375 48.1875 
Q 44.578125 48.1875 50.953125 41.515625 
Q 57.328125 34.859375 57.328125 23.390625 
Q 57.328125 12.15625 50.6875 5.359375 
Q 44.046875 -1.421875 33.015625 -1.421875 
Q 20.359375 -1.421875 13.671875 8.265625 
Q 6.984375 17.96875 6.984375 36.375 
Q 6.984375 53.65625 15.1875 63.9375 
Q 23.390625 74.21875 37.203125 74.21875 
Q 40.921875 74.21875 44.703125 73.484375 
Q 48.484375 72.75 52.59375 71.296875 
z
" id="DejaVuSans-54"/>
       </defs>
       <use xlink:href="#DejaVuSans-54"/>
       <use x="63.623047" xlink:href="#DejaVuSans-48"/>
       <use x="127.246094" xlink:href="#DejaVuSans-48"/>
      </g>
     </g>
    </g>
    <g id="xtick_8">
     <g id="line2d_15">
      <path clip-path="url(#p5ce41ab998)" d="M 363.08652 252 
L 363.08652 34.56 
" style="fill:none;stroke:#b0b0b0;stroke-linecap:square;stroke-width:0.8;"/>
     </g>
     <g id="line2d_16">
      <g>
       <use style="stroke:#000000;stroke-width:0.8;" x="363.08652" xlink:href="#med42eedf6b" y="252"/>
      </g>
     </g>
     <g id="text_8">
      <!-- 700 -->
      <g transform="translate(353.54277 266.598437)scale(0.1 -0.1)">
       <defs>
        <path d="M 8.203125 72.90625 
L 55.078125 72.90625 
L 55.078125 68.703125 
L 28.609375 0 
L 18.3125 0 
L 43.21875 64.59375 
L 8.203125 64.59375 
z
" id="DejaVuSans-55"/>
       </defs>
       <use xlink:href="#DejaVuSans-55"/>
       <use x="63.623047" xlink:href="#DejaVuSans-48"/>
       <use x="127.246094" xlink:href="#DejaVuSans-48"/>
      </g>
     </g>
    </g>
    <g id="text_9">
     <!-- $t$ -->
     <g transform="translate(219.4 280.276563)scale(0.1 -0.1)">
      <defs>
       <path d="M 42.28125 54.6875 
L 40.921875 47.703125 
L 23 47.703125 
L 17.1875 18.015625 
Q 16.890625 16.359375 16.75 15.234375 
Q 16.609375 14.109375 16.609375 13.484375 
Q 16.609375 10.359375 18.484375 8.9375 
Q 20.359375 7.515625 24.515625 7.515625 
L 33.59375 7.515625 
L 32.078125 0 
L 23.484375 0 
Q 15.484375 0 11.546875 3.125 
Q 7.625 6.25 7.625 12.59375 
Q 7.625 13.71875 7.765625 15.0625 
Q 7.90625 16.40625 8.203125 18.015625 
L 14.015625 47.703125 
L 6.390625 47.703125 
L 7.8125 54.6875 
L 15.28125 54.6875 
L 18.3125 70.21875 
L 27.296875 70.21875 
L 24.3125 54.6875 
z
" id="DejaVuSans-Oblique-116"/>
      </defs>
      <use transform="translate(0 0.78125)" xlink:href="#DejaVuSans-Oblique-116"/>
     </g>
    </g>
   </g>
   <g id="matplotlib.axis_2">
    <g id="ytick_1">
     <g id="line2d_17">
      <path clip-path="url(#p5ce41ab998)" d="M 54 240.153535 
L 388.8 240.153535 
" style="fill:none;stroke:#b0b0b0;stroke-linecap:square;stroke-width:0.8;"/>
     </g>
     <g id="line2d_18">
      <defs>
       <path d="M 0 0 
L -3.5 0 
" id="me304bd5b04" style="stroke:#000000;stroke-width:0.8;"/>
      </defs>
      <g>
       <use style="stroke:#000000;stroke-width:0.8;" x="54" xlink:href="#me304bd5b04" y="240.153535"/>
      </g>
     </g>
     <g id="text_10">
      <!-- −40 -->
      <g transform="translate(25.895312 243.952754)scale(0.1 -0.1)">
       <defs>
        <path d="M 10.59375 35.5 
L 73.1875 35.5 
L 73.1875 27.203125 
L 10.59375 27.203125 
z
" id="DejaVuSans-8722"/>
       </defs>
       <use xlink:href="#DejaVuSans-8722"/>
       <use x="83.789062" xlink:href="#DejaVuSans-52"/>
       <use x="147.412109" xlink:href="#DejaVuSans-48"/>
      </g>
     </g>
    </g>
    <g id="ytick_2">
     <g id="line2d_19">
      <path clip-path="url(#p5ce41ab998)" d="M 54 200.050409 
L 388.8 200.050409 
" style="fill:none;stroke:#b0b0b0;stroke-linecap:square;stroke-width:0.8;"/>
     </g>
     <g id="line2d_20">
      <g>
       <use style="stroke:#000000;stroke-width:0.8;" x="54" xlink:href="#me304bd5b04" y="200.050409"/>
      </g>
     </g>
     <g id="text_11">
      <!-- −20 -->
      <g transform="translate(25.895312 203.849628)scale(0.1 -0.1)">
       <use xlink:href="#DejaVuSans-8722"/>
       <use x="83.789062" xlink:href="#DejaVuSans-50"/>
       <use x="147.412109" xlink:href="#DejaVuSans-48"/>
      </g>
     </g>
    </g>
    <g id="ytick_3">
     <g id="line2d_21">
      <path clip-path="url(#p5ce41ab998)" d="M 54 159.947283 
L 388.8 159.947283 
" style="fill:none;stroke:#b0b0b0;stroke-linecap:square;stroke-width:0.8;"/>
     </g>
     <g id="line2d_22">
      <g>
       <use style="stroke:#000000;stroke-width:0.8;" x="54" xlink:href="#me304bd5b04" y="159.947283"/>
      </g>
     </g>
     <g id="text_12">
      <!-- 0 -->
      <g transform="translate(40.6375 163.746502)scale(0.1 -0.1)">
       <use xlink:href="#DejaVuSans-48"/>
      </g>
     </g>
    </g>
    <g id="ytick_4">
     <g id="line2d_23">
      <path clip-path="url(#p5ce41ab998)" d="M 54 119.844157 
L 388.8 119.844157 
" style="fill:none;stroke:#b0b0b0;stroke-linecap:square;stroke-width:0.8;"/>
     </g>
     <g id="line2d_24">
      <g>
       <use style="stroke:#000000;stroke-width:0.8;" x="54" xlink:href="#me304bd5b04" y="119.844157"/>
      </g>
     </g>
     <g id="text_13">
      <!-- 20 -->
      <g transform="translate(34.275 123.643375)scale(0.1 -0.1)">
       <use xlink:href="#DejaVuSans-50"/>
       <use x="63.623047" xlink:href="#DejaVuSans-48"/>
      </g>
     </g>
    </g>
    <g id="ytick_5">
     <g id="line2d_25">
      <path clip-path="url(#p5ce41ab998)" d="M 54 79.741031 
L 388.8 79.741031 
" style="fill:none;stroke:#b0b0b0;stroke-linecap:square;stroke-width:0.8;"/>
     </g>
     <g id="line2d_26">
      <g>
       <use style="stroke:#000000;stroke-width:0.8;" x="54" xlink:href="#me304bd5b04" y="79.741031"/>
      </g>
     </g>
     <g id="text_14">
      <!-- 40 -->
      <g transform="translate(34.275 83.540249)scale(0.1 -0.1)">
       <use xlink:href="#DejaVuSans-52"/>
       <use x="63.623047" xlink:href="#DejaVuSans-48"/>
      </g>
     </g>
    </g>
    <g id="ytick_6">
     <g id="line2d_27">
      <path clip-path="url(#p5ce41ab998)" d="M 54 39.637904 
L 388.8 39.637904 
" style="fill:none;stroke:#b0b0b0;stroke-linecap:square;stroke-width:0.8;"/>
     </g>
     <g id="line2d_28">
      <g>
       <use style="stroke:#000000;stroke-width:0.8;" x="54" xlink:href="#me304bd5b04" y="39.637904"/>
      </g>
     </g>
     <g id="text_15">
      <!-- 60 -->
      <g transform="translate(34.275 43.437123)scale(0.1 -0.1)">
       <use xlink:href="#DejaVuSans-54"/>
       <use x="63.623047" xlink:href="#DejaVuSans-48"/>
      </g>
     </g>
    </g>
    <g id="text_16">
     <!-- Value -->
     <g transform="translate(19.815625 157.01125)rotate(-90)scale(0.1 -0.1)">
      <defs>
       <path d="M 28.609375 0 
L 0.78125 72.90625 
L 11.078125 72.90625 
L 34.1875 11.53125 
L 57.328125 72.90625 
L 67.578125 72.90625 
L 39.796875 0 
z
" id="DejaVuSans-86"/>
       <path d="M 34.28125 27.484375 
Q 23.390625 27.484375 19.1875 25 
Q 14.984375 22.515625 14.984375 16.5 
Q 14.984375 11.71875 18.140625 8.90625 
Q 21.296875 6.109375 26.703125 6.109375 
Q 34.1875 6.109375 38.703125 11.40625 
Q 43.21875 16.703125 43.21875 25.484375 
L 43.21875 27.484375 
z
M 52.203125 31.203125 
L 52.203125 0 
L 43.21875 0 
L 43.21875 8.296875 
Q 40.140625 3.328125 35.546875 0.953125 
Q 30.953125 -1.421875 24.3125 -1.421875 
Q 15.921875 -1.421875 10.953125 3.296875 
Q 6 8.015625 6 15.921875 
Q 6 25.140625 12.171875 29.828125 
Q 18.359375 34.515625 30.609375 34.515625 
L 43.21875 34.515625 
L 43.21875 35.40625 
Q 43.21875 41.609375 39.140625 45 
Q 35.0625 48.390625 27.6875 48.390625 
Q 23 48.390625 18.546875 47.265625 
Q 14.109375 46.140625 10.015625 43.890625 
L 10.015625 52.203125 
Q 14.9375 54.109375 19.578125 55.046875 
Q 24.21875 56 28.609375 56 
Q 40.484375 56 46.34375 49.84375 
Q 52.203125 43.703125 52.203125 31.203125 
z
" id="DejaVuSans-97"/>
       <path d="M 9.421875 75.984375 
L 18.40625 75.984375 
L 18.40625 0 
L 9.421875 0 
z
" id="DejaVuSans-108"/>
       <path d="M 8.5 21.578125 
L 8.5 54.6875 
L 17.484375 54.6875 
L 17.484375 21.921875 
Q 17.484375 14.15625 20.5 10.265625 
Q 23.53125 6.390625 29.59375 6.390625 
Q 36.859375 6.390625 41.078125 11.03125 
Q 45.3125 15.671875 45.3125 23.6875 
L 45.3125 54.6875 
L 54.296875 54.6875 
L 54.296875 0 
L 45.3125 0 
L 45.3125 8.40625 
Q 42.046875 3.421875 37.71875 1 
Q 33.40625 -1.421875 27.6875 -1.421875 
Q 18.265625 -1.421875 13.375 4.4375 
Q 8.5 10.296875 8.5 21.578125 
z
M 31.109375 56 
z
" id="DejaVuSans-117"/>
       <path d="M 56.203125 29.59375 
L 56.203125 25.203125 
L 14.890625 25.203125 
Q 15.484375 15.921875 20.484375 11.0625 
Q 25.484375 6.203125 34.421875 6.203125 
Q 39.59375 6.203125 44.453125 7.46875 
Q 49.3125 8.734375 54.109375 11.28125 
L 54.109375 2.78125 
Q 49.265625 0.734375 44.1875 -0.34375 
Q 39.109375 -1.421875 33.890625 -1.421875 
Q 20.796875 -1.421875 13.15625 6.1875 
Q 5.515625 13.8125 5.515625 26.8125 
Q 5.515625 40.234375 12.765625 48.109375 
Q 20.015625 56 32.328125 56 
Q 43.359375 56 49.78125 48.890625 
Q 56.203125 41.796875 56.203125 29.59375 
z
M 47.21875 32.234375 
Q 47.125 39.59375 43.09375 43.984375 
Q 39.0625 48.390625 32.421875 48.390625 
Q 24.90625 48.390625 20.390625 44.140625 
Q 15.875 39.890625 15.1875 32.171875 
z
" id="DejaVuSans-101"/>
      </defs>
      <use xlink:href="#DejaVuSans-86"/>
      <use x="60.658203" xlink:href="#DejaVuSans-97"/>
      <use x="121.9375" xlink:href="#DejaVuSans-108"/>
      <use x="149.720703" xlink:href="#DejaVuSans-117"/>
      <use x="213.099609" xlink:href="#DejaVuSans-101"/>
     </g>
    </g>
   </g>
   <g id="line2d_29">
    <path clip-path="url(#p5ce41ab998)" d="M 69.218182 235.885269 
L 69.637994 232.555551 
L 70.057806 232.39346 
L 70.477618 233.238926 
L 71.737053 241.058801 
L 72.156865 242.116364 
L 72.576677 240.752081 
L 72.996489 238.057092 
L 73.836113 234.64215 
L 74.255925 233.98548 
L 74.675737 231.928611 
L 75.095549 230.83344 
L 75.515361 231.131548 
L 76.354984 237.865363 
L 76.774796 239.824166 
L 77.194608 240.868266 
L 77.61442 237.75735 
L 78.873856 233.45222 
L 79.293668 232.188388 
L 79.71348 229.253737 
L 80.133292 227.334006 
L 80.553103 228.28834 
L 80.972915 231.212278 
L 81.812539 239.212223 
L 82.232351 239.714681 
L 83.071975 234.952017 
L 84.331411 230.265995 
L 85.171034 226.223707 
L 85.590846 228.009488 
L 86.010658 230.400019 
L 86.850282 237.907917 
L 87.689906 235.173363 
L 88.52953 231.486387 
L 88.949342 230.142214 
L 89.788966 226.005057 
L 90.208777 225.436444 
L 90.628589 226.342287 
L 91.048401 228.545281 
L 91.468213 232.839763 
L 91.888025 235.080892 
L 92.307837 236.534776 
L 92.727649 233.809375 
L 93.567273 229.787801 
L 93.987085 229.224116 
L 94.406897 227.435354 
L 94.826708 224.391661 
L 95.24652 222.879881 
L 95.666332 224.724261 
L 96.925768 235.171867 
L 97.34558 235.316753 
L 98.605016 228.070377 
L 99.024828 227.219861 
L 99.444639 225.702963 
L 99.864451 223.719307 
L 100.284263 222.841584 
L 100.704075 223.860665 
L 101.543699 230.479568 
L 101.963511 234.238787 
L 102.383323 233.623712 
L 103.222947 229.814714 
L 103.642759 228.319633 
L 104.062571 226.353428 
L 104.482382 225.458475 
L 104.902194 222.852863 
L 105.322006 223.302929 
L 105.741818 223.521583 
L 106.16163 225.195676 
L 106.581442 230.193258 
L 107.001254 232.015573 
L 107.421066 232.612836 
L 107.840878 229.322846 
L 108.26069 228.465155 
L 108.680502 225.72269 
L 109.520125 222.168377 
L 109.939937 219.462443 
L 110.359749 219.401895 
L 110.779561 220.079098 
L 111.199373 223.168016 
L 112.038997 230.533001 
L 112.458809 230.927582 
L 112.878621 227.30846 
L 113.718245 222.999504 
L 114.138056 222.357906 
L 114.557868 220.930322 
L 114.97768 218.198788 
L 115.397492 217.462846 
L 115.817304 219.666594 
L 117.07674 229.055664 
L 117.496552 228.449392 
L 118.336176 223.221472 
L 119.175799 220.884401 
L 119.595611 219.261072 
L 120.015423 217.012851 
L 120.435235 216.224561 
L 120.855047 216.875948 
L 121.274859 219.777515 
L 121.694671 224.01861 
L 122.114483 226.891748 
L 122.534295 226.626862 
L 122.954107 224.307846 
L 123.373918 221.122643 
L 123.79373 219.250081 
L 124.213542 218.185386 
L 125.053166 213.679968 
L 125.472978 212.749778 
L 125.89279 214.103752 
L 126.312602 216.26193 
L 126.732414 220.806946 
L 127.152226 222.892733 
L 127.572038 223.789538 
L 128.411661 218.918622 
L 130.090909 210.97479 
L 130.510721 211.306922 
L 130.930533 212.446871 
L 132.189969 221.458928 
L 132.609781 220.753151 
L 133.029592 219.013688 
L 133.869216 214.766552 
L 134.70884 212.813122 
L 135.128652 211.336544 
L 135.548464 209.281463 
L 135.968276 210.786333 
L 136.388088 213.251171 
L 137.227712 220.931245 
L 137.647524 219.798956 
L 138.487147 215.046382 
L 138.906959 213.307457 
L 139.326771 212.100508 
L 139.746583 211.248881 
L 140.166395 207.15669 
L 140.586207 207.72495 
L 141.006019 209.522285 
L 141.425831 212.041661 
L 141.845643 215.512863 
L 142.265455 217.838631 
L 142.685266 216.629084 
L 143.105078 213.759234 
L 145.62395 202.330614 
L 146.043762 203.726327 
L 146.463574 206.315593 
L 147.303197 212.933155 
L 147.723009 212.558509 
L 148.142821 210.663222 
L 148.562633 209.879439 
L 148.982445 207.957054 
L 149.402257 205.398378 
L 149.822069 203.933849 
L 150.241881 201.372255 
L 150.661693 201.344141 
L 151.501317 206.044152 
L 151.921129 210.335379 
L 152.34094 213.100893 
L 152.760752 212.355253 
L 154.020188 205.363849 
L 154.859812 203.003212 
L 155.279624 200.26204 
L 155.699436 199.543713 
L 156.119248 201.042945 
L 157.378683 210.772464 
L 157.798495 210.208322 
L 159.477743 201.270796 
L 159.897555 199.770937 
L 160.317367 197.500699 
L 160.737179 198.362297 
L 161.156991 199.590563 
L 161.576803 202.549524 
L 161.996614 207.262965 
L 162.416426 210.035347 
L 162.836238 209.129244 
L 163.675862 203.182153 
L 164.095674 201.900636 
L 164.515486 200.070848 
L 164.935298 196.514157 
L 165.35511 194.386846 
L 165.774922 193.628168 
L 166.194734 195.695511 
L 166.614545 198.895732 
L 167.034357 203.448769 
L 167.454169 204.987061 
L 167.873981 204.267531 
L 169.133417 197.026535 
L 169.553229 196.327486 
L 169.973041 192.857298 
L 170.812665 190.873848 
L 171.232476 192.19011 
L 172.491912 203.136656 
L 172.911724 201.63763 
L 173.751348 196.598646 
L 174.590972 193.127136 
L 175.010784 189.790961 
L 175.430596 189.489731 
L 175.850408 188.396242 
L 176.270219 189.839418 
L 177.529655 199.701391 
L 177.949467 198.191362 
L 179.208903 191.294983 
L 179.628715 189.647239 
L 180.048527 186.219074 
L 180.88815 183.92674 
L 181.307962 185.912856 
L 182.147586 193.172706 
L 182.567398 195.400621 
L 182.98721 194.295874 
L 183.826834 190.006457 
L 185.506082 181.680302 
L 185.925893 181.309644 
L 186.345705 183.278234 
L 187.185329 191.906768 
L 187.605141 193.744373 
L 188.024953 192.140219 
L 188.864577 186.672986 
L 190.543824 178.617495 
L 190.963636 178.280245 
L 191.80326 184.141609 
L 192.223072 189.078045 
L 192.642884 191.026073 
L 193.062696 190.020055 
L 193.482508 186.675528 
L 193.90232 185.096251 
L 194.322132 182.681976 
L 194.741944 181.291052 
L 195.161755 179.226371 
L 195.581567 175.645585 
L 196.001379 175.34407 
L 196.421191 176.985468 
L 197.680627 187.131451 
L 198.100439 185.59746 
L 198.940063 180.124006 
L 200.199498 175.206156 
L 200.61931 172.567591 
L 201.039122 172.247713 
L 201.458934 174.501026 
L 201.878746 177.702988 
L 202.298558 182.370673 
L 202.71837 184.887031 
L 203.138182 182.748634 
L 203.977806 177.097308 
L 204.397618 176.463559 
L 204.817429 173.29905 
L 205.237241 171.184598 
L 205.657053 169.856575 
L 206.076865 169.26153 
L 206.916489 175.297159 
L 207.336301 178.983469 
L 207.756113 181.395986 
L 208.175925 179.97949 
L 208.595737 176.850748 
L 209.015549 174.797161 
L 209.855172 172.153902 
L 210.274984 169.771829 
L 210.694796 166.583241 
L 211.114608 166.863158 
L 211.53442 168.479982 
L 211.954232 173.363644 
L 212.793856 177.936739 
L 213.213668 177.202227 
L 214.053292 171.484714 
L 214.473103 169.805004 
L 214.892915 169.267833 
L 215.732539 163.614161 
L 216.152351 163.245224 
L 216.572163 165.433866 
L 217.411787 172.974912 
L 217.831599 174.572255 
L 218.251411 172.91446 
L 218.671223 169.99519 
L 219.091034 167.876198 
L 219.510846 165.040218 
L 220.35047 161.201436 
L 220.770282 158.956619 
L 221.190094 159.206078 
L 221.609906 160.5347 
L 222.029718 163.983458 
L 222.44953 168.426021 
L 222.869342 169.517097 
L 223.289154 168.00801 
L 224.548589 160.665295 
L 224.968401 160.502755 
L 225.388213 157.37228 
L 225.808025 155.400647 
L 226.227837 155.850569 
L 226.647649 157.661615 
L 227.487273 165.852382 
L 227.907085 167.380278 
L 228.326897 165.568104 
L 229.16652 160.50567 
L 230.006144 156.138635 
L 230.425956 155.396068 
L 230.845768 153.248485 
L 231.26558 153.133632 
L 232.105204 159.257445 
L 232.525016 163.445904 
L 232.944828 164.738354 
L 233.364639 162.559427 
L 233.784451 159.501952 
L 234.624075 156.764768 
L 235.883511 149.029522 
L 236.303323 149.696363 
L 236.723135 152.946788 
L 237.562759 161.691068 
L 237.982571 163.038943 
L 238.402382 161.100232 
L 238.822194 157.952033 
L 239.661818 153.513499 
L 240.08163 152.403214 
L 240.501442 149.933069 
L 240.921254 148.405482 
L 241.341066 147.799122 
L 241.760878 150.962621 
L 242.600502 159.818254 
L 243.020313 161.561748 
L 243.440125 159.208548 
L 243.859937 157.515682 
L 244.279749 154.029672 
L 244.699561 152.945086 
L 245.119373 151.334601 
L 245.958997 147.570041 
L 246.378809 146.916335 
L 247.638245 158.014944 
L 248.058056 159.575568 
L 248.477868 157.526605 
L 249.317492 151.633431 
L 250.157116 148.249485 
L 250.576928 145.629042 
L 250.99674 143.938864 
L 251.416552 144.630198 
L 251.836364 147.242962 
L 252.675987 154.761403 
L 253.095799 155.810539 
L 253.515611 153.393602 
L 253.935423 150.273657 
L 254.775047 146.216037 
L 255.194859 144.368355 
L 256.034483 139.671605 
L 256.454295 140.395084 
L 256.874107 142.190743 
L 257.293918 147.300319 
L 257.71373 150.377348 
L 258.133542 151.411928 
L 258.553354 149.624534 
L 259.392978 144.215407 
L 259.81279 141.418051 
L 260.232602 139.512606 
L 260.652414 138.194801 
L 261.492038 136.741762 
L 261.91185 138.974942 
L 262.331661 142.586575 
L 262.751473 147.246987 
L 263.171285 148.367646 
L 263.591097 146.639043 
L 264.010909 143.390075 
L 264.430721 141.778114 
L 264.850533 139.521304 
L 265.270345 138.795312 
L 266.109969 133.555126 
L 266.529781 135.169729 
L 266.949592 137.57632 
L 267.369404 140.981381 
L 267.789216 145.71427 
L 268.209028 146.380656 
L 268.62884 143.484029 
L 269.048652 139.591304 
L 269.468464 137.041659 
L 269.888276 135.823241 
L 270.308088 133.639818 
L 270.7279 130.724805 
L 271.147712 128.596113 
L 271.567524 128.600418 
L 271.987335 130.682673 
L 272.407147 133.729231 
L 272.826959 138.302934 
L 273.246771 138.965157 
L 273.666583 136.978924 
L 274.506207 131.381324 
L 274.926019 129.52122 
L 275.345831 128.274777 
L 275.765643 126.000328 
L 276.185455 124.767757 
L 277.025078 127.358277 
L 277.44489 131.50337 
L 277.864702 136.755577 
L 278.284514 137.216 
L 279.54395 129.095093 
L 279.963762 128.165761 
L 280.383574 126.93304 
L 280.803386 123.8489 
L 281.223197 123.879386 
L 281.643009 123.609434 
L 282.062821 125.960014 
L 282.482633 130.143285 
L 282.902445 132.509844 
L 283.322257 133.564372 
L 285.001505 124.721288 
L 285.841129 120.959537 
L 286.26094 119.465315 
L 286.680752 120.12092 
L 287.100564 122.983944 
L 287.940188 130.184572 
L 288.36 130.820502 
L 289.199624 125.582193 
L 289.619436 122.569116 
L 290.45906 119.371067 
L 291.298683 115.827592 
L 291.718495 115.74928 
L 292.138307 117.984036 
L 292.558119 122.45203 
L 292.977931 125.190174 
L 293.397743 126.287463 
L 293.817555 123.726466 
L 294.237367 120.166046 
L 295.076991 116.137526 
L 295.496803 114.758726 
L 296.336426 110.158905 
L 296.756238 110.131932 
L 297.17605 112.676013 
L 297.595862 117.272552 
L 298.015674 120.452906 
L 298.435486 121.076619 
L 298.855298 118.75246 
L 299.27511 115.563868 
L 300.534545 110.089972 
L 300.954357 106.864806 
L 301.374169 105.858629 
L 301.793981 106.872531 
L 302.213793 111.245342 
L 303.053417 117.9601 
L 303.473229 118.73367 
L 304.312853 112.533284 
L 304.732665 110.721358 
L 305.9921 103.01408 
L 306.411912 102.112222 
L 306.831724 102.416958 
L 307.251536 104.795731 
L 308.09116 113.088663 
L 308.510972 113.600126 
L 308.930784 111.024506 
L 309.770408 104.757626 
L 310.190219 102.92781 
L 310.610031 102.12242 
L 311.029843 98.697497 
L 311.449655 96.74368 
L 311.869467 98.547276 
L 312.289279 101.35615 
L 313.128903 109.007795 
L 313.548715 109.183187 
L 313.968527 107.267446 
L 314.80815 101.618176 
L 315.227962 99.640511 
L 315.647774 98.26977 
L 316.067586 94.80896 
L 316.487398 93.556623 
L 316.90721 94.837043 
L 317.327022 96.996824 
L 317.746834 102.501839 
L 318.166646 104.835715 
L 318.586458 105.254961 
L 319.426082 99.891288 
L 319.845893 96.317859 
L 320.265705 95.522901 
L 320.685517 95.064133 
L 321.105329 93.334071 
L 321.525141 90.031587 
L 321.944953 91.219728 
L 322.364765 93.623965 
L 322.784577 98.301091 
L 323.204389 100.494234 
L 323.624201 101.258189 
L 324.463824 96.460363 
L 324.883636 93.453193 
L 325.303448 92.360357 
L 325.72326 89.809943 
L 326.562884 86.84492 
L 326.982696 87.720158 
L 327.402508 90.472434 
L 328.242132 97.275201 
L 328.661944 98.362725 
L 331.180815 82.46084 
L 331.600627 80.999748 
L 332.020439 82.342218 
L 333.279875 93.058356 
L 333.699687 92.971829 
L 334.119498 89.96371 
L 334.53931 87.879339 
L 334.959122 84.63047 
L 335.798746 81.979349 
L 336.218558 80.76634 
L 336.63837 78.740963 
L 337.058182 79.362762 
L 337.477994 81.564984 
L 337.897806 86.261735 
L 338.317618 88.798115 
L 338.737429 89.121489 
L 339.157241 86.897642 
L 339.996865 81.061041 
L 340.416677 79.367941 
L 340.836489 78.465458 
L 341.256301 75.037134 
L 341.676113 73.410641 
L 342.095925 75.365512 
L 342.515737 77.927583 
L 342.935549 81.889164 
L 343.355361 84.622174 
L 343.775172 85.138472 
L 344.614796 78.530268 
L 345.45442 73.594281 
L 346.294044 70.478636 
L 346.713856 67.488394 
L 347.133668 69.474368 
L 347.55348 72.145671 
L 348.393103 80.006156 
L 348.812915 79.768047 
L 350.072351 71.372153 
L 350.492163 71.058352 
L 351.331787 64.322084 
L 351.751599 63.472928 
L 352.171411 64.251772 
L 353.430846 76.167746 
L 353.850658 75.121158 
L 354.27047 72.612359 
L 354.690282 69.394875 
L 355.110094 67.078345 
L 355.529906 66.503791 
L 355.949718 64.102871 
L 356.36953 60.592838 
L 356.789342 59.011647 
L 357.209154 61.211746 
L 357.628966 64.172312 
L 358.048777 68.871851 
L 358.468589 71.737521 
L 358.888401 70.528408 
L 359.728025 63.341953 
L 360.147837 61.987626 
L 360.567649 58.808623 
L 360.987461 57.363623 
L 361.407273 52.234939 
L 361.827085 51.434378 
L 362.246897 53.204703 
L 363.08652 62.352426 
L 363.506332 64.80718 
L 363.926144 63.946049 
L 364.345956 59.935572 
L 364.765768 58.159199 
L 365.18558 54.684273 
L 365.605392 54.038547 
L 366.025204 52.592466 
L 366.445016 48.94432 
L 366.864828 47.545559 
L 367.284639 49.130509 
L 368.544075 60.185473 
L 368.963887 59.763873 
L 370.223323 51.026326 
L 370.643135 50.336927 
L 371.482759 46.487343 
L 371.902571 44.443636 
L 372.322382 45.356632 
L 373.162006 52.998759 
L 373.581818 55.884936 
L 373.581818 55.884936 
" style="fill:none;stroke:#1f77b4;stroke-linecap:square;stroke-width:1.5;"/>
   </g>
   <g id="patch_3">
    <path d="M 54 252 
L 54 34.56 
" style="fill:none;stroke:#000000;stroke-linecap:square;stroke-linejoin:miter;stroke-width:0.8;"/>
   </g>
   <g id="patch_4">
    <path d="M 388.8 252 
L 388.8 34.56 
" style="fill:none;stroke:#000000;stroke-linecap:square;stroke-linejoin:miter;stroke-width:0.8;"/>
   </g>
   <g id="patch_5">
    <path d="M 54 252 
L 388.8 252 
" style="fill:none;stroke:#000000;stroke-linecap:square;stroke-linejoin:miter;stroke-width:0.8;"/>
   </g>
   <g id="patch_6">
    <path d="M 54 34.56 
L 388.8 34.56 
" style="fill:none;stroke:#000000;stroke-linecap:square;stroke-linejoin:miter;stroke-width:0.8;"/>
   </g>
  </g>
 </g>
 <defs>
  <clipPath id="p5ce41ab998">
   <rect height="217.44" width="334.8" x="54" y="34.56"/>
  </clipPath>
 </defs>
</svg>
