<?xml version="1.0" encoding="utf-8" standalone="no"?>
<!DOCTYPE svg PUBLIC "-//W3C//DTD SVG 1.1//EN"
  "http://www.w3.org/Graphics/SVG/1.1/DTD/svg11.dtd">
<!-- Created with matplotlib (https://matplotlib.org/) -->
<svg height="288pt" version="1.1" viewBox="0 0 432 288" width="432pt" xmlns="http://www.w3.org/2000/svg" xmlns:xlink="http://www.w3.org/1999/xlink">
 <metadata>
  <rdf:RDF xmlns:cc="http://creativecommons.org/ns#" xmlns:dc="http://purl.org/dc/elements/1.1/" xmlns:rdf="http://www.w3.org/1999/02/22-rdf-syntax-ns#">
   <cc:Work>
    <dc:type rdf:resource="http://purl.org/dc/dcmitype/StillImage"/>
    <dc:date>2021-07-09T20:04:10.389318</dc:date>
    <dc:format>image/svg+xml</dc:format>
    <dc:creator>
     <cc:Agent>
      <dc:title>Matplotlib v3.3.2, https://matplotlib.org/</dc:title>
     </cc:Agent>
    </dc:creator>
   </cc:Work>
  </rdf:RDF>
 </metadata>
 <defs>
  <style type="text/css">*{stroke-linecap:butt;stroke-linejoin:round;}</style>
 </defs>
 <g id="figure_1">
  <g id="patch_1">
   <path d="M 0 288 
L 432 288 
L 432 0 
L 0 0 
z
" style="fill:none;"/>
  </g>
  <g id="axes_1">
   <g id="patch_2">
    <path d="M 54 252 
L 388.8 252 
L 388.8 34.56 
L 54 34.56 
z
" style="fill:#ffffff;"/>
   </g>
   <g id="matplotlib.axis_1">
    <g id="xtick_1">
     <g id="line2d_1">
      <path clip-path="url(#p96146627b1)" d="M 78.233382 252 
L 78.233382 34.56 
" style="fill:none;stroke:#b0b0b0;stroke-linecap:square;stroke-width:0.8;"/>
     </g>
     <g id="line2d_2">
      <defs>
       <path d="M 0 0 
L 0 3.5 
" id="m106772496b" style="stroke:#000000;stroke-width:0.8;"/>
      </defs>
      <g>
       <use style="stroke:#000000;stroke-width:0.8;" x="78.233382" xlink:href="#m106772496b" y="252"/>
      </g>
     </g>
     <g id="text_1">
      <!-- 1960 -->
      <g transform="translate(65.508382 266.598437)scale(0.1 -0.1)">
       <defs>
        <path d="M 12.40625 8.296875 
L 28.515625 8.296875 
L 28.515625 63.921875 
L 10.984375 60.40625 
L 10.984375 69.390625 
L 28.421875 72.90625 
L 38.28125 72.90625 
L 38.28125 8.296875 
L 54.390625 8.296875 
L 54.390625 0 
L 12.40625 0 
z
" id="DejaVuSans-49"/>
        <path d="M 10.984375 1.515625 
L 10.984375 10.5 
Q 14.703125 8.734375 18.5 7.8125 
Q 22.3125 6.890625 25.984375 6.890625 
Q 35.75 6.890625 40.890625 13.453125 
Q 46.046875 20.015625 46.78125 33.40625 
Q 43.953125 29.203125 39.59375 26.953125 
Q 35.25 24.703125 29.984375 24.703125 
Q 19.046875 24.703125 12.671875 31.3125 
Q 6.296875 37.9375 6.296875 49.421875 
Q 6.296875 60.640625 12.9375 67.421875 
Q 19.578125 74.21875 30.609375 74.21875 
Q 43.265625 74.21875 49.921875 64.515625 
Q 56.59375 54.828125 56.59375 36.375 
Q 56.59375 19.140625 48.40625 8.859375 
Q 40.234375 -1.421875 26.421875 -1.421875 
Q 22.703125 -1.421875 18.890625 -0.6875 
Q 15.09375 0.046875 10.984375 1.515625 
z
M 30.609375 32.421875 
Q 37.25 32.421875 41.125 36.953125 
Q 45.015625 41.5 45.015625 49.421875 
Q 45.015625 57.28125 41.125 61.84375 
Q 37.25 66.40625 30.609375 66.40625 
Q 23.96875 66.40625 20.09375 61.84375 
Q 16.21875 57.28125 16.21875 49.421875 
Q 16.21875 41.5 20.09375 36.953125 
Q 23.96875 32.421875 30.609375 32.421875 
z
" id="DejaVuSans-57"/>
        <path d="M 33.015625 40.375 
Q 26.375 40.375 22.484375 35.828125 
Q 18.609375 31.296875 18.609375 23.390625 
Q 18.609375 15.53125 22.484375 10.953125 
Q 26.375 6.390625 33.015625 6.390625 
Q 39.65625 6.390625 43.53125 10.953125 
Q 47.40625 15.53125 47.40625 23.390625 
Q 47.40625 31.296875 43.53125 35.828125 
Q 39.65625 40.375 33.015625 40.375 
z
M 52.59375 71.296875 
L 52.59375 62.3125 
Q 48.875 64.0625 45.09375 64.984375 
Q 41.3125 65.921875 37.59375 65.921875 
Q 27.828125 65.921875 22.671875 59.328125 
Q 17.53125 52.734375 16.796875 39.40625 
Q 19.671875 43.65625 24.015625 45.921875 
Q 28.375 48.1875 33.59375 48.1875 
Q 44.578125 48.1875 50.953125 41.515625 
Q 57.328125 34.859375 57.328125 23.390625 
Q 57.328125 12.15625 50.6875 5.359375 
Q 44.046875 -1.421875 33.015625 -1.421875 
Q 20.359375 -1.421875 13.671875 8.265625 
Q 6.984375 17.96875 6.984375 36.375 
Q 6.984375 53.65625 15.1875 63.9375 
Q 23.390625 74.21875 37.203125 74.21875 
Q 40.921875 74.21875 44.703125 73.484375 
Q 48.484375 72.75 52.59375 71.296875 
z
" id="DejaVuSans-54"/>
        <path d="M 31.78125 66.40625 
Q 24.171875 66.40625 20.328125 58.90625 
Q 16.5 51.421875 16.5 36.375 
Q 16.5 21.390625 20.328125 13.890625 
Q 24.171875 6.390625 31.78125 6.390625 
Q 39.453125 6.390625 43.28125 13.890625 
Q 47.125 21.390625 47.125 36.375 
Q 47.125 51.421875 43.28125 58.90625 
Q 39.453125 66.40625 31.78125 66.40625 
z
M 31.78125 74.21875 
Q 44.046875 74.21875 50.515625 64.515625 
Q 56.984375 54.828125 56.984375 36.375 
Q 56.984375 17.96875 50.515625 8.265625 
Q 44.046875 -1.421875 31.78125 -1.421875 
Q 19.53125 -1.421875 13.0625 8.265625 
Q 6.59375 17.96875 6.59375 36.375 
Q 6.59375 54.828125 13.0625 64.515625 
Q 19.53125 74.21875 31.78125 74.21875 
z
" id="DejaVuSans-48"/>
       </defs>
       <use xlink:href="#DejaVuSans-49"/>
       <use x="63.623047" xlink:href="#DejaVuSans-57"/>
       <use x="127.246094" xlink:href="#DejaVuSans-54"/>
       <use x="190.869141" xlink:href="#DejaVuSans-48"/>
      </g>
     </g>
    </g>
    <g id="xtick_2">
     <g id="line2d_3">
      <path clip-path="url(#p96146627b1)" d="M 128.541421 252 
L 128.541421 34.56 
" style="fill:none;stroke:#b0b0b0;stroke-linecap:square;stroke-width:0.8;"/>
     </g>
     <g id="line2d_4">
      <g>
       <use style="stroke:#000000;stroke-width:0.8;" x="128.541421" xlink:href="#m106772496b" y="252"/>
      </g>
     </g>
     <g id="text_2">
      <!-- 1970 -->
      <g transform="translate(115.816421 266.598437)scale(0.1 -0.1)">
       <defs>
        <path d="M 8.203125 72.90625 
L 55.078125 72.90625 
L 55.078125 68.703125 
L 28.609375 0 
L 18.3125 0 
L 43.21875 64.59375 
L 8.203125 64.59375 
z
" id="DejaVuSans-55"/>
       </defs>
       <use xlink:href="#DejaVuSans-49"/>
       <use x="63.623047" xlink:href="#DejaVuSans-57"/>
       <use x="127.246094" xlink:href="#DejaVuSans-55"/>
       <use x="190.869141" xlink:href="#DejaVuSans-48"/>
      </g>
     </g>
    </g>
    <g id="xtick_3">
     <g id="line2d_5">
      <path clip-path="url(#p96146627b1)" d="M 178.849461 252 
L 178.849461 34.56 
" style="fill:none;stroke:#b0b0b0;stroke-linecap:square;stroke-width:0.8;"/>
     </g>
     <g id="line2d_6">
      <g>
       <use style="stroke:#000000;stroke-width:0.8;" x="178.849461" xlink:href="#m106772496b" y="252"/>
      </g>
     </g>
     <g id="text_3">
      <!-- 1980 -->
      <g transform="translate(166.124461 266.598437)scale(0.1 -0.1)">
       <defs>
        <path d="M 31.78125 34.625 
Q 24.75 34.625 20.71875 30.859375 
Q 16.703125 27.09375 16.703125 20.515625 
Q 16.703125 13.921875 20.71875 10.15625 
Q 24.75 6.390625 31.78125 6.390625 
Q 38.8125 6.390625 42.859375 10.171875 
Q 46.921875 13.96875 46.921875 20.515625 
Q 46.921875 27.09375 42.890625 30.859375 
Q 38.875 34.625 31.78125 34.625 
z
M 21.921875 38.8125 
Q 15.578125 40.375 12.03125 44.71875 
Q 8.5 49.078125 8.5 55.328125 
Q 8.5 64.0625 14.71875 69.140625 
Q 20.953125 74.21875 31.78125 74.21875 
Q 42.671875 74.21875 48.875 69.140625 
Q 55.078125 64.0625 55.078125 55.328125 
Q 55.078125 49.078125 51.53125 44.71875 
Q 48 40.375 41.703125 38.8125 
Q 48.828125 37.15625 52.796875 32.3125 
Q 56.78125 27.484375 56.78125 20.515625 
Q 56.78125 9.90625 50.3125 4.234375 
Q 43.84375 -1.421875 31.78125 -1.421875 
Q 19.734375 -1.421875 13.25 4.234375 
Q 6.78125 9.90625 6.78125 20.515625 
Q 6.78125 27.484375 10.78125 32.3125 
Q 14.796875 37.15625 21.921875 38.8125 
z
M 18.3125 54.390625 
Q 18.3125 48.734375 21.84375 45.5625 
Q 25.390625 42.390625 31.78125 42.390625 
Q 38.140625 42.390625 41.71875 45.5625 
Q 45.3125 48.734375 45.3125 54.390625 
Q 45.3125 60.0625 41.71875 63.234375 
Q 38.140625 66.40625 31.78125 66.40625 
Q 25.390625 66.40625 21.84375 63.234375 
Q 18.3125 60.0625 18.3125 54.390625 
z
" id="DejaVuSans-56"/>
       </defs>
       <use xlink:href="#DejaVuSans-49"/>
       <use x="63.623047" xlink:href="#DejaVuSans-57"/>
       <use x="127.246094" xlink:href="#DejaVuSans-56"/>
       <use x="190.869141" xlink:href="#DejaVuSans-48"/>
      </g>
     </g>
    </g>
    <g id="xtick_4">
     <g id="line2d_7">
      <path clip-path="url(#p96146627b1)" d="M 229.1575 252 
L 229.1575 34.56 
" style="fill:none;stroke:#b0b0b0;stroke-linecap:square;stroke-width:0.8;"/>
     </g>
     <g id="line2d_8">
      <g>
       <use style="stroke:#000000;stroke-width:0.8;" x="229.1575" xlink:href="#m106772496b" y="252"/>
      </g>
     </g>
     <g id="text_4">
      <!-- 1990 -->
      <g transform="translate(216.4325 266.598437)scale(0.1 -0.1)">
       <use xlink:href="#DejaVuSans-49"/>
       <use x="63.623047" xlink:href="#DejaVuSans-57"/>
       <use x="127.246094" xlink:href="#DejaVuSans-57"/>
       <use x="190.869141" xlink:href="#DejaVuSans-48"/>
      </g>
     </g>
    </g>
    <g id="xtick_5">
     <g id="line2d_9">
      <path clip-path="url(#p96146627b1)" d="M 279.465539 252 
L 279.465539 34.56 
" style="fill:none;stroke:#b0b0b0;stroke-linecap:square;stroke-width:0.8;"/>
     </g>
     <g id="line2d_10">
      <g>
       <use style="stroke:#000000;stroke-width:0.8;" x="279.465539" xlink:href="#m106772496b" y="252"/>
      </g>
     </g>
     <g id="text_5">
      <!-- 2000 -->
      <g transform="translate(266.740539 266.598437)scale(0.1 -0.1)">
       <defs>
        <path d="M 19.1875 8.296875 
L 53.609375 8.296875 
L 53.609375 0 
L 7.328125 0 
L 7.328125 8.296875 
Q 12.9375 14.109375 22.625 23.890625 
Q 32.328125 33.6875 34.8125 36.53125 
Q 39.546875 41.84375 41.421875 45.53125 
Q 43.3125 49.21875 43.3125 52.78125 
Q 43.3125 58.59375 39.234375 62.25 
Q 35.15625 65.921875 28.609375 65.921875 
Q 23.96875 65.921875 18.8125 64.3125 
Q 13.671875 62.703125 7.8125 59.421875 
L 7.8125 69.390625 
Q 13.765625 71.78125 18.9375 73 
Q 24.125 74.21875 28.421875 74.21875 
Q 39.75 74.21875 46.484375 68.546875 
Q 53.21875 62.890625 53.21875 53.421875 
Q 53.21875 48.921875 51.53125 44.890625 
Q 49.859375 40.875 45.40625 35.40625 
Q 44.1875 33.984375 37.640625 27.21875 
Q 31.109375 20.453125 19.1875 8.296875 
z
" id="DejaVuSans-50"/>
       </defs>
       <use xlink:href="#DejaVuSans-50"/>
       <use x="63.623047" xlink:href="#DejaVuSans-48"/>
       <use x="127.246094" xlink:href="#DejaVuSans-48"/>
       <use x="190.869141" xlink:href="#DejaVuSans-48"/>
      </g>
     </g>
    </g>
    <g id="xtick_6">
     <g id="line2d_11">
      <path clip-path="url(#p96146627b1)" d="M 329.773578 252 
L 329.773578 34.56 
" style="fill:none;stroke:#b0b0b0;stroke-linecap:square;stroke-width:0.8;"/>
     </g>
     <g id="line2d_12">
      <g>
       <use style="stroke:#000000;stroke-width:0.8;" x="329.773578" xlink:href="#m106772496b" y="252"/>
      </g>
     </g>
     <g id="text_6">
      <!-- 2010 -->
      <g transform="translate(317.048578 266.598437)scale(0.1 -0.1)">
       <use xlink:href="#DejaVuSans-50"/>
       <use x="63.623047" xlink:href="#DejaVuSans-48"/>
       <use x="127.246094" xlink:href="#DejaVuSans-49"/>
       <use x="190.869141" xlink:href="#DejaVuSans-48"/>
      </g>
     </g>
    </g>
    <g id="xtick_7">
     <g id="line2d_13">
      <path clip-path="url(#p96146627b1)" d="M 380.081617 252 
L 380.081617 34.56 
" style="fill:none;stroke:#b0b0b0;stroke-linecap:square;stroke-width:0.8;"/>
     </g>
     <g id="line2d_14">
      <g>
       <use style="stroke:#000000;stroke-width:0.8;" x="380.081617" xlink:href="#m106772496b" y="252"/>
      </g>
     </g>
     <g id="text_7">
      <!-- 2020 -->
      <g transform="translate(367.356617 266.598437)scale(0.1 -0.1)">
       <use xlink:href="#DejaVuSans-50"/>
       <use x="63.623047" xlink:href="#DejaVuSans-48"/>
       <use x="127.246094" xlink:href="#DejaVuSans-50"/>
       <use x="190.869141" xlink:href="#DejaVuSans-48"/>
      </g>
     </g>
    </g>
    <g id="text_8">
     <!-- Year -->
     <g transform="translate(210.8125 280.276563)scale(0.1 -0.1)">
      <defs>
       <path d="M -0.203125 72.90625 
L 10.40625 72.90625 
L 30.609375 42.921875 
L 50.6875 72.90625 
L 61.28125 72.90625 
L 35.5 34.71875 
L 35.5 0 
L 25.59375 0 
L 25.59375 34.71875 
z
" id="DejaVuSans-89"/>
       <path d="M 56.203125 29.59375 
L 56.203125 25.203125 
L 14.890625 25.203125 
Q 15.484375 15.921875 20.484375 11.0625 
Q 25.484375 6.203125 34.421875 6.203125 
Q 39.59375 6.203125 44.453125 7.46875 
Q 49.3125 8.734375 54.109375 11.28125 
L 54.109375 2.78125 
Q 49.265625 0.734375 44.1875 -0.34375 
Q 39.109375 -1.421875 33.890625 -1.421875 
Q 20.796875 -1.421875 13.15625 6.1875 
Q 5.515625 13.8125 5.515625 26.8125 
Q 5.515625 40.234375 12.765625 48.109375 
Q 20.015625 56 32.328125 56 
Q 43.359375 56 49.78125 48.890625 
Q 56.203125 41.796875 56.203125 29.59375 
z
M 47.21875 32.234375 
Q 47.125 39.59375 43.09375 43.984375 
Q 39.0625 48.390625 32.421875 48.390625 
Q 24.90625 48.390625 20.390625 44.140625 
Q 15.875 39.890625 15.1875 32.171875 
z
" id="DejaVuSans-101"/>
       <path d="M 34.28125 27.484375 
Q 23.390625 27.484375 19.1875 25 
Q 14.984375 22.515625 14.984375 16.5 
Q 14.984375 11.71875 18.140625 8.90625 
Q 21.296875 6.109375 26.703125 6.109375 
Q 34.1875 6.109375 38.703125 11.40625 
Q 43.21875 16.703125 43.21875 25.484375 
L 43.21875 27.484375 
z
M 52.203125 31.203125 
L 52.203125 0 
L 43.21875 0 
L 43.21875 8.296875 
Q 40.140625 3.328125 35.546875 0.953125 
Q 30.953125 -1.421875 24.3125 -1.421875 
Q 15.921875 -1.421875 10.953125 3.296875 
Q 6 8.015625 6 15.921875 
Q 6 25.140625 12.171875 29.828125 
Q 18.359375 34.515625 30.609375 34.515625 
L 43.21875 34.515625 
L 43.21875 35.40625 
Q 43.21875 41.609375 39.140625 45 
Q 35.0625 48.390625 27.6875 48.390625 
Q 23 48.390625 18.546875 47.265625 
Q 14.109375 46.140625 10.015625 43.890625 
L 10.015625 52.203125 
Q 14.9375 54.109375 19.578125 55.046875 
Q 24.21875 56 28.609375 56 
Q 40.484375 56 46.34375 49.84375 
Q 52.203125 43.703125 52.203125 31.203125 
z
" id="DejaVuSans-97"/>
       <path d="M 41.109375 46.296875 
Q 39.59375 47.171875 37.8125 47.578125 
Q 36.03125 48 33.890625 48 
Q 26.265625 48 22.1875 43.046875 
Q 18.109375 38.09375 18.109375 28.8125 
L 18.109375 0 
L 9.078125 0 
L 9.078125 54.6875 
L 18.109375 54.6875 
L 18.109375 46.1875 
Q 20.953125 51.171875 25.484375 53.578125 
Q 30.03125 56 36.53125 56 
Q 37.453125 56 38.578125 55.875 
Q 39.703125 55.765625 41.0625 55.515625 
z
" id="DejaVuSans-114"/>
      </defs>
      <use xlink:href="#DejaVuSans-89"/>
      <use x="47.833984" xlink:href="#DejaVuSans-101"/>
      <use x="109.357422" xlink:href="#DejaVuSans-97"/>
      <use x="170.636719" xlink:href="#DejaVuSans-114"/>
     </g>
    </g>
   </g>
   <g id="matplotlib.axis_2">
    <g id="ytick_1">
     <g id="line2d_15">
      <path clip-path="url(#p96146627b1)" d="M 54 227.398187 
L 388.8 227.398187 
" style="fill:none;stroke:#b0b0b0;stroke-linecap:square;stroke-width:0.8;"/>
     </g>
     <g id="line2d_16">
      <defs>
       <path d="M 0 0 
L -3.5 0 
" id="m7433bed497" style="stroke:#000000;stroke-width:0.8;"/>
      </defs>
      <g>
       <use style="stroke:#000000;stroke-width:0.8;" x="54" xlink:href="#m7433bed497" y="227.398187"/>
      </g>
     </g>
     <g id="text_9">
      <!-- 320 -->
      <g transform="translate(27.9125 231.197406)scale(0.1 -0.1)">
       <defs>
        <path d="M 40.578125 39.3125 
Q 47.65625 37.796875 51.625 33 
Q 55.609375 28.21875 55.609375 21.1875 
Q 55.609375 10.40625 48.1875 4.484375 
Q 40.765625 -1.421875 27.09375 -1.421875 
Q 22.515625 -1.421875 17.65625 -0.515625 
Q 12.796875 0.390625 7.625 2.203125 
L 7.625 11.71875 
Q 11.71875 9.328125 16.59375 8.109375 
Q 21.484375 6.890625 26.8125 6.890625 
Q 36.078125 6.890625 40.9375 10.546875 
Q 45.796875 14.203125 45.796875 21.1875 
Q 45.796875 27.640625 41.28125 31.265625 
Q 36.765625 34.90625 28.71875 34.90625 
L 20.21875 34.90625 
L 20.21875 43.015625 
L 29.109375 43.015625 
Q 36.375 43.015625 40.234375 45.921875 
Q 44.09375 48.828125 44.09375 54.296875 
Q 44.09375 59.90625 40.109375 62.90625 
Q 36.140625 65.921875 28.71875 65.921875 
Q 24.65625 65.921875 20.015625 65.03125 
Q 15.375 64.15625 9.8125 62.3125 
L 9.8125 71.09375 
Q 15.4375 72.65625 20.34375 73.4375 
Q 25.25 74.21875 29.59375 74.21875 
Q 40.828125 74.21875 47.359375 69.109375 
Q 53.90625 64.015625 53.90625 55.328125 
Q 53.90625 49.265625 50.4375 45.09375 
Q 46.96875 40.921875 40.578125 39.3125 
z
" id="DejaVuSans-51"/>
       </defs>
       <use xlink:href="#DejaVuSans-51"/>
       <use x="63.623047" xlink:href="#DejaVuSans-50"/>
       <use x="127.246094" xlink:href="#DejaVuSans-48"/>
      </g>
     </g>
    </g>
    <g id="ytick_2">
     <g id="line2d_17">
      <path clip-path="url(#p96146627b1)" d="M 54 187.294165 
L 388.8 187.294165 
" style="fill:none;stroke:#b0b0b0;stroke-linecap:square;stroke-width:0.8;"/>
     </g>
     <g id="line2d_18">
      <g>
       <use style="stroke:#000000;stroke-width:0.8;" x="54" xlink:href="#m7433bed497" y="187.294165"/>
      </g>
     </g>
     <g id="text_10">
      <!-- 340 -->
      <g transform="translate(27.9125 191.093384)scale(0.1 -0.1)">
       <defs>
        <path d="M 37.796875 64.3125 
L 12.890625 25.390625 
L 37.796875 25.390625 
z
M 35.203125 72.90625 
L 47.609375 72.90625 
L 47.609375 25.390625 
L 58.015625 25.390625 
L 58.015625 17.1875 
L 47.609375 17.1875 
L 47.609375 0 
L 37.796875 0 
L 37.796875 17.1875 
L 4.890625 17.1875 
L 4.890625 26.703125 
z
" id="DejaVuSans-52"/>
       </defs>
       <use xlink:href="#DejaVuSans-51"/>
       <use x="63.623047" xlink:href="#DejaVuSans-52"/>
       <use x="127.246094" xlink:href="#DejaVuSans-48"/>
      </g>
     </g>
    </g>
    <g id="ytick_3">
     <g id="line2d_19">
      <path clip-path="url(#p96146627b1)" d="M 54 147.190142 
L 388.8 147.190142 
" style="fill:none;stroke:#b0b0b0;stroke-linecap:square;stroke-width:0.8;"/>
     </g>
     <g id="line2d_20">
      <g>
       <use style="stroke:#000000;stroke-width:0.8;" x="54" xlink:href="#m7433bed497" y="147.190142"/>
      </g>
     </g>
     <g id="text_11">
      <!-- 360 -->
      <g transform="translate(27.9125 150.989361)scale(0.1 -0.1)">
       <use xlink:href="#DejaVuSans-51"/>
       <use x="63.623047" xlink:href="#DejaVuSans-54"/>
       <use x="127.246094" xlink:href="#DejaVuSans-48"/>
      </g>
     </g>
    </g>
    <g id="ytick_4">
     <g id="line2d_21">
      <path clip-path="url(#p96146627b1)" d="M 54 107.08612 
L 388.8 107.08612 
" style="fill:none;stroke:#b0b0b0;stroke-linecap:square;stroke-width:0.8;"/>
     </g>
     <g id="line2d_22">
      <g>
       <use style="stroke:#000000;stroke-width:0.8;" x="54" xlink:href="#m7433bed497" y="107.08612"/>
      </g>
     </g>
     <g id="text_12">
      <!-- 380 -->
      <g transform="translate(27.9125 110.885338)scale(0.1 -0.1)">
       <use xlink:href="#DejaVuSans-51"/>
       <use x="63.623047" xlink:href="#DejaVuSans-56"/>
       <use x="127.246094" xlink:href="#DejaVuSans-48"/>
      </g>
     </g>
    </g>
    <g id="ytick_5">
     <g id="line2d_23">
      <path clip-path="url(#p96146627b1)" d="M 54 66.982097 
L 388.8 66.982097 
" style="fill:none;stroke:#b0b0b0;stroke-linecap:square;stroke-width:0.8;"/>
     </g>
     <g id="line2d_24">
      <g>
       <use style="stroke:#000000;stroke-width:0.8;" x="54" xlink:href="#m7433bed497" y="66.982097"/>
      </g>
     </g>
     <g id="text_13">
      <!-- 400 -->
      <g transform="translate(27.9125 70.781316)scale(0.1 -0.1)">
       <use xlink:href="#DejaVuSans-52"/>
       <use x="63.623047" xlink:href="#DejaVuSans-48"/>
       <use x="127.246094" xlink:href="#DejaVuSans-48"/>
      </g>
     </g>
    </g>
    <g id="text_14">
     <!-- CO2 -->
     <g transform="translate(21.832812 153.888594)rotate(-90)scale(0.1 -0.1)">
      <defs>
       <path d="M 64.40625 67.28125 
L 64.40625 56.890625 
Q 59.421875 61.53125 53.78125 63.8125 
Q 48.140625 66.109375 41.796875 66.109375 
Q 29.296875 66.109375 22.65625 58.46875 
Q 16.015625 50.828125 16.015625 36.375 
Q 16.015625 21.96875 22.65625 14.328125 
Q 29.296875 6.6875 41.796875 6.6875 
Q 48.140625 6.6875 53.78125 8.984375 
Q 59.421875 11.28125 64.40625 15.921875 
L 64.40625 5.609375 
Q 59.234375 2.09375 53.4375 0.328125 
Q 47.65625 -1.421875 41.21875 -1.421875 
Q 24.65625 -1.421875 15.125 8.703125 
Q 5.609375 18.84375 5.609375 36.375 
Q 5.609375 53.953125 15.125 64.078125 
Q 24.65625 74.21875 41.21875 74.21875 
Q 47.75 74.21875 53.53125 72.484375 
Q 59.328125 70.75 64.40625 67.28125 
z
" id="DejaVuSans-67"/>
       <path d="M 39.40625 66.21875 
Q 28.65625 66.21875 22.328125 58.203125 
Q 16.015625 50.203125 16.015625 36.375 
Q 16.015625 22.609375 22.328125 14.59375 
Q 28.65625 6.59375 39.40625 6.59375 
Q 50.140625 6.59375 56.421875 14.59375 
Q 62.703125 22.609375 62.703125 36.375 
Q 62.703125 50.203125 56.421875 58.203125 
Q 50.140625 66.21875 39.40625 66.21875 
z
M 39.40625 74.21875 
Q 54.734375 74.21875 63.90625 63.9375 
Q 73.09375 53.65625 73.09375 36.375 
Q 73.09375 19.140625 63.90625 8.859375 
Q 54.734375 -1.421875 39.40625 -1.421875 
Q 24.03125 -1.421875 14.8125 8.828125 
Q 5.609375 19.09375 5.609375 36.375 
Q 5.609375 53.65625 14.8125 63.9375 
Q 24.03125 74.21875 39.40625 74.21875 
z
" id="DejaVuSans-79"/>
      </defs>
      <use xlink:href="#DejaVuSans-67"/>
      <use x="69.824219" xlink:href="#DejaVuSans-79"/>
      <use x="148.535156" xlink:href="#DejaVuSans-50"/>
     </g>
    </g>
   </g>
   <g id="line2d_25">
    <path clip-path="url(#p96146627b1)" d="M 69.218182 236.0005 
L 69.640769 232.51145 
L 70.058326 232.41119 
L 70.475883 233.213271 
L 71.733584 241.033555 
L 72.156171 242.116364 
L 72.573728 240.772879 
L 72.991285 238.085909 
L 73.831429 234.657015 
L 74.248986 233.995299 
L 74.671573 231.970046 
L 75.08913 230.827081 
L 75.506687 231.107809 
L 76.346831 237.825233 
L 76.764388 239.750226 
L 77.186975 240.913243 
L 77.604532 237.825233 
L 78.862233 233.473947 
L 79.27979 232.250774 
L 79.702377 229.363284 
L 80.119934 227.338031 
L 80.537491 228.22032 
L 80.960078 231.047653 
L 81.795192 239.108562 
L 82.217779 239.770278 
L 83.052893 235.038004 
L 84.310594 230.325781 
L 85.150738 226.235171 
L 85.568295 227.859384 
L 85.990882 230.265625 
L 86.825995 237.825233 
L 87.66614 235.218472 
L 88.506284 231.528902 
L 88.923841 230.285677 
L 89.763985 226.134911 
L 90.181542 225.372934 
L 90.599098 226.295327 
L 91.021686 228.240372 
L 91.439243 232.61171 
L 91.856799 234.89764 
L 92.279387 236.582009 
L 93.1145 232.030202 
L 93.537088 229.924741 
L 93.954645 229.242972 
L 94.372201 227.678916 
L 94.794789 224.610958 
L 95.212346 222.886485 
L 95.629902 224.450542 
L 96.887603 234.9979 
L 97.310191 235.439044 
L 98.567892 228.260424 
L 98.985449 227.257823 
L 99.403005 225.934391 
L 99.825593 223.848981 
L 100.24315 222.886485 
L 100.660706 223.608357 
L 101.50085 230.004949 
L 101.918407 234.015351 
L 102.340995 233.834883 
L 103.176108 229.984897 
L 103.598696 228.5211 
L 104.016252 226.515899 
L 104.433809 225.613558 
L 104.856397 223.127109 
L 105.273953 223.066953 
L 105.69151 223.648461 
L 106.114098 224.610958 
L 106.531654 229.784377 
L 106.949211 231.789578 
L 107.371799 232.81223 
L 107.789355 229.664065 
L 108.206912 228.561204 
L 109.047056 224.209918 
L 109.464613 222.605757 
L 109.887201 219.638059 
L 110.304757 219.357331 
L 110.722314 219.878683 
L 111.144902 222.605757 
L 111.980015 230.125261 
L 112.402603 231.208069 
L 113.237716 225.23257 
L 113.660304 223.247421 
L 114.495417 221.302376 
L 114.918005 218.535198 
L 115.335561 217.372182 
L 115.753118 219.196915 
L 117.010819 228.781776 
L 117.433406 228.781776 
L 118.26852 223.467993 
L 119.526221 219.597955 
L 119.948808 217.332078 
L 120.366365 216.229217 
L 120.783922 216.650309 
L 121.206509 219.096655 
L 122.041623 226.576055 
L 122.46421 226.896887 
L 122.881767 224.771374 
L 123.721911 219.377383 
L 124.139468 218.535198 
L 124.979612 214.043548 
L 125.397169 212.680011 
L 125.814726 213.843028 
L 126.237313 215.607605 
L 126.65487 220.039099 
L 127.072427 222.625809 
L 127.495014 223.828929 
L 130.010416 211.095902 
L 130.427973 211.216214 
L 130.84553 212.038347 
L 131.268117 214.66516 
L 132.103231 221.182064 
L 132.525818 221.061752 
L 132.943375 219.417487 
L 133.783519 215.026096 
L 135.04122 211.797723 
L 135.458777 209.511793 
L 135.876334 210.213614 
L 136.298921 212.680011 
L 137.134035 220.660712 
L 137.556622 220.239619 
L 138.391736 215.346929 
L 139.23188 212.098503 
L 139.649437 211.857879 
L 140.072024 207.907632 
L 140.489581 207.205812 
L 141.329725 211.256318 
L 142.164838 217.512546 
L 142.587426 217.25187 
L 143.004983 214.36438 
L 144.262684 208.228465 
L 144.68024 206.744616 
L 145.520385 202.373277 
L 145.937941 203.19541 
L 146.360529 205.601651 
L 147.195642 212.339127 
L 147.61823 213.000843 
L 148.035787 211.035746 
L 148.453343 210.07325 
L 148.875931 208.649557 
L 149.293488 205.922483 
L 149.711044 204.378478 
L 150.133632 202.032393 
L 150.551189 200.929532 
L 151.391333 205.200611 
L 152.226446 212.720115 
L 152.649034 212.800323 
L 153.484147 208.188361 
L 153.906735 205.882379 
L 154.324292 204.418582 
L 154.741848 203.536294 
L 155.164436 200.989688 
L 155.581992 199.445684 
L 155.999549 200.428232 
L 156.422137 203.375878 
L 156.839693 207.446436 
L 157.25725 210.353978 
L 157.679838 210.654758 
L 158.937539 204.157906 
L 159.355095 201.831873 
L 159.772652 200.287868 
L 160.19524 198.042043 
L 160.612796 197.781367 
L 161.452941 201.210261 
L 161.870497 205.982639 
L 162.288054 209.451637 
L 162.710642 209.852677 
L 163.968343 202.012341 
L 164.385899 201.069897 
L 164.803456 197.42043 
L 165.226044 195.054293 
L 165.6436 193.450132 
L 166.061157 194.974085 
L 166.483745 197.560795 
L 166.901301 202.212861 
L 167.318858 204.759467 
L 167.741446 204.799571 
L 168.999147 197.42043 
L 169.416703 196.81887 
L 169.83426 193.991537 
L 170.256847 191.926179 
L 170.674404 191.244411 
L 171.091961 191.284515 
L 171.932105 198.503239 
L 172.349662 202.593849 
L 172.772249 202.513641 
L 174.02995 195.034241 
L 174.447507 193.931381 
L 174.865064 190.763163 
L 175.287651 189.399626 
L 175.705208 188.878274 
L 176.122765 188.778014 
L 177.380466 199.365476 
L 177.803053 198.944383 
L 178.22061 196.698558 
L 178.638167 193.690756 
L 179.060754 191.505087 
L 179.478311 190.622799 
L 179.895868 187.274113 
L 180.318455 185.429328 
L 180.736012 184.326467 
L 181.153569 184.627247 
L 181.993713 191.906127 
L 182.41127 194.933981 
L 182.833857 195.014189 
L 184.926672 184.065791 
L 185.349259 182.221006 
L 185.766816 181.218405 
L 186.184373 182.200954 
L 186.60696 185.730108 
L 187.024517 190.422279 
L 187.442074 193.410028 
L 187.864661 193.149352 
L 188.699775 187.534789 
L 189.122362 185.369172 
L 189.539919 183.825167 
L 190.380063 179.333516 
L 190.79762 178.010084 
L 191.215177 179.694452 
L 191.637764 182.642098 
L 192.472878 190.743111 
L 192.895465 190.723059 
L 193.730579 185.489484 
L 194.153166 183.925427 
L 194.570723 181.479082 
L 194.988279 180.616845 
L 195.410867 176.766859 
L 195.828424 175.202802 
L 196.24598 176.004882 
L 196.668568 178.892372 
L 197.503681 186.592344 
L 197.926269 186.532188 
L 199.18397 179.07284 
L 200.019083 176.225455 
L 200.441671 173.578589 
L 200.859228 171.99448 
L 201.276784 173.317913 
L 201.699372 176.205403 
L 202.534485 184.486883 
L 202.957073 183.945479 
L 203.792186 177.869719 
L 204.214774 176.847067 
L 204.632331 174.942126 
L 205.049887 171.773908 
L 205.890032 169.127043 
L 206.307588 170.490579 
L 207.565289 180.737157 
L 207.987877 181.017885 
L 208.82299 175.503582 
L 210.080691 171.232504 
L 210.503279 167.70335 
L 210.920835 166.480177 
L 211.338392 167.382518 
L 212.178536 175.102542 
L 213.018681 178.250708 
L 214.276382 170.209851 
L 214.693938 169.788759 
L 215.111495 167.783558 
L 215.534083 164.61534 
L 215.951639 163.051283 
L 216.369196 164.174196 
L 216.791784 167.021581 
L 217.626897 174.220253 
L 218.049485 174.079889 
L 219.307186 166.460125 
L 219.724742 163.953624 
L 220.142299 162.409619 
L 220.564887 159.842961 
L 220.982443 158.800257 
L 221.4 159.782805 
L 221.822588 161.848162 
L 222.240144 166.440073 
L 222.657701 169.407771 
L 223.080289 168.986678 
L 223.915402 164.41482 
L 224.337989 161.407018 
L 224.755546 160.685146 
L 225.173103 159.301557 
L 225.59569 155.932819 
L 226.013247 155.491675 
L 226.430804 156.474223 
L 226.853391 159.241401 
L 227.688505 167.141893 
L 228.111092 166.740853 
L 229.78635 157.13594 
L 230.626494 154.569282 
L 231.044051 152.564081 
L 231.461608 154.529178 
L 232.301752 161.206498 
L 232.719309 164.61534 
L 233.141896 163.993728 
L 233.97701 158.559633 
L 234.399597 157.53698 
L 234.817154 155.752351 
L 235.657298 149.877112 
L 236.074855 148.934667 
L 236.492412 150.939868 
L 237.750113 162.730451 
L 238.1727 162.529931 
L 239.007814 156.975524 
L 239.847958 152.985173 
L 240.265515 151.481273 
L 240.688102 149.014875 
L 241.105659 148.012275 
L 241.523216 148.533627 
L 242.780917 161.306758 
L 243.203504 160.584886 
L 244.038618 156.073183 
L 244.461205 153.205746 
L 244.878762 152.584133 
L 245.296319 150.2581 
L 246.136463 146.809154 
L 246.55402 148.152639 
L 247.394164 155.932819 
L 247.811721 159.161193 
L 248.234308 158.980725 
L 249.492009 150.719296 
L 249.909566 149.355759 
L 250.74971 144.723745 
L 251.167267 143.88156 
L 251.584823 145.565929 
L 252.007411 148.433367 
L 252.842524 155.752351 
L 253.265112 155.070583 
L 254.100225 149.235447 
L 255.357926 143.520624 
L 255.780514 140.572978 
L 256.198071 139.79095 
L 256.615627 140.793551 
L 257.038215 143.901612 
L 257.455772 148.954719 
L 257.873328 150.85966 
L 258.295916 151.220596 
L 259.553617 143.039376 
L 260.38873 138.828453 
L 260.811318 138.026373 
L 261.228875 136.90346 
L 261.646431 137.324553 
L 262.069019 140.071678 
L 262.904132 148.112535 
L 263.32672 148.032327 
L 264.161833 142.698492 
L 265.001977 139.109182 
L 265.419534 138.146685 
L 265.842122 134.457115 
L 266.259678 133.875607 
L 267.099823 138.547725 
L 267.934936 146.608634 
L 268.357524 145.545877 
L 269.192637 138.407361 
L 270.032781 135.199039 
L 270.872926 129.8251 
L 271.290482 128.301148 
L 271.708039 129.163384 
L 272.130627 131.509469 
L 272.96574 139.129234 
L 273.388328 138.367257 
L 273.805884 136.121432 
L 274.223441 132.893058 
L 275.063585 129.002968 
L 275.481142 127.779795 
L 275.90373 125.152982 
L 276.321286 125.213138 
L 277.161431 128.240992 
L 277.996544 137.545125 
L 278.419131 136.422212 
L 279.676832 128.561824 
L 280.094389 128.060523 
L 280.934533 123.508717 
L 281.35209 123.969913 
L 281.769647 123.729289 
L 282.609791 130.887857 
L 283.027348 133.153734 
L 283.449935 133.093578 
L 284.285049 127.799847 
L 285.965337 120.380603 
L 286.382894 119.418107 
L 286.800451 120.701435 
L 288.058152 130.787597 
L 288.480739 130.246193 
L 289.73844 122.064972 
L 290.155997 120.721487 
L 291.413698 115.588172 
L 291.831255 116.069421 
L 292.253842 119.097274 
L 292.671399 123.428509 
L 293.088956 125.63423 
L 293.511543 126.03527 
L 294.346657 119.538419 
L 294.769244 117.352749 
L 295.604358 114.204584 
L 296.026945 111.637926 
L 296.444502 109.893401 
L 296.862059 110.535066 
L 297.284646 113.703283 
L 297.702203 118.35535 
L 298.11976 120.781643 
L 298.542347 120.841799 
L 299.377461 115.126976 
L 300.635162 109.331945 
L 301.057749 106.384299 
L 301.475306 105.842895 
L 301.892863 107.707732 
L 302.31545 112.159278 
L 303.150563 118.616026 
L 303.573151 118.194934 
L 304.408264 112.07907 
L 304.830852 110.174129 
L 306.088553 102.494209 
L 306.50611 102.173377 
L 306.923666 102.654625 
L 307.346254 105.602271 
L 308.181367 113.703283 
L 308.603955 113.101723 
L 309.021512 110.394701 
L 309.439068 106.865548 
L 309.861656 104.318942 
L 310.279213 102.694729 
L 310.696769 101.732233 
L 311.119357 97.842142 
L 311.536914 96.999958 
L 311.95447 98.965055 
L 312.377058 102.153325 
L 313.212171 109.392101 
L 313.634759 108.830645 
L 314.052316 106.785339 
L 314.469872 103.436654 
L 315.310017 99.265835 
L 315.727573 97.902298 
L 316.150161 94.052312 
L 316.567718 93.932 
L 316.985274 94.854393 
L 317.407862 98.062715 
L 317.825418 103.095769 
L 318.242975 105.161127 
L 318.665563 104.840294 
L 319.500676 99.165575 
L 319.923264 96.017409 
L 320.758377 94.994757 
L 321.598521 89.961702 
L 322.016078 91.525759 
L 322.438666 94.33304 
L 322.856222 98.884847 
L 323.273779 100.70958 
L 323.696367 101.090568 
L 324.53148 95.937201 
L 324.954068 93.170024 
L 325.371624 92.087215 
L 325.789181 89.400246 
L 326.629325 86.75338 
L 327.046882 88.076813 
L 327.46947 90.984355 
L 327.887026 94.834341 
L 328.304583 97.581466 
L 328.727171 98.203079 
L 329.562284 92.207527 
L 331.242573 82.101314 
L 331.660129 81.018505 
L 332.077686 82.722926 
L 333.335387 93.350492 
L 333.757974 92.568463 
L 335.015675 84.367191 
L 335.433232 83.304434 
L 336.690933 78.632316 
L 337.10849 79.554708 
L 337.531077 82.001054 
L 337.948634 86.773432 
L 338.366191 88.878893 
L 338.788778 89.039309 
L 340.464036 79.294032 
L 340.881593 78.211223 
L 341.30418 74.641965 
L 341.721737 73.519053 
L 342.139294 75.58441 
L 342.561881 78.291431 
L 342.979438 82.241678 
L 343.396995 84.808335 
L 343.819582 84.928647 
L 344.237139 81.058609 
L 345.49484 73.398741 
L 345.912397 72.135464 
L 346.334984 70.170367 
L 346.752541 67.423241 
L 347.592685 72.356036 
L 348.427799 80.116164 
L 348.850386 79.614864 
L 350.108087 71.293279 
L 350.525644 70.972447 
L 351.365788 64.214919 
L 351.783345 63.412839 
L 352.200902 64.475596 
L 353.458603 76.246126 
L 353.88119 74.942746 
L 354.298747 72.436244 
L 354.716304 69.167766 
L 355.138891 67.022201 
L 355.556448 66.420641 
L 355.974005 63.894087 
L 356.396592 60.405037 
L 356.814149 59.041501 
L 357.231705 61.367534 
L 357.654293 64.355284 
L 358.07185 69.127662 
L 358.489406 71.734424 
L 358.911994 70.410991 
L 359.747107 63.272475 
L 360.169695 61.848782 
L 360.587252 58.720668 
L 361.004808 57.216768 
L 361.427396 52.043349 
L 361.844953 51.501944 
L 362.262509 53.286573 
L 363.102654 62.43029 
L 363.52021 64.876636 
L 363.942798 63.793827 
L 364.360355 59.863633 
L 364.777911 58.058952 
L 365.200499 54.610006 
L 365.618056 54.028498 
L 366.035612 52.504545 
L 366.4582 48.855079 
L 366.875757 47.551698 
L 367.293313 49.175911 
L 368.551014 60.224569 
L 368.973602 59.703217 
L 370.231303 51.020696 
L 370.64886 50.298824 
L 371.489004 46.448837 
L 371.90656 44.443636 
L 372.324117 45.345977 
L 373.164261 52.965741 
L 373.581818 55.933439 
L 373.581818 55.933439 
" style="fill:none;stroke:#1f77b4;stroke-linecap:square;stroke-width:1.5;"/>
   </g>
   <g id="patch_3">
    <path d="M 54 252 
L 54 34.56 
" style="fill:none;stroke:#000000;stroke-linecap:square;stroke-linejoin:miter;stroke-width:0.8;"/>
   </g>
   <g id="patch_4">
    <path d="M 388.8 252 
L 388.8 34.56 
" style="fill:none;stroke:#000000;stroke-linecap:square;stroke-linejoin:miter;stroke-width:0.8;"/>
   </g>
   <g id="patch_5">
    <path d="M 54 252 
L 388.8 252 
" style="fill:none;stroke:#000000;stroke-linecap:square;stroke-linejoin:miter;stroke-width:0.8;"/>
   </g>
   <g id="patch_6">
    <path d="M 54 34.56 
L 388.8 34.56 
" style="fill:none;stroke:#000000;stroke-linecap:square;stroke-linejoin:miter;stroke-width:0.8;"/>
   </g>
  </g>
 </g>
 <defs>
  <clipPath id="p96146627b1">
   <rect height="217.44" width="334.8" x="54" y="34.56"/>
  </clipPath>
 </defs>
</svg>
